<svg version="1.1" id="Layer_1" xmlns="http://www.w3.org/2000/svg" xmlns:xlink="http://www.w3.org/1999/xlink" x="0px" y="0px" viewBox="-0.005 109.637 595.289 473.787"
	 enable-background="new -0.005 109.637 595.289 473.787" xml:space="preserve">
<path fill="#FFFFFF" d="M497.328,109.646l-26.304,26.304c53.85,53.85,87.055,128.167,87.055,210.585
	c0,82.418-33.2,156.735-87.055,210.585l26.304,26.304c60.556-60.556,97.956-144.443,97.956-236.894
	c0-92.445-37.4-176.338-97.956-236.894V109.646z M255.784,123.31c-2.79,0-6.948,1.86-9.738,4.65L98.096,258.178
	c-2.791,2.325-8.344,4.65-12.064,4.65H6.971c-3.72,0-6.976,3.256-6.976,6.976v153.471c0,3.72,3.256,6.976,6.976,6.976h79.061
	c3.721,0,9.273,1.86,12.064,4.65l147.95,130.218c2.79,2.325,7.413,4.65,9.738,4.65s4.65-3.255,4.65-6.976V130.286
	C260.435,126.565,258.574,123.31,255.784,123.31z M418.268,188.711l-26.304,26.304c33.861,33.861,54.501,80.274,54.501,131.524
	c0,51.25-20.793,98.091-54.501,131.38l26.159,26.453c40.703-40.191,65.546-96.538,65.546-157.833s-24.853-117.284-65.401-157.833
	V188.711z M338.914,267.628l-25.871,26.741c13.677,13.31,21.802,31.554,21.802,52.175c0,20.616-8.12,38.865-21.802,52.175
	l25.871,26.741c20.737-20.175,33.136-48.376,33.136-78.917C372.05,316.003,359.652,287.807,338.914,267.628z"/>
</svg>
