<?xml version="1.0" encoding="utf-8"?>
<!-- Generator: Adobe Illustrator 16.0.4, SVG Export Plug-In . SVG Version: 6.00 Build 0)  -->
<!DOCTYPE svg PUBLIC "-//W3C//DTD SVG 1.1//EN" "http://www.w3.org/Graphics/SVG/1.1/DTD/svg11.dtd">
<svg version="1.1" id="Layer_1" xmlns="http://www.w3.org/2000/svg" xmlns:xlink="http://www.w3.org/1999/xlink" x="0px" y="0px"
	 width="544.148px" height="528.317px" viewBox="29.814 78.659 544.148 528.317"
	 enable-background="new 29.814 78.659 544.148 528.317" xml:space="preserve">
<path d="M82.447,503.844c21.96,14.978,48.438,20.508,74.547,15.566c0.857-0.16,1.708-0.333,2.56-0.518
	c0.273,2.256,0.565,4.519,0.857,6.78c1.042,8.054,2.023,15.655,2.023,23.043c0,7.947-3.095,15.424-8.715,21.05
	c-3.143,3.143-7.815,5.339-13.096,6.494c0.47-2.113,0.768-4.274,0.768-6.494c0-7.953-3.102-15.424-8.715-21.044
	c-5.619-5.625-13.096-8.721-21.049-8.721s-15.424,3.102-21.043,8.715c-5.626,5.62-8.722,13.097-8.722,21.05
	c0,7.78,3.007,15.078,8.394,20.649c0.119,0.125,0.203,0.274,0.321,0.399c10.269,10.269,25.609,16.162,42.093,16.162
	s31.823-5.894,42.092-16.162c11.245-11.245,17.437-26.192,17.437-42.093c0-9.298-1.155-18.228-2.269-26.858
	c-0.351-2.703-0.696-5.399-1.006-8.09c-0.208-1.834-0.452-3.78-0.721-5.857c12.829-7.376,23.931-17.615,32.515-30.205
	c12.43-18.222,17.019-40.193,12.918-61.867c-4.096-21.674-16.389-40.456-34.61-52.885c-10.822-7.381-23.728-11.263-36.907-11.959
	c-4.042-23.781-8.346-49.533-12.721-76.559c27.264-29.145,51.152-63.743,51.521-106.359c0.208-23.906-2.625-52.504-25.198-83.333
	c-4.376-5.97-12.483-7.822-19.008-4.339c-41.848,22.317-54.319,80.898-39.021,183.989c-7.19,7.179-14.561,14.126-21.739,20.894
	c-19.9,18.757-37.134,35.009-45.754,51.718C13.406,391.896,27.758,466.544,82.447,503.844z M182.245,387.55
	c11.655,7.947,19.519,19.96,22.138,33.824c2.62,13.857-0.315,27.912-8.262,39.562c-3.673,5.382-7.995,10.15-12.853,14.228
	c-3.03-18.645-6.982-41.58-11.626-68.517c-1.369-7.959-2.815-16.329-4.31-25.062C172.774,382.615,177.894,384.58,182.245,387.55z
	 M159.886,115.251c9.358,17.436,11.418,33.99,11.257,52.569c-0.214,24.889-11.477,47.111-27.233,67.421
	C137.283,174.761,142.635,134.567,159.886,115.251z M75.339,352.952c0.387-0.571,0.737-1.161,1.041-1.78
	c6.078-12.263,22.544-27.788,39.979-44.224c2.333-2.196,4.696-4.423,7.084-6.691c3.125,19.007,6.19,37.253,9.107,54.468
	c-15.078,4.721-28.525,13.697-37.169,26.365c-8.763,12.846-11.995,28.33-9.108,43.61c2.888,15.275,11.549,28.514,24.395,37.276
	c6.799,4.632,16.055,2.875,20.681-3.911c4.631-6.792,2.881-16.049-3.911-20.68c-6.274-4.28-10.513-10.751-11.924-18.216
	c-1.41-7.465,0.173-15.03,4.453-21.311c4.03-5.911,10.352-10.436,17.662-13.347c1.631,9.501,3.196,18.579,4.679,27.175
	c5.292,30.723,9.869,57.302,13.072,77.618c-1.292,0.322-2.602,0.607-3.923,0.857c-18.293,3.465-36.854-0.41-52.248-10.911
	C57.808,451.013,47.105,394.354,75.339,352.952z"/>
<g>
	<path d="M550.634,361.417c8.221,0,14.882-6.661,14.882-14.882s-6.661-14.882-14.882-14.882h-0.446l-26.509,29.764H550.634z"/>
	<path d="M282.758,331.653c-8.221,0-14.882,6.662-14.882,14.882s6.661,14.882,14.882,14.882h27.925l-27.411-29.764H282.758z"/>
	<path d="M282.758,242.361c-8.221,0-14.882,6.661-14.882,14.882c0,8.221,6.661,14.882,14.882,14.882h73.819l0.367-29.764H282.758z"
		/>
	<path d="M565.516,257.243c0-8.221-6.661-14.882-14.882-14.882h-72.948l0.065,29.764h72.883
		C558.855,272.125,565.516,265.464,565.516,257.243z"/>
	<path d="M282.758,153.069c-8.221,0-14.882,6.661-14.882,14.882c0,8.221,6.661,14.882,14.882,14.882h74.919l0.366-29.764H282.758z"
		/>
	<path d="M550.634,182.833c8.221,0,14.882-6.661,14.882-14.882c0-8.221-6.661-14.882-14.882-14.882H477.49l0.065,29.764H550.634z"/>
	<path d="M282.758,420.945c-8.221,0-14.882,6.661-14.882,14.882s6.661,14.882,14.882,14.882h88.99l-27.411-29.764H282.758z"/>
	<path d="M550.634,450.709c8.221,0,14.882-6.661,14.882-14.882s-6.661-14.882-14.882-14.882H490.94l-26.509,29.764H550.634z"/>
	<path d="M550.634,510.237H282.758c-8.221,0-14.882,6.661-14.882,14.882s6.661,14.882,14.882,14.882h267.876
		c8.221,0,14.882-6.661,14.882-14.882S558.855,510.237,550.634,510.237z"/>
</g>
<path d="M374.676,153.069v187.646h-66.428L418.962,451.43l110.714-110.714h-66.429V153.069H374.676z M263.966,495.716v44.285
	h309.996v-44.285H263.966z"/>
</svg>
