<?xml version="1.0" encoding="utf-8"?>
<!-- Generator: Adobe Illustrator 16.0.4, SVG Export Plug-In . SVG Version: 6.00 Build 0)  -->
<!DOCTYPE svg PUBLIC "-//W3C//DTD SVG 1.1//EN" "http://www.w3.org/Graphics/SVG/1.1/DTD/svg11.dtd">
<svg version="1.1" id="Layer_1" xmlns="http://www.w3.org/2000/svg" xmlns:xlink="http://www.w3.org/1999/xlink" x="0px" y="0px"
	 width="594.013px" height="593.313px" viewBox="0.634 49.493 594.013 593.313"
	 enable-background="new 0.634 49.493 594.013 593.313" xml:space="preserve">
<path d="M439.502,50.048c-13.319,1.079-26.787,3.832-39.549,8.148c-0.372,0.111-0.781-0.112-1.153,0c-0.744,0.26-1.6-0.261-2.344,0
	v1.153c-23.662,7.106-41.409,20.5-54.654,33.708L270.89,163.97l-25.598,26.75l52.311,52.311l26.75-26.75l69.76-70.913
	c8.223-8.223,20.872-15.403,24.406-16.296c1.185-0.327,2.352-0.711,3.497-1.153c29.021-10.566,55.101-5.432,74.41,16.296
	c1.121,0.847,2.288,1.629,3.498,2.344c28.908,26.49,29.614,72.699-1.154,103.467l-70.912,69.759l-26.751,26.75l52.311,52.311
	l26.751-25.598l70.912-70.913c57.482-57.482,58.301-151.201,1.153-206.972c-1.042-1.004-1.228-2.493-2.344-3.497l-1.153,1.153
	c-19.645-20.686-43.79-35.159-69.76-40.702c-13.096-2.791-26.229-3.386-39.549-2.344L439.502,50.048z M50.003,86.1
	c-9.793,3.105-15.214,13.562-12.108,23.355c0.977,3.081,2.739,5.854,5.114,8.045l74.41,74.41
	c5.391,8.746,16.851,11.465,25.597,6.074s11.466-16.851,6.074-25.597c-1.522-2.471-3.604-4.551-6.074-6.074l-74.41-74.41
	c-4.147-4.496-10.239-6.666-16.296-5.804c-0.78-0.049-1.562-0.049-2.344,0H50.003z M198.823,86.1
	c-7.972,2.606-13.214,10.225-12.799,18.602v74.41c0,10.274,8.329,18.603,18.603,18.603c10.274,0,18.603-8.329,18.603-18.603v-74.41
	c0.184-10.272-7.995-18.748-18.267-18.932c-1.286-0.023-2.57,0.087-3.833,0.33c-0.78-0.049-1.563-0.049-2.344,0H198.823z
	 M50.003,234.92c-10.273,1.603-17.303,11.23-15.7,21.504s11.23,17.303,21.505,15.701h74.41c10.273,0,18.602-8.329,18.602-18.603
	s-8.328-18.603-18.602-18.603h-74.41c-1.163-0.11-2.334-0.11-3.498,0c-0.78-0.049-1.562-0.049-2.344,0H50.003z M145.36,290.728
	l-26.75,25.597l-74.41,74.41c-57.481,57.482-58.3,151.201-1.153,206.972c1.042,1.005,1.228,2.493,2.344,3.497l1.153-1.153
	c39.438,41.521,97.998,52.013,148.82,34.898c0.148-0.261,0.855,0.074,1.153,0c0.744-0.261,1.6,0.261,2.344,0v-1.153
	c23.663-7.106,41.409-20.5,54.654-33.708l74.41-74.41l25.597-26.75l-52.31-52.311l-25.598,26.751l-74.41,74.41
	c-8.222,8.222-20.872,15.402-24.406,16.295c-1.184,0.327-2.352,0.712-3.497,1.154c-29.021,10.565-55.101,5.432-74.41-16.296
	c-1.12-0.847-2.288-1.63-3.497-2.345c-28.908-26.489-29.615-72.698,1.153-103.467l74.41-74.41l26.75-25.597l-52.311-52.311
	L145.36,290.728z M459.295,420.945c-10.273,1.603-17.303,11.23-15.7,21.504c1.603,10.274,11.23,17.304,21.505,15.701h74.41
	c10.273,0,18.603-8.329,18.603-18.603c0-10.274-8.329-18.603-18.603-18.603H465.1c-1.163-0.11-2.334-0.11-3.497,0
	c-0.781-0.049-1.563-0.049-2.345,0H459.295z M384.886,495.355c-7.973,2.606-13.214,10.225-12.799,18.603v74.409
	c0,10.274,8.328,18.603,18.603,18.603c10.273,0,18.603-8.328,18.603-18.603v-74.409c0.184-10.272-7.995-18.749-18.268-18.933
	c-1.285-0.022-2.569,0.088-3.832,0.33c-0.781-0.05-1.563-0.05-2.344,0H384.886z M459.295,495.355
	c-9.793,3.105-15.214,13.562-12.108,23.355c0.978,3.08,2.74,5.854,5.114,8.045l74.41,74.41c5.391,8.746,16.852,11.466,25.597,6.074
	c8.746-5.391,11.466-16.851,6.075-25.597c-1.523-2.471-3.604-4.552-6.075-6.074l-74.41-74.41
	c-4.146-4.496-10.239-6.666-16.295-5.804c-0.781-0.05-1.563-0.05-2.345,0H459.295z"/>
<text transform="matrix(1 0 0 1 -0.0154 1202.2578)" font-family="'HelveticaNeue-Bold'" font-size="186.0251">Created by useiconic.com</text>
<text transform="matrix(1 0 0 1 -0.0154 1388.2891)" font-family="'HelveticaNeue-Bold'" font-size="186.0251">from the Noun Project</text>
</svg>
