<?xml version="1.0" encoding="utf-8"?>
<!-- Generator: Adobe Illustrator 16.0.4, SVG Export Plug-In . SVG Version: 6.00 Build 0)  -->
<!DOCTYPE svg PUBLIC "-//W3C//DTD SVG 1.1//EN" "http://www.w3.org/Graphics/SVG/1.1/DTD/svg11.dtd">
<svg version="1.1" id="Layer_1" xmlns="http://www.w3.org/2000/svg" xmlns:xlink="http://www.w3.org/1999/xlink" x="0px" y="0px"
	 width="1000px" height="1000px" viewBox="0 0 1000 1000" style="enable-background:new 0 0 1000 1000;" xml:space="preserve">
<style type="text/css">
<![CDATA[
	.st0{fill:#8180FF;}
	.st1{fill:#FFA748;}
	.st2{fill:#FFFFFF;}
	.st3{fill:#A3A300;}
]]>
</style>
<g id="axes">
	<path class="st1" d="M500.7,502.6c-3.9,0-7-3.1-7-7v-452c0-3.9,3.1-7,7-7l0,0c3.9,0,7,3.1,7,7v452
		C507.7,499.4,504.5,502.6,500.7,502.6L500.7,502.6z"/>
	<path class="st1" d="M500.5,502c-3.2,2.1-7.6,1.2-9.7-2L242.2,122.5c-2.1-3.2-1.2-7.6,2-9.7l0,0c3.2-2.1,7.6-1.2,9.7,2l248.6,377.5
		C504.6,495.5,503.7,499.9,500.5,502L500.5,502z"/>
	<path class="st1" d="M500.9,501.8c-1.4,3.6-5.4,5.4-9,4L69.5,344.9c-3.6-1.4-5.4-5.4-4-9l0,0c1.4-3.6,5.4-5.4,9-4l422.4,160.9
		C500.5,494.1,502.3,498.1,500.9,501.8L500.9,501.8z"/>
	<path class="st1" d="M500.7,501.4c1.2,3.7-0.8,7.6-4.5,8.8L65.8,648.4c-3.7,1.2-7.6-0.8-8.8-4.5l0,0c-1.2-3.7,0.8-7.6,4.5-8.8
		l430.3-138.2C495.6,495.7,499.5,497.7,500.7,501.4L500.7,501.4z"/>
	<path class="st1" d="M500.7,501.1c3.3,2,4.4,6.3,2.4,9.6L271.8,899c-2,3.3-6.3,4.4-9.6,2.4l0,0c-3.3-2-4.4-6.3-2.4-9.6l231.4-388.3
		C493.1,500.2,497.4,499.1,500.7,501.1L500.7,501.1z"/>
	<path class="st1" d="M500.7,501.3c3.7-1,7.6,1.3,8.5,5l114.1,437.4c1,3.7-1.3,7.6-5,8.5l0,0c-3.7,1-7.6-1.3-8.5-5L495.7,509.9
		C494.8,506.1,497,502.3,500.7,501.3L500.7,501.3z"/>
	<path class="st1" d="M500.9,501.5c1.7-3.5,5.9-4.9,9.3-3.3l407,196.7c3.5,1.7,4.9,5.9,3.3,9.3l0,0c-1.7,3.5-5.9,4.9-9.3,3.3
		l-407-196.7C500.7,509.1,499.2,505,500.9,501.5L500.9,501.5z"/>
	<path class="st1" d="M501.4,500.6c-1.9-3.4-0.7-7.6,2.7-9.5l394.9-220c3.4-1.9,7.6-0.7,9.5,2.7l0,0c1.9,3.4,0.7,7.6-2.7,9.5
		l-394.9,220C507.6,505.2,503.3,504,501.4,500.6L501.4,500.6z"/>
</g>
<g id="Spiral">
	<path class="st0" d="M588.7,621.4c30.7-28.2,48.4-68.9,47.3-108.8c-1.1-37.4-16.7-70.9-44.1-94.3c-15.1-12.9-32.9-21.7-51.7-26
		c0.6,2.7,0.9,5.6,0.9,8.5c0,4.5-0.7,8.8-2.1,12.9c14.3,3.8,27.7,10.8,39.3,20.7c22.8,19.5,35.9,47.6,36.8,79
		c1,33.9-14.2,68.6-40.5,92.7c-20.4,18.8-56.6,39.8-113,33.6c-0.4,7.5-2.8,14.4-6.7,20.3c1.2,0.2,2.4,0.3,3.5,0.5
		C508.8,666.1,555.1,652.2,588.7,621.4z"/>
	<path class="st0" d="M312.1,143.9c5.3,4.7,9.4,10.7,11.7,17.5c44.4-25.9,90.6-42,137.7-48.1c-1.5-4.3-2.3-8.8-2.3-13.6
		c0-2.5,0.2-5,0.7-7.4C409.2,98.7,359.6,116,312.1,143.9z"/>
	<path class="st0" d="M486.2,562.4c16,0,28.6-5,37.5-14.9c7-7.8,10.3-17.2,11.8-25.3c-7.1,12.1-20.2,20.3-35.2,20.3
		c-3.4,0-6.7-0.4-9.9-1.2c-1.5,0.1-3.1,0.2-4.8,0.2c-19-0.2-31.6-9.9-38.9-18c-13.5-14.9-18.4-34.6-17.3-46.6
		c1.5-15.5,11.1-39.8,36.4-54.4c-3.8-5.9-6-12.9-6.3-20.4c-10.6,5.5-19.9,12.6-27.7,21.2c-13.1,14.6-21.7,33.4-23.4,51.7
		c-1.9,20.6,6.9,45.2,22.6,62.6c14.5,16.1,33.2,24.7,54.3,24.9C485.7,562.4,485.9,562.4,486.2,562.4z"/>
	<path class="st0" d="M357.9,358.3c-27.2,33-43.4,76-43.4,115.1c0,38.3,10.9,80,29.1,111.3c10.2,17.6,22.8,32.4,37.4,44.1
		c1.5-7.2,5-13.8,9.8-19c-11.1-9.6-20.8-21.5-29-35.6c-16.4-28.3-26.3-66-26.3-100.8c0-26.5,10.1-67.2,38.6-101.7
		c16.8-20.4,44.8-44.2,88.3-54.8c-2.1-4.9-3.2-10.2-3.2-15.8c0-1.7,0.1-3.4,0.3-5.1C409.4,307.5,377.2,334.9,357.9,358.3z"/>
	<path class="st0" d="M785,386.4c11,22.1,18.4,42.2,22.4,57.2c2.8,10.7,19.2,79.6-5,162.6c7.3,0.3,14.2,2.5,20,6.1
		c5-17.2,8.7-34.9,11.1-53.1c8-61.9-2.4-108.3-5.8-121c-4.1-15.3-12-36.9-23.7-60.5C798.6,382.1,792.1,385.2,785,386.4z"/>
	<path class="st0" d="M700.4,642.1c-7.1-1.5-13.5-4.8-18.7-9.5c-2.5,4-5.1,8-7.8,11.9c-18,25.3-41.9,46.4-71,62.7
		c-60.1,33.6-127.7,41.5-190.1,22.1c-1-0.3-2-0.6-3-1c-0.9,7.3-3.7,14-7.9,19.5c1.5,0.5,3.1,1,4.6,1.5
		c68,21.1,141.4,12.7,206.6-23.8C650.4,704.7,679.8,676.4,700.4,642.1z"/>
	<path class="st0" d="M651.1,335.2c-31.8-24.3-69.7-39-111.4-43.5c0.7,3,1.1,6.1,1.1,9.3c0,4.1-0.6,8-1.7,11.7
		c37.3,4.2,70.6,17.3,99.3,39.2c29.4,22.5,52.8,54.1,64.1,86.7c9.7,27.9,16.1,74.2,6.5,122.8c7.4,0,14.3,2,20.3,5.5
		c10.8-53.3,3.7-104.4-7-135.2C709.6,395.3,683.6,360.1,651.1,335.2z"/>
	<path class="st0" d="M261.3,366.8c23.5-49.1,60.1-90,104-115.3c32.9-19,64.9-31.8,96.9-38.3c-1.7-4.4-2.6-9.2-2.6-14.2
		c0-2.3,0.2-4.6,0.6-6.8c-34.8,6.8-69.6,20.4-105.4,41.1c-48.2,27.9-88.2,72.9-113.5,126.7C248.6,360.5,255.5,362.9,261.3,366.8z"/>
	<path class="st0" d="M546.8,835.6c0-0.6,0-1.2,0-1.8c-55.9,9.5-116.6,5.5-172.2-11.4c-5.2-1.6-10.3-3.3-15.4-5.1
		c-1.5,7.2-4.8,13.6-9.5,18.9c6.2,2.3,12.5,4.4,18.8,6.4c37.9,11.5,78,17.4,117.5,17.4c22.1,0,44-1.8,65.3-5.5
		C548.4,848.7,546.8,842.3,546.8,835.6z"/>
	<path class="st0" d="M289,781.7c-25.2-16.7-48.5-36.8-68.6-59.7c-20.3-23-37.2-48.4-50.5-75.6c-5.8,3.9-12.6,6.4-20,6.9
		c14.2,29.7,32.6,57.5,54.7,82.6c21.9,24.8,47.3,46.6,74.8,64.6C280.9,793.3,284.3,786.9,289,781.7z"/>
	<path class="st0" d="M772.5,676.2c-10,17.3-22.1,34.7-36.9,51.9c-23.9,27.7-51.7,50.7-82.6,68.3c-10.3,5.9-21,11.2-32.1,15.8
		c4,5.7,6.6,12.4,7.2,19.8c12.1-5.1,23.9-10.9,35.2-17.4c33-18.8,62.7-43.3,88.2-72.8c15.1-17.5,28.2-36,39.3-55.3
		C783.8,684.7,777.5,681.1,772.5,676.2z"/>
	<path class="st0" d="M137.4,533.3c-4.7-43-2.4-85.8,6.6-126.8c-7.4-0.1-14.3-2.1-20.3-5.6c-9.6,43.6-12.1,89.1-7.2,134.7
		c1.6,14.8,4.1,29.3,7.4,43.6c5.7-4,12.6-6.5,19.9-7.1C141,559.3,138.9,546.4,137.4,533.3z"/>
	<path class="st0" d="M539.7,188.5c0.9,3.4,1.4,6.9,1.4,10.5c0,3.7-0.5,7.2-1.4,10.6c35.5,3.8,71.9,15.1,110.3,33.7
		c39.1,19,70.6,48.1,94.9,79.2c4.1-5.8,9.7-10.4,16.3-13.4c-29.4-37.6-63.6-66-102-84.7C617.3,204.1,578,192.3,539.7,188.5z"/>
	<path class="st0" d="M330.4,711.2c2.1-6.9,6.1-13,11.3-17.8c-31.3-22.8-58.1-53.2-78.5-89.6c-27.2-48.6-36-105.2-25.9-162.4
		c-7.4-0.2-14.3-2.5-20.2-6.2c-11.6,62.8-2.1,125.2,27.8,178.8C266.9,653.5,296.2,686.5,330.4,711.2z"/>
	<path class="st0" d="M168.3,332.7c1-2.3,2-4.5,3.1-6.8c21.7-45.8,52.1-86.4,89.1-119.1c-5.6-4.3-10.1-10.1-12.8-16.7
		c-39.6,34.8-72.1,78.1-95.2,126.9c-1.3,2.7-2.5,5.5-3.8,8.2C155.9,325.9,162.6,328.6,168.3,332.7z"/>
	<path class="st0" d="M540.7,99.7c0,4.3-0.7,8.5-1.9,12.4c47.8,4.4,97.3,18,147.9,40.9c5.3,2.4,11.5,0,13.9-5.2
		c2.4-5.3,0-11.5-5.2-13.9c-53.1-24-105.1-38.3-155.5-42.8C540.4,93.8,540.7,96.7,540.7,99.7z"/>
</g>
<g id="overtones">
    <g id="overtone-16">
        <path class="st3" d="M500,58.9c-22.5,0-40.8,18.2-40.8,40.8c0,22.5,18.2,40.7,40.8,40.7s40.8-18.2,40.8-40.7
            C540.7,77.2,522.5,58.9,500,58.9z M528.7,97.3h-7.9c-0.4-4-2-7.6-4.4-10.6l5.6-5.6C525.8,85.6,528.2,91.2,528.7,97.3z M502.5,128.4
            v-8c4-0.5,7.7-2.1,10.6-4.5l5.6,5.6C514.3,125.4,508.7,127.8,502.5,128.4z M481.4,121.7l5.6-5.6c3,2.4,6.7,4,10.8,4.4v7.9
            C491.6,127.9,485.9,125.5,481.4,121.7z M497.8,70.9v7.9c-4.1,0.4-7.7,2-10.8,4.4l-5.6-5.6C485.9,73.8,491.6,71.4,497.8,70.9z
             M518.7,77.8l-5.6,5.6c-3-2.4-6.6-4-10.6-4.5v-8C508.7,71.5,514.3,74,518.7,77.8z M497.8,108.8c-4.2-1-7.3-4.7-7.3-9.2
            c0-4.5,3.1-8.2,7.3-9.2V108.8z M502.5,90.6c4,1.1,6.9,4.7,6.9,9.1c0,4.3-2.9,8-6.9,9.1V90.6z M497.8,80.4v8.2
            c-4.4,0.9-7.9,4.3-8.8,8.7h-8.2C481.8,88.4,488.9,81.4,497.8,80.4z M489,102c0.9,4.4,4.4,7.8,8.8,8.7v8.2c-8.9-1-16-8-17.1-16.9
            H489z M502.5,118.9v-8.3c4.3-1,7.6-4.3,8.5-8.6h8.2C518.2,110.8,511.2,117.8,502.5,118.9z M511,97.3c-0.9-4.3-4.2-7.7-8.5-8.6v-8.3
            c8.8,1.1,15.7,8.1,16.7,16.9H511z M520.3,76.2c-2.2-1.9-4.7-3.5-7.4-4.8l1.5-3.7c3.2,1.4,6.1,3.4,8.7,5.6L520.3,76.2z M511.1,70.6
            c-2.7-1-5.6-1.7-8.6-1.9v-4.1c3.6,0.3,7,1,10.2,2.3L511.1,70.6z M497.8,68.7c-3,0.2-5.9,0.8-8.7,1.9l-1.5-3.7
            c3.2-1.2,6.6-2,10.2-2.2V68.7z M487.3,71.3c-2.7,1.2-5.3,2.8-7.5,4.7l-2.9-2.9c2.6-2.3,5.6-4.2,8.8-5.6L487.3,71.3z M483.7,86.5
            c-2.4,3-4.1,6.7-4.5,10.8h-7.9c0.5-6.2,3-11.9,6.8-16.4L483.7,86.5z M469,97.3h-4.1c0.2-3.6,1-7,2.2-10.2l3.7,1.5
            C469.9,91.4,469.2,94.3,469,97.3z M469,102c0.2,3,0.9,6,1.9,8.7l-3.7,1.5c-1.2-3.2-2-6.7-2.2-10.2H469z M471.3,102h7.9
            c0.5,4.1,2.1,7.8,4.5,10.8l-5.6,5.6C474.3,113.9,471.8,108.3,471.3,102z M479.8,123.3c2.2,1.9,4.8,3.5,7.5,4.7l-1.5,3.7
            c-3.2-1.4-6.2-3.3-8.8-5.6L479.8,123.3z M489.2,128.8c2.7,1,5.6,1.6,8.7,1.9v4.1c-3.6-0.2-7-1-10.2-2.2L489.2,128.8z M502.5,130.6
            c3-0.2,5.9-0.9,8.6-1.9l1.5,3.7c-3.2,1.2-6.6,2-10.2,2.3V130.6z M512.9,127.9c2.7-1.2,5.2-2.9,7.4-4.8l2.9,2.9
            c-2.6,2.3-5.5,4.2-8.7,5.6L512.9,127.9z M516.4,112.6c2.4-3,3.9-6.6,4.4-10.6h7.9c-0.5,6.2-2.9,11.8-6.7,16.2L516.4,112.6z
             M531,102h4.1c-0.2,3.5-1,6.9-2.2,10.1l-3.7-1.5C530.1,107.9,530.7,105,531,102z M531,97.3c-0.2-3-0.9-5.9-1.9-8.6l3.7-1.5
            c1.2,3.2,2,6.6,2.2,10.1H531z M532.1,85.4l-3.7,1.5c-1.2-2.7-2.8-5.2-4.7-7.4l2.9-2.9C528.8,79.2,530.6,82.2,532.1,85.4z
             M473.6,76.5l2.9,2.9c-1.9,2.2-3.6,4.8-4.8,7.5l-3.7-1.5C469.4,82,471.3,79.1,473.6,76.5z M468,114.1l3.7-1.5
            c1.2,2.7,2.9,5.2,4.8,7.5l-2.9,2.9C471.3,120.3,469.4,117.3,468,114.1z M526.5,122.7l-2.9-2.9c1.9-2.2,3.5-4.7,4.7-7.4l3.7,1.5
            C530.6,117.2,528.8,120.1,526.5,122.7z"/>
        <g id="overtone-16-space">
            <g>
                <path class="st2" d="M523.2,126l-2.9-2.9c-2.2,1.9-4.7,3.5-7.4,4.8l1.5,3.7C517.7,130.2,520.6,128.3,523.2,126z"/>
                <path class="st2" d="M532.1,114l-3.7-1.5c-1.2,2.7-2.8,5.2-4.7,7.4l2.9,2.9C528.8,120.1,530.6,117.2,532.1,114z"/>
                <path class="st2" d="M535,102H531c-0.2,3-0.9,5.9-1.9,8.6l3.7,1.5C534,108.9,534.8,105.5,535,102z"/>
                <path class="st2" d="M502.5,64.6v4.1c3,0.2,5.9,0.9,8.6,1.9l1.5-3.7C509.5,65.7,506,64.9,502.5,64.6z"/>
                <path class="st2" d="M502.5,134.7c3.6-0.2,7-1,10.2-2.3l-1.5-3.7c-2.7,1-5.6,1.7-8.6,1.9V134.7z"/>
                <path class="st2" d="M526.5,76.6l-2.9,2.9c1.9,2.2,3.5,4.7,4.7,7.4l3.7-1.5C530.6,82.2,528.8,79.2,526.5,76.6z"/>
                <path class="st2" d="M532.8,87.2l-3.7,1.5c1,2.7,1.7,5.6,1.9,8.6h4.1C534.8,93.8,534,90.4,532.8,87.2z"/>
                <path class="st2" d="M512.9,71.4c2.7,1.2,5.2,2.8,7.4,4.8l2.9-2.9c-2.6-2.3-5.5-4.2-8.7-5.6L512.9,71.4z"/>
                <path class="st2" d="M464.9,97.3h4.1c0.2-3,0.9-6,1.9-8.7l-3.7-1.5C466,90.3,465.2,93.8,464.9,97.3z"/>
                <path class="st2" d="M476.9,73.2l2.9,2.9c2.2-1.9,4.8-3.5,7.5-4.7l-1.5-3.7C482.5,69,479.6,70.9,476.9,73.2z"/>
                <path class="st2" d="M489.2,70.5c2.7-1,5.6-1.6,8.7-1.9v-4.1c-3.6,0.2-7,1-10.2,2.2L489.2,70.5z"/>
                <path class="st2" d="M467.2,112.2l3.7-1.5c-1-2.7-1.7-5.7-1.9-8.7h-4.1C465.2,105.6,466,109,467.2,112.2z"/>
                <path class="st2" d="M476.5,120c-1.9-2.2-3.6-4.8-4.8-7.5l-3.7,1.5c1.5,3.2,3.4,6.2,5.7,8.8L476.5,120z"/>
                <path class="st2" d="M468,85.3l3.7,1.5c1.2-2.7,2.9-5.2,4.8-7.5l-2.9-2.9C471.3,79.1,469.4,82,468,85.3z"/>
                <path class="st2" d="M487.3,128.1c-2.7-1.2-5.3-2.8-7.5-4.7l-2.9,2.9c2.6,2.3,5.6,4.2,8.8,5.6L487.3,128.1z"/>
                <path class="st2" d="M497.8,134.7v-4.1c-3-0.2-5.9-0.8-8.7-1.9l-1.5,3.7C490.8,133.8,494.2,134.5,497.8,134.7z"/>
            </g>
            <g>
                <path class="st2" d="M502.5,78.9c4,0.5,7.7,2.1,10.6,4.5l5.6-5.6c-4.4-3.8-10.1-6.3-16.2-6.8V78.9z"/>
                <path class="st2" d="M513.1,115.9c-3,2.4-6.6,4-10.6,4.5v8c6.2-0.5,11.8-3,16.3-6.8L513.1,115.9z"/>
                <path class="st2" d="M516.4,86.7c2.4,3,3.9,6.6,4.4,10.6h7.9c-0.5-6.2-2.9-11.8-6.7-16.2L516.4,86.7z"/>
                <path class="st2" d="M520.8,102c-0.4,4-2,7.6-4.4,10.6l5.6,5.6c3.8-4.5,6.2-10.1,6.7-16.2H520.8z"/>
                <path class="st2" d="M497.8,120.5c-4.1-0.4-7.7-2-10.8-4.4l-5.6,5.6c4.5,3.8,10.2,6.2,16.4,6.7V120.5z"/>
                <path class="st2" d="M479.2,97.3c0.5-4.1,2.1-7.8,4.5-10.8l-5.6-5.6c-3.8,4.5-6.3,10.2-6.8,16.4H479.2z"/>
                <path class="st2" d="M479.2,102h-7.9c0.5,6.2,3,11.9,6.8,16.4l5.6-5.6C481.3,109.8,479.7,106.1,479.2,102z"/>
                <path class="st2" d="M497.8,70.9c-6.2,0.5-11.9,2.9-16.4,6.7l5.6,5.6c3-2.4,6.7-4,10.8-4.4V70.9z"/>
            </g>
            <g>
                <path class="st2" d="M502.5,88.7c4.3,1,7.6,4.3,8.5,8.6h8.2c-1.1-8.8-8-15.8-16.7-16.9V88.7z"/>
                <path class="st2" d="M502.5,118.9c8.8-1.1,15.7-8.1,16.7-16.9H511c-0.9,4.3-4.2,7.7-8.5,8.6V118.9z"/>
                <path class="st2" d="M497.8,80.4c-8.9,1-16,8-17.1,16.9h8.2c0.9-4.4,4.4-7.8,8.8-8.7V80.4z"/>
                <path class="st2" d="M497.8,110.7c-4.4-0.9-7.9-4.3-8.8-8.7h-8.2c1.1,8.9,8.2,15.9,17.1,16.9V110.7z"/>
            </g>
            <g>
                <path class="st2" d="M502.5,108.8c4-1.1,6.9-4.7,6.9-9.1c0-4.3-2.9-8-6.9-9.1V108.8z"/>
                <path class="st2" d="M497.8,90.5c-4.2,1-7.3,4.7-7.3,9.2c0,4.5,3.1,8.2,7.3,9.2V90.5z"/>
            </g>
        </g>
    </g>
    <g id="overtone-15">
        <path class="st3" d="M285.2,133.7c-22.5,0-40.8,18.2-40.8,40.8c0,22.5,18.2,40.8,40.8,40.8c22.5,0,40.8-18.2,40.8-40.8
            C326,152,307.8,133.7,285.2,133.7z M295.5,193.4l8,11.1c-2.8,1.7-6,3.1-9.3,4l-2.8-13.4C292.9,194.6,294.2,194.1,295.5,193.4z
             M285.2,193c-5.9,0-11.1-2.7-14.5-7l14.2-8.2l14.6,8.4C296.2,190.4,291,193,285.2,193z M278.8,195l-2.8,13.4
            c-3.3-0.9-6.4-2.3-9.2-4l8-11.1C276,193.9,277.4,194.5,278.8,195z M250.1,174.5c0-2.8,0.3-5.5,0.9-8.1l13,4.2
            c-0.2,1.3-0.4,2.5-0.4,3.8c0,0.3,0,0.6,0,0.9l-13.6,1.4C250.2,176,250.1,175.3,250.1,174.5z M265.3,166.5l-13-4.2
            c1.2-3.4,3-6.5,5.1-9.3l10.2,9.2C266.7,163.5,265.9,165,265.3,166.5z M264.4,179.6c0.4,1.5,0.9,3,1.6,4.3l-11.8,6.8
            c-1.6-3-2.7-6.3-3.4-9.7L264.4,179.6z M266.7,174.5c0-9.6,7.2-17.4,16.5-18.4v17.9l-14.7,8.5C267.4,180,266.7,177.3,266.7,174.5z
             M287.5,153.1v-13.7c3.7,0.2,7.2,1,10.5,2.3l-5.6,12.5C290.9,153.7,289.2,153.3,287.5,153.1z M283.2,153.1c-1.7,0.2-3.4,0.5-5,1.1
            l-5.6-12.5c3.3-1.3,6.9-2.1,10.6-2.3V153.1z M287.5,174.4v-18.3c9.2,1.1,16.3,8.9,16.3,18.4c0,2.9-0.7,5.7-1.9,8.2L287.5,174.4z
             M303,162.4l10.2-9.2c2.1,2.8,3.9,5.9,5.1,9.3l-13,4.2C304.7,165.2,304,163.8,303,162.4z M306,179.8l13.7,1.4
            c-0.7,3.4-1.9,6.7-3.5,9.7l-11.8-6.8C305.1,182.8,305.7,181.3,306,179.8z M306.7,175.6c0-0.4,0.1-0.8,0.1-1.2
            c0-1.2-0.1-2.4-0.3-3.6l13.1-4.2c0.6,2.5,0.9,5.1,0.9,7.8c0,0.9,0,1.7-0.1,2.6L306.7,175.6z M310.4,150l-10.1,9.1
            c-1.2-1.2-2.5-2.2-4-3.1l5.6-12.5C305.1,145.3,308,147.4,310.4,150z M268.8,143.4l5.6,12.5c-1.5,0.9-2.8,1.9-4,3l-10.1-9.1
            C262.7,147.3,265.6,145.1,268.8,143.4z M256.3,194.4l11.9-6.9c0.9,1.2,1.9,2.3,3.1,3.3l-8,11C260.6,199.7,258.3,197.2,256.3,194.4z
             M280.1,209.2l2.8-13.4c0.8,0.1,1.5,0.1,2.3,0.1c0.7,0,1.4,0,2.1-0.1l2.8,13.4c-1.6,0.2-3.2,0.3-4.9,0.3
            C283.5,209.6,281.8,209.5,280.1,209.2z M307.1,202l-8-11c1.1-1,2.2-2,3.1-3.2l11.9,6.9C312.1,197.4,309.7,199.9,307.1,202z"/>
        <g id="overtone-15-space">
            <g>
                <path class="st2" d="M260.2,149.8l10.1,9.1c1.2-1.2,2.6-2.2,4-3l-5.6-12.5C265.6,145.1,262.7,147.3,260.2,149.8z"/>
                <path class="st2" d="M320.3,177.1c0.1-0.9,0.1-1.7,0.1-2.6c0-2.7-0.3-5.3-0.9-7.8l-13.1,4.2c0.2,1.2,0.3,2.4,0.3,3.6
                    c0,0.4,0,0.8-0.1,1.2L320.3,177.1z"/>
                <path class="st2" d="M303,162.4c0.9,1.4,1.7,2.8,2.3,4.4l13-4.2c-1.2-3.4-2.9-6.5-5.1-9.3L303,162.4z"/>
                <path class="st2" d="M278.3,154.2c1.6-0.5,3.3-0.9,5-1.1v-13.7c-3.7,0.2-7.2,1-10.6,2.3L278.3,154.2z"/>
                <path class="st2" d="M301.9,143.5l-5.6,12.5c1.4,0.9,2.8,1.9,4,3.1l10.1-9.1C308,147.4,305.1,145.3,301.9,143.5z"/>
                <path class="st2" d="M275.9,208.3l2.8-13.4c-1.4-0.4-2.8-1-4-1.7l-8,11.1C269.5,206.1,272.6,207.4,275.9,208.3z"/>
                <path class="st2" d="M265.3,166.5c0.6-1.5,1.4-3,2.3-4.3l-10.2-9.2c-2.2,2.8-3.9,5.9-5.1,9.3L265.3,166.5z"/>
                <path class="st2" d="M290.1,209.2l-2.8-13.4c-0.7,0.1-1.4,0.1-2.1,0.1c-0.8,0-1.5,0-2.3-0.1l-2.8,13.4c1.7,0.2,3.4,0.4,5.1,0.4
                    C286.9,209.6,288.5,209.5,290.1,209.2z"/>
                <path class="st2" d="M287.5,153.1c1.7,0.2,3.4,0.6,5,1.2l5.6-12.5c-3.3-1.3-6.8-2.1-10.5-2.3V153.1z"/>
                <path class="st2" d="M295.5,193.4c-1.3,0.7-2.6,1.3-4.1,1.7l2.8,13.4c3.3-0.9,6.4-2.2,9.3-4L295.5,193.4z"/>
                <path class="st2" d="M306,179.8c-0.4,1.5-0.9,3-1.6,4.3l11.8,6.8c1.6-3,2.8-6.3,3.5-9.7L306,179.8z"/>
                <path class="st2" d="M302.1,187.7c-0.9,1.2-2,2.3-3.1,3.2l8,11c2.7-2.1,5-4.6,7-7.4L302.1,187.7z"/>
                <path class="st2" d="M263.8,174.5c0-1.3,0.1-2.6,0.4-3.8l-13-4.2c-0.6,2.6-0.9,5.3-0.9,8.1c0,0.8,0,1.6,0.1,2.3l13.6-1.4
                    C263.8,175.1,263.8,174.8,263.8,174.5z"/>
                <path class="st2" d="M263.2,201.8l8-11c-1.1-1-2.2-2.1-3.1-3.3l-11.9,6.9C258.3,197.2,260.6,199.7,263.2,201.8z"/>
                <path class="st2" d="M266,183.9c-0.7-1.4-1.2-2.8-1.6-4.3l-13.6,1.4c0.7,3.4,1.8,6.7,3.4,9.7L266,183.9z"/>
            </g>
            <g>
                <path class="st2" d="M287.5,156.1v18.3l14.4,8.3c1.2-2.5,1.9-5.2,1.9-8.2C303.8,165,296.7,157.2,287.5,156.1z"/>
                <path class="st2" d="M285,177.8l-14.2,8.2c3.4,4.2,8.6,7,14.5,7c5.8,0,10.9-2.6,14.3-6.8L285,177.8z"/>
                <path class="st2" d="M283.2,156.1c-9.3,1-16.5,8.9-16.5,18.4c0,2.9,0.7,5.6,1.8,8l14.7-8.5V156.1z"/>
            </g>
        </g>
    </g>
    <g id="overtone-14">
        <path class="st3" d="M144.4,324.9c-22.5,0-40.8,18.2-40.8,40.8c0,22.5,18.2,40.8,40.8,40.8c22.5,0,40.8-18.2,40.8-40.8
            C185.1,343.2,166.9,324.9,144.4,324.9z M179.5,365.7c0,2.1-0.2,4.2-0.6,6.2l-13.1-3c0.2-1.1,0.2-2.2,0.2-3.3c0-0.6,0-1.2-0.1-1.8
            l13.1-3C179.4,362.4,179.5,364,179.5,365.7z M109.2,365.7c0-1.6,0.1-3.3,0.3-4.9l13.1,3c-0.1,0.6-0.1,1.2-0.1,1.9
            c0,1.1,0.1,2.2,0.2,3.2l-13.1,3C109.4,369.9,109.2,367.8,109.2,365.7z M123.6,359.3l-13.1-3c1-3.7,2.6-7.1,4.7-10.2l10.5,8.4
            C124.8,356,124.1,357.6,123.6,359.3z M124,373.4c0.6,1.6,1.4,3,2.3,4.4l-10.5,8.3c-2.1-2.9-3.8-6.2-4.9-9.8L124,373.4z
             M125.6,365.7c0-9.6,7.2-17.4,16.4-18.6v37.2C132.8,383.1,125.6,375.2,125.6,365.7z M146.7,344v-13.4c3.9,0.3,7.7,1.1,11.1,2.6
            l-5.8,12.1C150.3,344.7,148.5,344.2,146.7,344z M142,344c-1.8,0.2-3.6,0.6-5.3,1.2l-5.8-12.1c3.5-1.4,7.2-2.3,11.1-2.6V344z
             M142,387.3v13.4c-3.7-0.2-7.2-1.1-10.5-2.4l5.8-12.1C138.8,386.8,140.4,387.1,142,387.3z M146.7,387.3c1.6-0.2,3.2-0.5,4.7-1
            l5.8,12.1c-3.3,1.3-6.8,2.1-10.5,2.3V387.3z M146.7,384.3v-37.2c9.3,1.1,16.4,9,16.4,18.6C163.1,375.2,155.9,383.1,146.7,384.3z
             M163,354.5l10.5-8.4c2.1,3.1,3.7,6.5,4.7,10.2l-13.1,3C164.6,357.6,163.9,356,163,354.5z M164.7,373.4l13.1,3
            c-1.1,3.5-2.8,6.8-4.9,9.8l-10.5-8.4C163.3,376.5,164.1,375,164.7,373.4z M170.7,342.4l-10.5,8.3c-1.2-1.3-2.6-2.5-4.1-3.4
            l5.8-12.1C165.2,337.2,168.2,339.6,170.7,342.4z M126.8,335.3l5.8,12.1c-1.5,1-2.9,2.1-4.1,3.4l-10.5-8.4
            C120.5,339.6,123.5,337.2,126.8,335.3z M118.8,389.7l10.5-8.4c1.2,1.1,2.5,2.1,3.9,3l-5.8,12.1
            C124.1,394.6,121.3,392.4,118.8,389.7z M161.4,396.4l-5.8-12.1c1.4-0.8,2.7-1.8,3.9-3l10.5,8.4
            C167.4,392.4,164.6,394.6,161.4,396.4z"/>
        <g id="overtone-14-space">
            <g>
                <path class="st2" d="M163.1,365.7c0-9.6-7.2-17.4-16.4-18.6v37.2C155.9,383.1,163.1,375.2,163.1,365.7z"/>
                <path class="st2" d="M125.6,365.7c0,9.6,7.2,17.4,16.4,18.6v-37.2C132.8,348.2,125.6,356.1,125.6,365.7z"/>
            </g>
            <g>
                <path class="st2" d="M155.6,384.3l5.8,12.1c3.2-1.8,6.1-4,8.6-6.7l-10.5-8.4C158.2,382.5,157,383.5,155.6,384.3z"/>
                <path class="st2" d="M179.1,360.8l-13.1,3c0.1,0.6,0.1,1.2,0.1,1.8c0,1.1-0.1,2.2-0.2,3.3l13.1,3c0.4-2,0.6-4.1,0.6-6.2
                    C179.5,364,179.4,362.4,179.1,360.8z"/>
                <path class="st2" d="M162.4,377.8l10.5,8.4c2.1-2.9,3.8-6.2,4.9-9.8l-13.1-3C164.1,375,163.3,376.5,162.4,377.8z"/>
                <path class="st2" d="M146.7,387.3v13.4c3.7-0.2,7.2-1.1,10.5-2.3l-5.8-12.1C149.9,386.8,148.3,387.1,146.7,387.3z"/>
                <path class="st2" d="M160.2,350.8l10.5-8.3c-2.5-2.8-5.5-5.3-8.8-7.2l-5.8,12.1C157.6,348.3,159,349.5,160.2,350.8z"/>
                <path class="st2" d="M165.2,359.3l13.1-3c-1-3.7-2.6-7.1-4.7-10.2l-10.5,8.4C163.9,356,164.6,357.6,165.2,359.3z"/>
                <path class="st2" d="M157.8,333.2c-3.5-1.4-7.2-2.3-11.1-2.6V344c1.8,0.2,3.6,0.6,5.3,1.2L157.8,333.2z"/>
                <path class="st2" d="M129.3,381.4l-10.5,8.4c2.5,2.6,5.4,4.9,8.5,6.7l5.8-12.1C131.8,383.5,130.5,382.5,129.3,381.4z"/>
                <path class="st2" d="M122.6,365.7c0-0.6,0-1.2,0.1-1.9l-13.1-3c-0.2,1.6-0.3,3.2-0.3,4.9c0,2.1,0.2,4.2,0.6,6.2l13.1-3
                    C122.7,367.9,122.6,366.8,122.6,365.7z"/>
                <path class="st2" d="M124,373.4l-13.1,3c1.1,3.5,2.8,6.8,4.9,9.8l10.5-8.3C125.4,376.4,124.6,375,124,373.4z"/>
                <path class="st2" d="M136.8,345.3c1.7-0.6,3.4-1,5.3-1.2v-13.4c-3.9,0.3-7.6,1.1-11.1,2.6L136.8,345.3z"/>
                <path class="st2" d="M125.7,354.5l-10.5-8.4c-2.1,3.1-3.7,6.5-4.7,10.2l13.1,3C124.1,357.6,124.8,356,125.7,354.5z"/>
                <path class="st2" d="M131.5,398.4c3.3,1.3,6.8,2.1,10.5,2.4v-13.4c-1.6-0.2-3.2-0.5-4.7-1L131.5,398.4z"/>
                <path class="st2" d="M132.6,347.4l-5.8-12.1c-3.3,1.9-6.3,4.3-8.8,7.2l10.5,8.4C129.7,349.5,131.1,348.3,132.6,347.4z"/>
            </g>
        </g>
    </g>
    <g id="overtone-13">
        <path class="st3" d="M147.1,571.9c-22.5,0-40.8,18.2-40.8,40.8s18.2,40.8,40.8,40.8c22.5,0,40.8-18.2,40.8-40.8
            S169.6,571.9,147.1,571.9z M182.2,612.6c0,3.6-0.6,7.1-1.6,10.4l-23.5-8.9l25.1-3C182.2,611.6,182.2,612.1,182.2,612.6z M112,612.6
            c0-0.5,0-1,0-1.5l25.1,3l-23.5,8.9C112.5,619.8,112,616.3,112,612.6z M149.5,577.6c4.2,0.3,8.2,1.3,11.9,2.9l-11.9,22.6V577.6z
             M144.7,603.1l-11.8-22.6c3.7-1.6,7.7-2.7,11.8-2.9V603.1z M112.5,606.3c0.7-4.1,2.2-7.9,4.2-11.4l20.9,14.4L112.5,606.3z
             M156.5,609.4l20.9-14.4c2,3.5,3.5,7.3,4.2,11.4L156.5,609.4z M174.7,591l-20.9,14.4l11.9-22.6C169.1,585,172.2,587.7,174.7,591z
             M128.5,582.8l11.8,22.6l-20.9-14.4C122,587.7,125.1,585,128.5,582.8z M115.3,627.6l23.5-8.9l-16.6,18.7
            C119.3,634.6,117,631.2,115.3,627.6z M142.4,621.9l-6,24.2c-3.9-1.2-7.4-3.1-10.6-5.5L142.4,621.9z M141.1,647.2l6-24.2l6,24.2
            c-1.9,0.3-3.9,0.5-6,0.5C145,647.8,143,647.6,141.1,647.2z M151.8,621.9l16.6,18.7c-3.2,2.4-6.7,4.3-10.6,5.5L151.8,621.9z
             M172,637.4l-16.6-18.7l23.5,8.9C177.1,631.3,174.8,634.6,172,637.4z"/>
        <g id="overtone-13-space">
            <path class="st2" d="M112,612.6c0,3.6,0.6,7.1,1.6,10.4l23.5-8.9l-25.1-3C112,611.6,112,612.1,112,612.6z"/>
            <path class="st2" d="M112.5,606.3l25.1,3.1l-20.9-14.4C114.7,598.4,113.3,602.2,112.5,606.3z"/>
            <path class="st2" d="M142.4,621.9l-16.6,18.7c3.2,2.4,6.7,4.3,10.6,5.5L142.4,621.9z"/>
            <path class="st2" d="M138.8,618.7l-23.5,8.9c1.7,3.7,4.1,7,6.9,9.8L138.8,618.7z"/>
            <path class="st2" d="M144.7,577.6c-4.2,0.3-8.2,1.3-11.8,2.9l11.8,22.6V577.6z"/>
            <path class="st2" d="M119.5,590.9l20.9,14.4l-11.8-22.6C125.1,585,122,587.7,119.5,590.9z"/>
            <path class="st2" d="M149.5,577.6v25.5l11.9-22.6C157.7,578.9,153.7,577.9,149.5,577.6z"/>
            <path class="st2" d="M182.2,612.6c0-0.5,0-1,0-1.5l-25.1,3l23.5,8.9C181.7,619.8,182.2,616.3,182.2,612.6z"/>
            <path class="st2" d="M168.3,640.6l-16.6-18.7l6,24.2C161.6,644.9,165.2,643,168.3,640.6z"/>
            <path class="st2" d="M155.4,618.7l16.6,18.7c2.8-2.8,5.2-6.2,6.9-9.8L155.4,618.7z"/>
            <path class="st2" d="M165.6,582.8l-11.9,22.6l20.9-14.4C172.2,587.7,169.1,585,165.6,582.8z"/>
            <path class="st2" d="M153,647.2l-6-24.2l-6,24.2c1.9,0.3,3.9,0.5,6,0.5C149.1,647.8,151.1,647.6,153,647.2z"/>
            <path class="st2" d="M177.4,594.9l-20.9,14.4l25.1-3C180.9,602.2,179.4,598.4,177.4,594.9z"/>
        </g>
    </g>
    <g id="overtone-12">
        <path class="st3" d="M319.2,768.2c-22.5,0-40.8,18.2-40.8,40.8c0,22.5,18.2,40.8,40.8,40.8c22.5,0,40.8-18.2,40.8-40.8
            C360,786.5,341.8,768.2,319.2,768.2z M342.6,806.7h-8.8c-1-6.4-6.2-11.5-12.6-12.3v-4.9v-3.9C332.5,786.5,341.5,795.4,342.6,806.7z
             M316.3,821.3c-5.6-1.3-9.8-6.3-9.8-12.4s4.2-11,9.8-12.4V821.3z M321.2,796.4c6.1,0.9,10.8,6.2,10.8,12.6s-4.7,11.6-10.8,12.6
            V796.4z M321.2,781.8v-7.9c4.7,0.3,9.1,1.4,13.2,3.3l-4,6.9C327.5,782.8,324.4,782,321.2,781.8z M316.3,781.9
            c-3.2,0.3-6.2,1.2-9,2.6l-3.9-6.8c3.9-2,8.3-3.3,13-3.7V781.9z M316.3,785.7v3.9v4.9c-6,1.2-10.7,6.1-11.6,12.2h-8.8
            C296.9,795.7,305.5,787,316.3,785.7z M292.1,806.7h-7.9c0.3-4.6,1.5-8.9,3.3-12.8l6.9,4C293.2,800.6,292.4,803.5,292.1,806.7z
             M292.1,811.5c0.3,3.1,1.1,6.1,2.4,8.8l-6.8,4c-1.9-3.9-3.1-8.2-3.4-12.8H292.1z M295.9,811.5h8.8c1,6,5.7,10.7,11.6,11.9v4.7v4.1
            C305.6,830.9,297.1,822.3,295.9,811.5z M316.3,836.1v7.9c-4.6-0.4-8.9-1.6-12.8-3.6l3.9-6.8C310.2,834.9,313.2,835.7,316.3,836.1z
             M321.2,836.1c3.2-0.2,6.3-1,9.1-2.3l4,6.9c-4,1.9-8.4,3-13.1,3.3V836.1z M321.2,832.4v-4.1v-4.7c6.4-0.8,11.5-5.8,12.6-12.1h8.8
            C341.4,822.7,332.4,831.5,321.2,832.4z M346.4,811.5h7.9c-0.3,4.7-1.6,9.2-3.6,13.2l-6.8-3.9C345.2,817.9,346.1,814.8,346.4,811.5z
             M346.4,806.7c-0.3-3.3-1.1-6.4-2.5-9.3l6.8-3.9c2,4,3.2,8.5,3.5,13.3H346.4z M348.3,789.2l-6.8,4c-1.9-2.6-4.2-4.9-6.9-6.7
            l3.9-6.8C342.4,782.2,345.7,785.4,348.3,789.2z M299.2,780.1l4,6.8c-2.5,1.8-4.7,4.1-6.4,6.6l-6.8-3.9
            C292.4,785.9,295.6,782.7,299.2,780.1z M290,828.5l6.8-4c1.8,2.5,3.9,4.7,6.4,6.5l-4,6.8C295.7,835.4,292.5,832.2,290,828.5z
             M338.4,838.4l-3.9-6.8c2.6-1.8,5-4,6.8-6.6l6.8,4C345.6,832.6,342.3,835.9,338.4,838.4z"/>
        <g id="overtone-12-space">
            <g>
                <path class="st2" d="M341.3,824.9c-1.9,2.6-4.2,4.8-6.8,6.6l3.9,6.8c3.8-2.5,7.1-5.7,9.7-9.5L341.3,824.9z"/>
                <path class="st2" d="M338.6,779.6l-3.9,6.8c2.7,1.8,5,4.1,6.9,6.7l6.8-4C345.7,785.4,342.4,782.2,338.6,779.6z"/>
                <path class="st2" d="M330.3,833.9c-2.8,1.2-5.9,2-9.1,2.3v7.9c4.7-0.3,9.1-1.4,13.1-3.3L330.3,833.9z"/>
                <path class="st2" d="M354.3,811.5h-7.9c-0.3,3.3-1.2,6.4-2.6,9.3l6.8,3.9C352.7,820.7,353.9,816.2,354.3,811.5z"/>
                <path class="st2" d="M350.7,793.4l-6.8,3.9c1.4,2.9,2.2,6,2.5,9.3h7.9C354,801.9,352.7,797.5,350.7,793.4z"/>
                <path class="st2" d="M321.2,773.9v7.9c3.3,0.2,6.4,1,9.2,2.3l4-6.9C330.3,775.3,325.9,774.2,321.2,773.9z"/>
                <path class="st2" d="M299.3,837.9l4-6.8c-2.5-1.8-4.7-4-6.4-6.5l-6.8,4C292.5,832.2,295.7,835.4,299.3,837.9z"/>
                <path class="st2" d="M316.3,774c-4.6,0.4-9,1.7-13,3.7l3.9,6.8c2.8-1.4,5.8-2.2,9-2.6V774z"/>
                <path class="st2" d="M316.3,844v-7.9c-3.2-0.3-6.2-1.2-8.9-2.5l-3.9,6.8C307.4,842.3,311.7,843.6,316.3,844z"/>
                <path class="st2" d="M294.5,820.3c-1.2-2.7-2.1-5.7-2.4-8.8h-7.9c0.3,4.5,1.5,8.9,3.4,12.8L294.5,820.3z"/>
                <path class="st2" d="M284.2,806.7h7.9c0.3-3.1,1.1-6.1,2.3-8.9l-6.9-4C285.7,797.8,284.5,802.1,284.2,806.7z"/>
                <path class="st2" d="M303.2,787l-4-6.8c-3.7,2.6-6.8,5.8-9.3,9.5l6.8,3.9C298.5,791,300.7,788.8,303.2,787z"/>
            </g>
            <g>
                <path class="st2" d="M321.2,828.3v4.1c11.2-0.9,20.2-9.7,21.4-20.9h-8.8c-1.1,6.3-6.2,11.2-12.6,12.1V828.3z"/>
                <path class="st2" d="M321.2,785.6v3.9v4.9c6.5,0.8,11.6,5.9,12.6,12.3h8.8C341.5,795.4,332.5,786.5,321.2,785.6z"/>
                <path class="st2" d="M316.3,789.6v-3.9c-10.8,1.3-19.4,10.1-20.5,21h8.8c1-6.1,5.6-11,11.6-12.2V789.6z"/>
                <path class="st2" d="M316.3,828.2v-4.7c-5.9-1.2-10.6-5.9-11.6-11.9h-8.8c1.2,10.8,9.7,19.4,20.4,20.8V828.2z"/>
            </g>
            <g>
                <path class="st2" d="M321.2,796.4v25.1c6.1-0.9,10.8-6.2,10.8-12.6S327.3,797.3,321.2,796.4z"/>
                <path class="st2" d="M316.3,796.6c-5.6,1.3-9.8,6.3-9.8,12.4s4.2,11,9.8,12.4V796.6z"/>
            </g>
        </g>
    </g>
    <g id="overtone-11">
        <path class="st3" d="M587.5,795.1c-22.5,0-40.8,18.2-40.8,40.8c0,22.5,18.2,40.8,40.8,40.8s40.8-18.2,40.8-40.8
            C628.2,813.4,610,795.1,587.5,795.1z M622.5,839.2l-26.7-4.1l24.8-11.1c1.3,3.7,2,7.7,2,11.8C622.6,837,622.6,838.1,622.5,839.2z
             M589.8,800.8c5.5,0.4,10.6,2,15.1,4.6l-15.1,23V800.8z M585.2,828.3l-14.8-23.1c4.4-2.5,9.5-4,14.8-4.4V828.3z M595,839.8
            l26.7,4.1c-1.2,5.1-3.4,9.7-6.5,13.7L595,839.8z M612.1,860.9c-3.6,3.5-7.9,6.3-12.8,8l-7.4-25.7L612.1,860.9z M618.7,819.8
            l-24.9,11.1l15-22.9C613,811.1,616.3,815.2,618.7,819.8z M566.5,807.7l14.8,23.1l-24.8-11.4C558.9,814.8,562.3,810.8,566.5,807.7z
             M554.6,823.7l24.8,11.4l-26.8,3.8c-0.1-1-0.1-2-0.1-3C552.4,831.6,553.1,827.5,554.6,823.7z M580,839.7l-20.4,17.5
            c-3.1-4-5.3-8.7-6.4-13.7L580,839.7z M562.7,860.7l20.3-17.5l-7.7,25.6C570.5,867.1,566.2,864.3,562.7,860.7z M579.8,870.1
            l7.7-25.6l7.4,25.7c-2.4,0.5-4.8,0.8-7.3,0.8C584.9,871,582.3,870.7,579.8,870.1z"/>
        <g id="overtone-11-space">
            <path class="st2" d="M552.4,835.9c0,1,0.1,2,0.1,3l26.8-3.8l-24.8-11.4C553.1,827.5,552.4,831.6,552.4,835.9z"/>
            <path class="st2" d="M580,839.7l-26.8,3.8c1.1,5.1,3.3,9.7,6.4,13.7L580,839.7z"/>
            <path class="st2" d="M585.2,800.8c-5.4,0.3-10.4,1.9-14.8,4.4l14.8,23.1V800.8z"/>
            <path class="st2" d="M556.5,819.4l24.8,11.4l-14.8-23.1C562.3,810.8,558.9,814.8,556.5,819.4z"/>
            <path class="st2" d="M583,843.2l-20.3,17.5c3.6,3.6,7.9,6.4,12.7,8.1L583,843.2z"/>
            <path class="st2" d="M621.7,843.8l-26.7-4.1l20.2,17.7C618.3,853.5,620.5,848.9,621.7,843.8z"/>
            <path class="st2" d="M622.6,835.9c0-4.1-0.7-8.1-2-11.8l-24.8,11.1l26.7,4.1C622.6,838.1,622.6,837,622.6,835.9z"/>
            <path class="st2" d="M599.3,868.9c4.8-1.7,9.2-4.5,12.8-8L592,843.3L599.3,868.9z"/>
            <path class="st2" d="M594.8,870.2l-7.4-25.7l-7.7,25.6c2.5,0.6,5,0.9,7.7,0.9C590,871,592.5,870.7,594.8,870.2z"/>
            <path class="st2" d="M618.7,819.8c-2.4-4.6-5.8-8.6-9.9-11.8l-15,22.9L618.7,819.8z"/>
            <path class="st2" d="M589.8,800.8v27.6l15.1-23C600.5,802.8,595.3,801.2,589.8,800.8z"/>
        </g>
    </g>
    <g id="overtone-10">
        <path class="st3" d="M800.8,606.2c-22.5,0-40.8,18.2-40.8,40.8c0,22.5,18.2,40.8,40.8,40.8s40.8-18.2,40.8-40.8
            C841.6,624.4,823.3,606.2,800.8,606.2z M835.9,646.9c0,3.3-0.5,6.5-1.3,9.5l-12.7-4.3c0.4-1.7,0.6-3.4,0.6-5.2
            c0-1.3-0.1-2.7-0.4-3.9l12.8-4C835.6,641.6,835.9,644.2,835.9,646.9z M833.7,634.6l-12.8,4c-1.2-2.9-3-5.5-5.3-7.6l8.1-10.7
            C828.1,624.1,831.6,629,833.7,634.6z M802.6,625.2v-13.4c6.4,0.3,12.3,2.3,17.3,5.6l-8.1,10.7C809.1,626.5,805.9,625.5,802.6,625.2
            z M797.9,625.4c-3.1,0.4-5.9,1.4-8.4,3l-7.8-10.9c4.7-3.1,10.3-5.1,16.2-5.5V625.4z M797.9,629.2v35.5c-8.6-1.4-15.1-8.8-15.1-17.7
            S789.4,630.6,797.9,629.2z M797.9,668.5v13.4c-6.1-0.5-11.8-2.6-16.6-5.8l8.1-10.7C792,667,794.8,668.1,797.9,668.5z M802.6,668.6
            c3-0.2,5.8-1.1,8.4-2.4l7.9,10.9c-4.8,2.9-10.3,4.6-16.2,4.9V668.6z M802.6,664.8V629c9.1,0.9,16.2,8.6,16.2,17.9
            S811.7,663.9,802.6,664.8z M777.9,620.3l7.9,10.9c-2.1,2-3.8,4.4-5,7.1l-12.7-4.3C770.2,628.7,773.6,624,777.9,620.3z M765.7,646.9
            c0-2.9,0.4-5.7,1-8.4l12.7,4.3c-0.3,1.3-0.4,2.7-0.4,4.1c0,1.5,0.2,2.9,0.4,4.3l-12.8,4C766,652.6,765.7,649.8,765.7,646.9z
             M768.1,659.7l12.8-4c1.2,2.6,2.8,4.9,4.8,6.9l-8.1,10.7C773.4,669.6,770.1,665,768.1,659.7z M822.6,674.4l-7.8-10.9
            c2.3-1.9,4.2-4.3,5.5-7l12.8,4.3C830.8,666.2,827.2,670.8,822.6,674.4z"/>
        <g id="overtone-10-space">
            <g>
                <path class="st2" d="M833.7,634.6c-2.1-5.6-5.6-10.5-10-14.3l-8.1,10.7c2.3,2.1,4.1,4.7,5.3,7.6L833.7,634.6z"/>
                <path class="st2" d="M820.3,656.5c-1.3,2.7-3.2,5.1-5.5,7l7.8,10.9c4.5-3.6,8.1-8.3,10.5-13.6L820.3,656.5z"/>
                <path class="st2" d="M810.9,666.2c-2.5,1.3-5.4,2.2-8.4,2.4V682c5.9-0.3,11.4-2,16.2-4.9L810.9,666.2z"/>
                <path class="st2" d="M835.9,646.9c0-2.7-0.3-5.4-0.9-7.9l-12.8,4c0.2,1.3,0.4,2.6,0.4,3.9c0,1.8-0.2,3.5-0.6,5.2l12.7,4.3
                    C835.5,653.4,835.9,650.2,835.9,646.9z"/>
                <path class="st2" d="M802.6,611.8v13.4c3.4,0.3,6.5,1.3,9.2,2.9l8.1-10.7C814.9,614.2,809,612.2,802.6,611.8z"/>
                <path class="st2" d="M797.9,668.5c-3.1-0.4-6-1.5-8.5-3l-8.1,10.7c4.8,3.2,10.5,5.3,16.6,5.8V668.5z"/>
                <path class="st2" d="M765.7,646.9c0,2.9,0.3,5.6,1,8.3l12.8-4c-0.3-1.4-0.4-2.9-0.4-4.3c0-1.4,0.1-2.8,0.4-4.1l-12.7-4.3
                    C766.1,641.2,765.7,644,765.7,646.9z"/>
                <path class="st2" d="M797.9,611.9c-6,0.5-11.5,2.5-16.2,5.5l7.8,10.9c2.5-1.5,5.4-2.6,8.4-3V611.9z"/>
                <path class="st2" d="M785.8,631.2l-7.9-10.9c-4.3,3.7-7.7,8.4-9.8,13.8l12.7,4.3C782,635.6,783.7,633.2,785.8,631.2z"/>
                <path class="st2" d="M777.6,673.3l8.1-10.7c-2-1.9-3.7-4.3-4.8-6.9l-12.8,4C770.1,665,773.4,669.6,777.6,673.3z"/>
            </g>
            <g>
                <path class="st2" d="M802.6,664.8c9.1-0.9,16.2-8.6,16.2-17.9s-7.1-17-16.2-17.9V664.8z"/>
                <path class="st2" d="M797.9,629.2c-8.6,1.4-15.1,8.8-15.1,17.7s6.5,16.4,15.1,17.7V629.2z"/>
            </g>
        </g>
    </g>
    <g id="overtone-9">
        <path class="st3" d="M778,305.8c-22.5,0-40.8,18.2-40.8,40.8c0,22.5,18.2,40.8,40.8,40.8s40.8-18.2,40.8-40.8
            C818.7,324,800.5,305.8,778,305.8z M812.4,339.3l-13.6,2.4c-0.9-3.9-2.8-7.3-5.5-10.1l8.9-10.6
            C807.2,325.9,810.9,332.2,812.4,339.3z M778,365c-6,0-11.3-2.9-14.6-7.3l14.6-8.1l14.6,8.1C789.3,362.1,784,365,778,365z
             M759.6,346.5c0-9.3,7-17,16-18.2v17.1l-14.6,8.1C760.1,351.3,759.6,349,759.6,346.5z M790.6,329.3c-2.9-2.2-6.4-3.6-10.2-4v-13.8
            c7.2,0.5,13.8,3.1,19.1,7.3L790.6,329.3z M775.5,325.3c-3.8,0.4-7.2,1.8-10.1,4l-8.9-10.6c5.3-4.1,11.9-6.7,19-7.2V325.3z
             M780.4,345.3v-17.1c9,1.2,16,8.9,16,18.3c0,2.5-0.5,4.8-1.4,7L780.4,345.3z M753.9,321l8.9,10.6c-2.7,2.7-4.6,6.1-5.5,10
            l-13.6-2.4C745.2,332.1,748.8,325.8,753.9,321z M743.1,342.6l13.6,2.4c0,0.5-0.1,1-0.1,1.6c0,3,0.6,5.8,1.7,8.4l-12.1,6.7
            c-2.2-4.6-3.4-9.7-3.4-15.1C742.9,345.2,742.9,343.9,743.1,342.6z M748.6,365.8l12.1-6.7c2.1,2.9,5,5.3,8.3,6.8l-4.7,13
            C757.9,376.2,752.4,371.6,748.6,365.8z M767.6,380.1l4.7-13c1.8,0.5,3.7,0.8,5.7,0.8c1.8,0,3.6-0.3,5.3-0.7l4.7,13
            c-3.2,0.9-6.5,1.4-10,1.4C774.4,381.7,770.9,381.1,767.6,380.1z M791.3,379.1l-4.7-12.9c3.5-1.5,6.5-4,8.7-7l12.1,6.7
            C803.4,371.7,797.9,376.4,791.3,379.1z M809.7,361.6l-12.1-6.7c1.1-2.6,1.7-5.4,1.7-8.4c0-0.5,0-0.9-0.1-1.4l13.6-2.4
            c0.1,1.2,0.2,2.5,0.2,3.8C813.1,351.9,811.9,357.1,809.7,361.6z"/>
        <g id="overtone-9-space">
            <g>
                <path class="st2" d="M765.4,329.3c2.9-2.1,6.4-3.5,10.1-4v-13.8c-7.1,0.5-13.7,3.1-19,7.2L765.4,329.3z"/>
                <path class="st2" d="M780.4,325.3c3.8,0.4,7.3,1.9,10.2,4l8.9-10.6c-5.4-4.1-11.9-6.8-19.1-7.3V325.3z"/>
                <path class="st2" d="M812.4,339.3c-1.5-7.1-5.1-13.4-10.2-18.3l-8.9,10.6c2.7,2.7,4.6,6.2,5.5,10.1L812.4,339.3z"/>
                <path class="st2" d="M788,380.2l-4.7-13c-1.7,0.4-3.4,0.7-5.3,0.7c-2,0-3.9-0.3-5.7-0.8l-4.7,13c3.3,1,6.8,1.6,10.4,1.6
                    C781.5,381.7,784.8,381.2,788,380.2z"/>
                <path class="st2" d="M795.2,359.1c-2.2,3-5.2,5.5-8.7,7l4.7,12.9c6.6-2.7,12.2-7.3,16-13.2L795.2,359.1z"/>
                <path class="st2" d="M813.1,346.5c0-1.3-0.1-2.5-0.2-3.8l-13.6,2.4c0,0.5,0.1,0.9,0.1,1.4c0,3-0.6,5.8-1.7,8.4l12.1,6.7
                    C811.9,357.1,813.1,351.9,813.1,346.5z"/>
                <path class="st2" d="M742.9,346.5c0,5.4,1.2,10.5,3.4,15.1l12.1-6.7c-1.1-2.6-1.7-5.4-1.7-8.4c0-0.5,0-1,0.1-1.6l-13.6-2.4
                    C742.9,343.9,742.9,345.2,742.9,346.5z"/>
                <path class="st2" d="M764.3,378.9l4.7-13c-3.3-1.5-6.2-3.9-8.3-6.8l-12.1,6.7C752.4,371.6,757.9,376.2,764.3,378.9z"/>
                <path class="st2" d="M743.6,339.1l13.6,2.4c0.9-3.8,2.9-7.2,5.5-10l-8.9-10.6C748.8,325.8,745.2,332.1,743.6,339.1z"/>
            </g>
            <g>
                <path class="st2" d="M763.3,357.7c3.4,4.4,8.7,7.3,14.6,7.3s11.3-2.9,14.6-7.3l-14.6-8.1L763.3,357.7z"/>
                <path class="st2" d="M796.4,346.5c0-9.4-7-17.1-16-18.3v17.1l14.7,8.2C795.9,351.3,796.4,349,796.4,346.5z"/>
                <path class="st2" d="M759.6,346.5c0,2.5,0.5,4.8,1.4,7l14.6-8.1v-17.1C766.5,329.5,759.6,337.2,759.6,346.5z"/>
            </g>
        </g>
    </g>
    <g id="overtone-8">
        <path class="st3" d="M500.3,158.5c-22.5,0-40.8,18.2-40.8,40.8c0,22.5,18.2,40.8,40.8,40.8c22.5,0,40.8-18.2,40.8-40.8
            C541.1,176.8,522.8,158.5,500.3,158.5z M503.2,223.3v-9.4c6-1.2,10.7-5.9,11.8-12h9.4C523.1,213.1,514.3,222,503.2,223.3z
             M487.5,198.8c0.2-6.3,4.9-11.4,11-12.2V212c-6.1-0.9-10.8-6-11-12.2V198.8z M503.2,186.8c5.7,1.3,10,6.4,10,12.5
            s-4.3,11.2-10,12.5V186.8z M515.1,197.3c-0.9-6.4-5.7-11.4-11.9-12.6v-9.4c11.4,1.3,20.3,10.5,21.3,22H515.1z M518.9,178.2
            c-4.3-3.8-9.7-6.3-15.7-6.9v-7.1c8,0.6,15.2,3.9,20.7,9L518.9,178.2z M498.5,171.3c-6.2,0.4-11.8,2.8-16.2,6.5l-5-5
            c5.7-5,13.1-8.2,21.2-8.6V171.3z M498.5,175.2v9.3c-6.7,0.8-12,6.1-12.9,12.8h-9.3C477.2,185.5,486.6,176,498.5,175.2z M485.7,202
            c1.2,6.4,6.3,11.3,12.8,12.1v9.3c-11.6-0.9-21-9.9-22.2-21.5H485.7z M482.6,221.1c4.4,3.6,9.9,5.8,15.8,6.2v7.1
            c-7.9-0.4-15.2-3.5-20.8-8.3L482.6,221.1z M503.2,227.2c5.8-0.6,11.2-3,15.4-6.6l5,5c-5.5,4.9-12.6,8-20.4,8.7V227.2z M521.8,217.3
            c3.6-4.2,5.9-9.6,6.4-15.4h7.1c-0.6,7.8-3.7,14.8-8.5,20.4L521.8,217.3z M528.3,197.3c-0.4-5.9-2.7-11.3-6.2-15.7l5-5
            c4.8,5.6,7.8,12.8,8.3,20.7H528.3z M474,176.1l5,5c-3.8,4.4-6.2,10.1-6.6,16.2h-7.1C465.7,189.2,468.9,181.8,474,176.1z M465.3,202
            h7.1c0.6,6.1,3.1,11.6,6.9,15.9l-5,5C469.2,217.2,465.9,210,465.3,202z"/>
        <g id="overtone-8-space">
            <g>
                <path class="st2" d="M527.1,176.6l-5,5c3.5,4.3,5.8,9.8,6.2,15.7h7.1C534.9,189.4,531.9,182.3,527.1,176.6z"/>
                <path class="st2" d="M535.3,202h-7.1c-0.5,5.8-2.9,11.1-6.4,15.4l5,5C531.6,216.8,534.7,209.7,535.3,202z"/>
                <path class="st2" d="M503.2,234.3c7.8-0.6,14.9-3.8,20.4-8.7l-5-5c-4.2,3.6-9.5,6-15.4,6.6V234.3z"/>
                <path class="st2" d="M523.9,173.3c-5.6-5.1-12.8-8.3-20.7-9v7.1c6,0.6,11.5,3.1,15.7,6.9L523.9,173.3z"/>
                <path class="st2" d="M465.3,197.3h7.1c0.4-6.2,2.9-11.8,6.6-16.2l-5-5C468.9,181.8,465.7,189.2,465.3,197.3z"/>
                <path class="st2" d="M479.3,217.9c-3.8-4.3-6.3-9.8-6.9-15.9h-7.1c0.6,8,3.9,15.3,9,20.9L479.3,217.9z"/>
                <path class="st2" d="M482.3,177.8c4.4-3.7,10.1-6.1,16.2-6.5v-7.1c-8.1,0.4-15.5,3.6-21.2,8.6L482.3,177.8z"/>
                <path class="st2" d="M477.6,226.1c5.7,4.8,12.9,7.9,20.8,8.3v-7.1c-6-0.4-11.5-2.6-15.8-6.2L477.6,226.1z"/>
            </g>
            <g>
                <path class="st2" d="M503.2,223.3c11.2-1.3,20-10.2,21.2-21.4H515c-1.1,6-5.8,10.8-11.8,12V223.3z"/>
                <path class="st2" d="M503.2,184.6c6.2,1.2,11.1,6.3,11.9,12.6h9.3c-0.9-11.5-9.9-20.7-21.3-22V184.6z"/>
                <path class="st2" d="M498.5,214.1c-6.5-0.8-11.7-5.8-12.8-12.1h-9.4c1.3,11.5,10.6,20.6,22.2,21.5V214.1z"/>
                <path class="st2" d="M498.5,175.2c-11.8,0.9-21.3,10.3-22.3,22.1h9.3c0.9-6.7,6.2-12,12.9-12.8V175.2z"/>
            </g>
            <g>
                <path class="st2" d="M503.2,211.8c5.7-1.3,10-6.4,10-12.5s-4.3-11.2-10-12.5V211.8z"/>
                <path class="st2" d="M498.5,186.6c-6.1,0.9-10.8,6-11,12.2v0.9c0.2,6.3,4.9,11.4,11,12.2V186.6z"/>
            </g>
        </g>
    </g>
    <g id="overtone-7">
        <path class="st3" d="M238.6,359.9c-22.5,0-40.8,18.2-40.8,40.8c0,22.5,18.2,40.7,40.8,40.7c22.5,0,40.8-18.2,40.8-40.7
            C279.4,378.2,261.1,359.9,238.6,359.9z M273.2,406.6l-29.9-6.9l24.1-19.2c4,5.7,6.3,12.6,6.3,20.1
            C273.7,402.7,273.5,404.7,273.2,406.6z M264.5,377l-24.1,19.2v-30.6C249.9,366.1,258.5,370.4,264.5,377z M235.8,365.7v30.6
            l-23.5-18.8C218.1,370.8,226.4,366.4,235.8,365.7z M209.4,381.1l23.5,18.7l-28.9,6.6c-0.3-1.9-0.5-3.8-0.5-5.8
            C203.5,393.4,205.7,386.7,209.4,381.1z M205,411l29-6.6l-12.9,26.7C213.5,426.7,207.7,419.6,205,411z M225.3,433.2l12.9-26.8
            l13,27.1c-3.9,1.5-8.2,2.3-12.6,2.3C233.9,435.8,229.4,434.9,225.3,433.2z M255.4,431.5l-13.1-27.2l29.8,6.8
            C269.4,419.9,263.4,427.2,255.4,431.5z"/>
        <g id="overtone-7-space">
            <path class="st2" d="M221.1,431.1l12.9-26.7l-29,6.6C207.7,419.6,213.5,426.7,221.1,431.1z"/>
            <path class="st2" d="M251.2,433.5l-13-27.1l-12.9,26.8c4.1,1.7,8.6,2.6,13.3,2.6C243.1,435.8,247.3,435,251.2,433.5z"/>
            <path class="st2" d="M203.5,400.7c0,2,0.2,3.9,0.5,5.8l28.9-6.6l-23.5-18.7C205.7,386.7,203.5,393.4,203.5,400.7z"/>
            <path class="st2" d="M235.8,365.7c-9.4,0.8-17.7,5.2-23.5,11.8l23.5,18.8V365.7z"/>
            <path class="st2" d="M273.7,400.7c0-7.5-2.3-14.4-6.3-20.1l-24.1,19.2l29.9,6.9C273.5,404.7,273.7,402.7,273.7,400.7z"/>
            <path class="st2" d="M240.4,365.6v30.6l24.1-19.2C258.5,370.4,249.9,366.1,240.4,365.6z"/>
            <path class="st2" d="M242.3,404.3l13.1,27.2c7.9-4.3,14-11.6,16.7-20.4L242.3,404.3z"/>
        </g>
    </g>
    <g id="overtone-6">
        <path class="st3" d="M369.3,682.6c-22.5,0-40.8,18.2-40.8,40.8c0,22.5,18.2,40.8,40.8,40.8c22.5,0,40.8-18.2,40.8-40.8
            C410.1,700.8,391.8,682.6,369.3,682.6z M404.4,723.3c0,5.6-1.3,10.8-3.6,15.5l-11.9-6.9c1.2-2.6,1.8-5.5,1.8-8.6
            c0-3-0.6-5.9-1.8-8.6l11.9-6.9C403.1,712.5,404.4,717.8,404.4,723.3z M334.2,723.3c0-5.6,1.3-10.8,3.6-15.5l11.9,6.9
            c-1.2,2.6-1.8,5.6-1.8,8.6c0,3,0.6,5.8,1.7,8.4l-11.9,6.9C335.4,734,334.2,728.8,334.2,723.3z M350.9,723.3c0-9.3,6.9-17,15.9-18.3
            v36.5C357.8,740.3,350.9,732.7,350.9,723.3z M371.6,705c9.1,1.1,16.2,8.9,16.2,18.3c0,9.4-7.1,17.2-16.2,18.3V705z M398.4,703.7
            l-11.9,6.9c-3.5-4.7-8.8-7.9-14.9-8.6v-13.7C382.8,689,392.5,694.9,398.4,703.7z M366.7,688.3v13.8c-5.9,0.7-11.1,3.9-14.5,8.4
            l-11.9-6.9C346.1,695,355.7,689.1,366.7,688.3z M340.1,742.8l11.9-6.9c3.4,4.7,8.7,8,14.7,8.7v13.8
            C355.6,757.5,345.9,751.6,340.1,742.8z M371.6,758.4v-13.7c6.1-0.6,11.4-3.9,14.9-8.5l11.9,6.9
            C392.5,751.7,382.7,757.7,371.6,758.4z"/>
        <g id="overtone-6-space">
            <g>
                <path class="st2" d="M371.6,705v36.6c9.1-1.1,16.2-8.9,16.2-18.3C387.8,713.9,380.7,706.1,371.6,705z"/>
                <path class="st2" d="M366.7,705.1c-9,1.3-15.9,8.9-15.9,18.3c0,9.3,6.9,17,15.9,18.3V705.1z"/>
            </g>
            <g>
                <path class="st2" d="M371.6,688.3V702c6.1,0.6,11.5,3.9,14.9,8.6l11.9-6.9C392.5,694.9,382.8,689,371.6,688.3z"/>
                <path class="st2" d="M404.4,723.3c0-5.5-1.3-10.8-3.6-15.5l-11.9,6.9c1.1,2.6,1.8,5.5,1.8,8.6c0,3.1-0.7,6-1.8,8.6l11.9,6.9
                    C403.1,734.1,404.4,728.9,404.4,723.3z"/>
                <path class="st2" d="M386.5,736.1c-3.5,4.7-8.8,7.9-14.9,8.5v13.7c11.2-0.7,20.9-6.6,26.9-15.4L386.5,736.1z"/>
                <path class="st2" d="M337.8,707.8c-2.3,4.7-3.6,10-3.6,15.5c0,5.5,1.2,10.6,3.5,15.3l11.9-6.9c-1.1-2.6-1.7-5.4-1.7-8.4
                    c0-3.1,0.7-6,1.8-8.6L337.8,707.8z"/>
                <path class="st2" d="M366.7,688.3c-11,0.8-20.6,6.7-26.5,15.3l11.9,6.9c3.4-4.6,8.6-7.7,14.5-8.4V688.3z"/>
                <path class="st2" d="M366.7,758.4v-13.8c-6.1-0.7-11.3-4-14.7-8.7l-11.9,6.9C345.9,751.6,355.6,757.5,366.7,758.4z"/>
            </g>
        </g>
    </g>
    <g id="overtone-5">
        <path class="st3" d="M708.8,561.5c-22.5,0-40.8,18.2-40.8,40.8s18.2,40.8,40.8,40.8s40.8-18.2,40.8-40.8S731.3,561.5,708.8,561.5z
             M741.3,589l-30.2,9.8v-31.6C724.8,568.1,736.4,576.8,741.3,589z M706.5,567.2v31.7l-30.2-9.8C681.2,576.9,692.8,568.1,706.5,567.2
            z M673.7,602.3c0-3,0.4-5.9,1.1-8.7l30.2,9.8l-18.7,25.8C678.6,622.7,673.7,613,673.7,602.3z M690,631.9l18.8-25.8l18.8,25.9
            c-5.4,3.4-11.8,5.4-18.7,5.4C701.9,637.4,695.4,635.4,690,631.9z M731.3,629.2l-18.9-25.9l30.3-9.9c0.7,2.8,1.1,5.8,1.1,8.8
            C743.9,613.1,739,622.8,731.3,629.2z"/>
        <g id="overtone-5-space">
            <path class="st2" d="M673.7,602.3c0,10.8,4.9,20.4,12.5,26.9l18.7-25.8l-30.2-9.8C674.1,596.3,673.7,599.2,673.7,602.3z"/>
            <path class="st2" d="M706.5,567.2c-13.7,0.9-25.3,9.7-30.2,21.9l30.2,9.8V567.2z"/>
            <path class="st2" d="M742.8,593.4l-30.3,9.9l18.9,25.9c7.7-6.4,12.6-16.1,12.6-27C743.9,599.2,743.5,596.2,742.8,593.4z"/>
            <path class="st2" d="M727.6,632L708.7,606L690,631.9c5.4,3.5,11.9,5.5,18.9,5.5C715.7,637.4,722.1,635.4,727.6,632z"/>
            <path class="st2" d="M711.2,567.2v31.6l30.2-9.8C736.4,576.8,724.8,568.1,711.2,567.2z"/>
        </g>
    </g>
    <g id="overtone-4">
        <path class="st3" d="M500,260.3c-22.5,0-40.8,18.2-40.8,40.8c0,22.5,18.2,40.8,40.8,40.8s40.8-18.2,40.8-40.8
            C540.7,278.5,522.5,260.3,500,260.3z M535,298.7h-13.1c-1.1-10.3-9.3-18.5-19.6-19.6V266C519.9,267.1,533.9,281.1,535,298.7z
             M497.6,319.9c-9.4-1.2-16.7-9.2-16.7-18.9s7.3-17.7,16.7-18.9V319.9z M502.3,282.1c9.4,1.2,16.7,9.2,16.7,18.9
            s-7.3,17.7-16.7,18.9V282.1z M497.6,266V279c-10.3,1.1-18.5,9.3-19.6,19.6h-13.1C466.1,281.1,480.1,267.1,497.6,266z M464.9,303.3
            H478c1.1,10.3,9.3,18.5,19.6,19.6V336C480.1,334.9,466.1,320.9,464.9,303.3z M502.3,336V323c10.3-1.1,18.5-9.3,19.6-19.6H535
            C533.9,320.9,519.9,334.9,502.3,336z"/>
        <g id="overtone-4-space">
            <g>
                <path class="st2" d="M502.3,266V279c10.3,1.1,18.5,9.3,19.6,19.6H535C533.9,281.1,519.9,267.1,502.3,266z"/>
                <path class="st2" d="M521.9,303.3c-1.1,10.3-9.3,18.5-19.6,19.6V336c17.5-1.2,31.6-15.2,32.7-32.7H521.9z"/>
                <path class="st2" d="M478,303.3h-13.1c1.2,17.5,15.2,31.6,32.7,32.7V323C487.3,321.9,479.1,313.7,478,303.3z"/>
                <path class="st2" d="M497.6,266c-17.5,1.2-31.6,15.2-32.7,32.7H478c1.1-10.3,9.3-18.5,19.6-19.6V266z"/>
            </g>
            <g>
                <path class="st2" d="M497.6,282.1c-9.4,1.2-16.7,9.2-16.7,18.9s7.3,17.7,16.7,18.9V282.1z"/>
                <path class="st2" d="M519,301c0-9.7-7.3-17.7-16.7-18.9v37.8C511.7,318.7,519,310.7,519,301z"/>
            </g>
        </g>
    </g>
    <g id="overtone-3">
        <path class="st3" d="M420.8,596.6c-22.5,0-40.8,18.2-40.8,40.8c0,22.5,18.2,40.8,40.8,40.8c22.5,0,40.8-18.2,40.8-40.8
            C461.6,614.8,443.3,596.6,420.8,596.6z M455.9,637.3c0,5.4-1.2,10.5-3.4,15.1l-29.3-16.3v-33.8
            C441.5,603.5,455.9,618.7,455.9,637.3z M418.4,602.3v33.9l-29.3,16.3c-2.2-4.6-3.4-9.7-3.4-15.1
            C385.7,618.8,400.1,603.6,418.4,602.3z M420.8,672.5c-12.3,0-23.1-6.3-29.3-15.8l29.3-16.3l29.3,16.3
            C443.9,666.2,433.1,672.5,420.8,672.5z"/>
        <g id="overtone-3-space">
            <path class="st2" d="M420.8,672.5c12.3,0,23.1-6.3,29.3-15.8l-29.3-16.3l-29.3,16.3C397.8,666.2,408.6,672.5,420.8,672.5z"/>
            <path class="st2" d="M455.9,637.3c0-18.6-14.5-33.8-32.7-35v33.8l29.3,16.3C454.7,647.9,455.9,642.7,455.9,637.3z"/>
            <path class="st2" d="M385.7,637.3c0,5.4,1.2,10.5,3.4,15.1l29.3-16.3v-33.9C400.1,603.6,385.7,618.8,385.7,637.3z"/>
        </g>
    </g>
    <g id="overtone-2">
        <path class="st3" d="M500.3,359.9c-22.5,0-40.8,18.2-40.8,40.8c0,22.5,18.2,40.7,40.8,40.7c22.5,0,40.8-18.2,40.8-40.7
            C541.1,378.2,522.8,359.9,500.3,359.9z M465.2,400.7c0-18.5,14.3-33.7,32.5-35v70C479.5,434.3,465.2,419.2,465.2,400.7z
             M502.3,435.7v-70.1c18.5,1,33.1,16.3,33.1,35.1C535.4,419.4,520.8,434.7,502.3,435.7z"/>
        <g id="overtone-2-space">
            <path class="st2" d="M502.3,365.6v70.1c18.5-1,33.1-16.3,33.1-35.1C535.4,382,520.8,366.7,502.3,365.6z"/>
            <path class="st2" d="M497.7,435.7v-70c-18.2,1.4-32.5,16.5-32.5,35C465.2,419.2,479.5,434.3,497.7,435.7z"/>
        </g>
    </g>
    <g id="overtone-1">
        <circle id="overtone-1-space" class="st2" cx="500" cy="501.9" r="38.7"/>
        <g>
            <path class="st3" d="M500.3,460.9c-22.5,0-40.8,18.2-40.8,40.8s18.2,40.8,40.8,40.8c22.5,0,40.8-18.2,40.8-40.8
                S522.8,460.9,500.3,460.9z M500.3,536.8c-19.4,0-35.1-15.7-35.1-35.1c0-19.4,15.7-35.1,35.1-35.1c19.4,0,35.1,15.7,35.1,35.1
                C535.4,521.1,519.7,536.8,500.3,536.8z"/>
            <circle class="st3" cx="500.3" cy="501.7" r="5.3"/>
        </g>
    </g>
</g>
</svg>
