<?xml version="1.0" encoding="utf-8"?>
<!-- Generator: Adobe Illustrator 16.0.4, SVG Export Plug-In . SVG Version: 6.00 Build 0)  -->
<!DOCTYPE svg PUBLIC "-//W3C//DTD SVG 1.1//EN" "http://www.w3.org/Graphics/SVG/1.1/DTD/svg11.dtd">
<svg version="1.1"
	 id="Layer_1" xmlns:cc="http://creativecommons.org/ns#" xmlns:rdf="http://www.w3.org/1999/02/22-rdf-syntax-ns#" xmlns:dc="http://purl.org/dc/elements/1.1/" xmlns:sodipodi="http://sodipodi.sourceforge.net/DTD/sodipodi-0.dtd" xmlns:svg="http://www.w3.org/2000/svg" xmlns:inkscape="http://www.inkscape.org/namespaces/inkscape"
	 xmlns="http://www.w3.org/2000/svg" xmlns:xlink="http://www.w3.org/1999/xlink" x="0px" y="0px" width="464.315px"
	 height="464.318px" viewBox="65.483 114.376 464.315 464.318" enable-background="new 65.483 114.376 464.315 464.318"
	 xml:space="preserve">
<g transform="translate(0,-952.36218)" fill="#222222">
	<path d="M297.641,1066.738c-52.765,0-95.243,42.479-95.243,95.245v142.867c0,52.766,42.479,95.245,95.243,95.245
		s95.243-42.479,95.243-95.245v-142.867C392.884,1109.217,350.406,1066.738,297.641,1066.738z M147.521,1227.278
		c-5.851,0.643-10.73,6.208-10.604,12.092v65.48c0,83.821,65.465,154,148.818,160.168v42.227h-71.434
		c-6.574,0-11.904,5.33-11.904,11.906c0,6.575,5.33,11.905,11.904,11.905h166.677c6.575,0,11.905-5.33,11.905-11.905
		c0-6.576-5.33-11.906-11.905-11.906h-71.433v-42.227c83.353-6.167,148.818-76.348,148.818-160.168v-65.481
		c0.095-6.293-5.611-12.085-11.905-12.085c-6.295,0-12,5.792-11.905,12.085v65.481c0,74.817-60.969,136.915-136.913,136.915
		c-75.945,0-136.912-62.097-136.912-136.915v-65.481C160.871,1232.616,154.235,1226.538,147.521,1227.278L147.521,1227.278z"/>
</g>
</svg>
