<svg width='200' height='200' fill="#FFFFFF" xmlns="http://www.w3.org/2000/svg" xmlns:xlink="http://www.w3.org/1999/xlink" version="1.1" x="0px" y="0px" viewBox="-11 13 24 24" style="enable-background:new -11 13 24 24;" xml:space="preserve"><style type="text/css">
	.st0{fill:none;}
</style><g><ellipse cx="-5.8" cy="25.7" rx="1.1" ry="1.1"/><ellipse cx="1" cy="19.4" rx="1.1" ry="1.1"/><path d="M9.5,13h-17c-2,0-3.6,1.6-3.6,3.7v16.7c0,2,1.6,3.7,3.6,3.7h17c2,0,3.6-1.6,3.6-3.7V16.7C13.1,14.6,11.5,13,9.5,13z    M-5.1,28.1v5.1h-1.4v-5.1c-1-0.3-1.8-1.3-1.8-2.4s0.8-2.1,1.8-2.4v-5.1h1.4v5.1c1,0.3,1.8,1.3,1.8,2.4S-4.1,27.8-5.1,28.1z    M1.7,21.8v11.4H0.3V21.8c-1-0.3-1.8-1.3-1.8-2.4c0-1.4,1.1-2.5,2.5-2.5s2.5,1.1,2.5,2.5C3.5,20.5,2.7,21.5,1.7,21.8z M8.5,30.8   v2.3H7.1v-2.3c-1-0.3-1.8-1.3-1.8-2.4c0-1.1,0.8-2.1,1.8-2.4v-7.8h1.4V26c1,0.3,1.8,1.3,1.8,2.4C10.3,29.6,9.5,30.5,8.5,30.8z"/><ellipse cx="7.8" cy="28.4" rx="1.1" ry="1.1"/></g><path class="st0" d="M-5.1,23.3v-5.1h-1.4v5.1c-1,0.3-1.8,1.3-1.8,2.4c0,1.1,0.8,2.1,1.8,2.4v5.1h1.4v-5.1c1-0.3,1.8-1.3,1.8-2.4  S-4.1,23.6-5.1,23.3z M-5.8,26.8c-0.6,0-1.1-0.5-1.1-1.1s0.5-1.1,1.1-1.1s1.1,0.5,1.1,1.1S-5.2,26.8-5.8,26.8z"/></svg>