<?xml version="1.0" encoding="utf-8"?>
<!DOCTYPE svg PUBLIC "-//W3C//DTD SVG 1.1//EN" "http://www.w3.org/Graphics/SVG/1.1/DTD/svg11.dtd">
<svg version="1.1" id="facebook-link" xmlns="http://www.w3.org/2000/svg" xmlns:xlink="http://www.w3.org/1999/xlink" x="0px" y="0px"
	 width="386.932px" height="386.932px" viewBox="108.143 150.093 386.932 386.932"
	 enable-background="new 108.143 150.093 386.932 386.932" xml:space="preserve">
<g>
	<path fill="none" d="M365.105,263.196v-30.756h-41.669c-21.827,0-39.686,18.851-39.686,41.67v39.685h-40.678v28.772h40.678v115.088
		h34.725V342.566h46.63v-28.772h-46.63v-33.732c0-8.929,6.944-16.866,14.882-16.866H365.105z"/>
	<path fill="#d4d4d4" d="M420.664,150.093H182.553c-40.678,0-74.41,33.732-74.41,74.41v238.112c0,40.678,33.732,74.41,74.41,74.41h238.111
		c40.678,0,74.41-33.732,74.41-74.41V224.502C495.074,183.825,462.334,150.093,420.664,150.093z M318.475,280.062v33.732h46.63
		v28.772h-46.63v115.088H283.75V342.566h-40.678v-28.772h40.678v-39.685c0-22.819,17.858-41.67,39.686-41.67h41.669v30.756h-31.748
		C325.419,263.196,318.475,271.133,318.475,280.062z"/>
</g>
</svg>
