<?xml version="1.0" encoding="utf-8"?>
<!-- Generator: Adobe Illustrator 16.0.4, SVG Export Plug-In . SVG Version: 6.00 Build 0)  -->
<!DOCTYPE svg PUBLIC "-//W3C//DTD SVG 1.1//EN" "http://www.w3.org/Graphics/SVG/1.1/DTD/svg11.dtd">
<svg version="1.1" id="Layer_1" xmlns="http://www.w3.org/2000/svg" xmlns:xlink="http://www.w3.org/1999/xlink" x="0px" y="0px"
	 width="597.171px" height="594.269px" viewBox="-0.946 48.318 597.171 594.269"
	 enable-background="new -0.946 48.318 597.171 594.269" xml:space="preserve">
<path d="M455.761,48.318c-35.68,0.019-70.838,13.282-97.663,40.107l-72.661,72.661l39.53,39.531l72.661-72.662
	c31.922-31.922,84.567-32.015,118.591,0.577c33.094,31.699,32.312,83.693,0,118.014c-0.186,0.205-0.391,0.372-0.576,0.577
	L386.002,376.764c-31.922,31.921-85.144,32.61-119.168,0l-38.953,40.107c55.268,52.961,144.001,53.073,197.651-0.576
	l130.217-130.218c52.683-54.971,55.436-143.984-0.576-197.652C527.53,61.935,491.441,48.3,455.761,48.318z M267.988,234.343
	c-35.68,0.019-71.415,13.282-98.239,40.107L39.531,404.668c-0.002,0.192-0.002,0.385,0,0.576
	c-52.683,54.971-55.436,143.983,0.576,197.652c55.269,52.961,143.426,53.072,197.075-0.577l74.41-74.41l-39.53-39.53l-74.41,74.41
	c-31.922,31.922-84.567,32.61-118.591,0c-33.28-31.903-32.312-84.27,0.576-118.591L209.279,313.98
	c31.922-31.922,85.144-32.015,119.167,0.577L367.4,274.45C339.756,247.96,303.667,234.325,267.988,234.343z"/>
<text transform="matrix(1 0 0 1 2.445579e-04 923.2109)" font-family="'HelveticaNeue-Bold'" font-size="93.0125">Created by useiconic.com</text>
<text transform="matrix(1 0 0 1 2.445579e-04 1016.2266)" font-family="'HelveticaNeue-Bold'" font-size="93.0125">from the Noun Project</text>
</svg>
