<svg width='200' height='200' fill="#FFFFFF" xmlns="http://www.w3.org/2000/svg" xmlns:xlink="http://www.w3.org/1999/xlink" version="1.1" x="0px" y="0px" viewBox="0 0 28 32" style="enable-background:new 0 0 28 32;" xml:space="preserve"><g><path d="M27.728,6.314c-0.378-0.402-1.011-0.421-1.414-0.042l-1.386,1.305c-0.426,0.401-1.012,0.536-1.594,0.474   c-0.884-0.095-1.807,0.18-2.455,0.828C20.312,9.445,20,10.199,20,11c0,0.093,0.005,0.185,0.014,0.276   c0.055,0.549-0.172,1.088-0.574,1.466l-1.463,1.377L16.388,1.752C16.26,0.751,15.386,0,14.35,0h-8.7   C4.614,0,3.74,0.751,3.612,1.752l-3.595,28C-0.137,30.946,0.819,32,2.055,32h15.89c1.236,0,2.192-1.054,2.039-2.248L18.291,16.57   l2.34-2.202c0.442-0.416,1.064-0.608,1.652-0.458C22.515,13.969,22.755,14,23,14c0.801,0,1.555-0.312,2.121-0.878c0,0,0,0,0,0   s0,0,0,0C25.688,12.555,26,11.801,26,11c0-0.158-0.013-0.313-0.039-0.465c-0.105-0.625,0.083-1.262,0.544-1.696l1.18-1.111   C28.088,7.35,28.107,6.717,27.728,6.314z M9,19c0,0.552-0.487,1-1.055,1H4.503c-0.618,0-1.096-0.527-1.019-1.124l1.798-14   C5.345,4.376,5.782,4,6.3,4H13.7c0.518,0,0.955,0.376,1.019,0.876l1.41,10.982l-4.345,4.089C11.344,19.831,11,19.46,11,19V9   c0-0.552-0.433-1-1-1S9,8.448,9,9V19z M16.517,18.876C16.593,19.473,16.115,20,15.497,20h-0.851l1.797-1.691L16.517,18.876z    M23.707,11.707L23.707,11.707c-0.377,0.378-1.036,0.379-1.414,0C22.104,11.518,22,11.267,22,11s0.104-0.518,0.293-0.707   C22.482,10.104,22.733,10,23,10s0.518,0.104,0.707,0.293C23.896,10.482,24,10.733,24,11S23.896,11.518,23.707,11.707z"/></g></svg>