<?xml version="1.0" encoding="utf-8"?>
<!-- Generator: Adobe Illustrator 16.0.4, SVG Export Plug-In . SVG Version: 6.00 Build 0)  -->
<!DOCTYPE svg PUBLIC "-//W3C//DTD SVG 1.1//EN" "http://www.w3.org/Graphics/SVG/1.1/DTD/svg11.dtd">
<svg version="1.1" id="Layer_1" xmlns="http://www.w3.org/2000/svg" xmlns:xlink="http://www.w3.org/1999/xlink" x="0px" y="0px"
	 width="58.067px" height="14.664px" viewBox="0 0 58.067 14.664" enable-background="new 0 0 58.067 14.664" xml:space="preserve">
<g>
	<path fill="#131313" d="M58.067,13.682c0,0.543-0.64,0.982-1.428,0.982H1.428C0.64,14.665,0,14.225,0,13.682V0.985
		c0-0.543,0.64-0.983,1.428-0.983H56.64c0.788,0,1.428,0.44,1.428,0.983V13.682z"/>
	<path fill="#31B454" d="M12.542,3.232c-2.254,0-4.082,1.827-4.082,4.083c0,2.254,1.828,4.082,4.082,4.082
		c2.255,0,4.082-1.827,4.082-4.082C16.624,5.059,14.797,3.232,12.542,3.232 M14.415,9.12c-0.073,0.12-0.23,0.158-0.35,0.085
		c-0.958-0.586-2.165-0.718-3.586-0.394c-0.137,0.031-0.273-0.055-0.305-0.191c-0.031-0.137,0.055-0.273,0.192-0.305
		c1.555-0.355,2.889-0.202,3.964,0.455C14.45,8.844,14.488,9,14.415,9.12 M14.914,8.008c-0.092,0.149-0.289,0.197-0.438,0.105
		c-1.097-0.674-2.77-0.87-4.068-0.477c-0.168,0.051-0.346-0.044-0.396-0.212C9.96,7.257,10.055,7.08,10.224,7.029
		c1.482-0.45,3.325-0.232,4.585,0.542C14.958,7.663,15.006,7.859,14.914,8.008 M14.957,6.851c-1.316-0.781-3.486-0.854-4.742-0.472
		C10.013,6.44,9.799,6.326,9.739,6.125C9.677,5.923,9.792,5.709,9.992,5.648c1.443-0.438,3.84-0.354,5.354,0.546
		c0.182,0.108,0.241,0.342,0.133,0.523C15.373,6.899,15.138,6.958,14.957,6.851"/>
	<g>
		<path fill="#FFFFFF" d="M23.381,6.771c-1.166-0.278-1.373-0.473-1.373-0.883c0-0.387,0.365-0.647,0.907-0.647
			c0.525,0,1.046,0.198,1.593,0.605c0.017,0.012,0.037,0.017,0.058,0.014c0.02-0.003,0.038-0.014,0.05-0.031l0.569-0.802
			c0.023-0.033,0.017-0.079-0.014-0.104c-0.65-0.522-1.382-0.775-2.238-0.775c-1.258,0-2.137,0.755-2.137,1.835
			c0,1.159,0.758,1.569,2.068,1.885c1.115,0.257,1.304,0.472,1.304,0.856c0,0.426-0.38,0.691-0.993,0.691
			c-0.68,0-1.235-0.229-1.855-0.766c-0.016-0.014-0.036-0.02-0.056-0.02c-0.021,0.002-0.039,0.012-0.052,0.027l-0.638,0.76
			c-0.026,0.031-0.023,0.078,0.008,0.105c0.722,0.645,1.61,0.985,2.568,0.985c1.356,0,2.232-0.741,2.232-1.888
			C25.379,7.653,24.801,7.117,23.381,6.771"/>
		<path fill="#FFFFFF" d="M28.447,5.623c-0.587,0-1.07,0.231-1.467,0.705V5.794c0-0.042-0.034-0.076-0.076-0.076H25.86
			c-0.042,0-0.076,0.034-0.076,0.076v5.932c0,0.042,0.034,0.076,0.076,0.076h1.044c0.042,0,0.076-0.034,0.076-0.076V9.854
			c0.397,0.445,0.879,0.664,1.467,0.664c1.092,0,2.198-0.842,2.198-2.448C30.645,6.463,29.539,5.623,28.447,5.623 M29.431,8.07
			c0,0.819-0.504,1.389-1.226,1.389c-0.713,0-1.251-0.598-1.251-1.389c0-0.792,0.539-1.389,1.251-1.389
			C28.916,6.681,29.431,7.265,29.431,8.07"/>
		<path fill="#FFFFFF" d="M33.478,5.622c-1.406,0-2.508,1.083-2.508,2.466c0,1.368,1.095,2.439,2.49,2.439
			c1.411,0,2.517-1.079,2.517-2.457C35.977,6.698,34.879,5.622,33.478,5.622 M33.478,9.467c-0.748,0-1.312-0.601-1.312-1.397
			c0-0.8,0.544-1.381,1.294-1.381c0.753,0,1.321,0.602,1.321,1.399C34.781,8.887,34.232,9.467,33.478,9.467"/>
		<path fill="#FFFFFF" d="M38.979,5.718h-1.147V4.543c0-0.042-0.035-0.076-0.076-0.076h-1.044c-0.042,0-0.077,0.035-0.077,0.076
			v1.174h-0.501c-0.042,0-0.075,0.034-0.075,0.076v0.897c0,0.042,0.033,0.076,0.075,0.076h0.501v2.32
			c0,0.938,0.467,1.413,1.388,1.413c0.374,0,0.685-0.077,0.978-0.243c0.023-0.013,0.039-0.038,0.039-0.066V9.337
			c0-0.026-0.014-0.052-0.037-0.065c-0.022-0.014-0.051-0.015-0.074-0.003c-0.201,0.101-0.395,0.147-0.612,0.147
			c-0.335,0-0.483-0.152-0.483-0.492V6.767h1.147c0.042,0,0.076-0.034,0.076-0.076V5.794C39.056,5.752,39.021,5.718,38.979,5.718"/>
		<path fill="#FFFFFF" d="M42.98,5.722V5.578c0-0.424,0.162-0.613,0.527-0.613c0.217,0,0.392,0.043,0.588,0.108
			c0.023,0.007,0.049,0.004,0.068-0.011c0.02-0.014,0.031-0.038,0.031-0.062V4.122c0-0.034-0.021-0.064-0.054-0.074
			c-0.207-0.062-0.472-0.125-0.868-0.125c-0.963,0-1.473,0.543-1.473,1.569v0.221H41.3c-0.042,0-0.076,0.034-0.076,0.076v0.901
			c0,0.042,0.034,0.076,0.076,0.076h0.501v3.579c0,0.043,0.035,0.076,0.076,0.076h1.044c0.042,0,0.076-0.033,0.076-0.076V6.767
			h0.974l1.493,3.578c-0.17,0.376-0.337,0.45-0.563,0.45c-0.185,0-0.378-0.055-0.576-0.162c-0.018-0.011-0.04-0.012-0.061-0.006
			c-0.02,0.007-0.036,0.021-0.045,0.041l-0.354,0.775c-0.017,0.037-0.002,0.08,0.033,0.1c0.369,0.199,0.702,0.285,1.113,0.285
			c0.771,0,1.197-0.359,1.572-1.324l1.811-4.678c0.009-0.023,0.006-0.05-0.008-0.071c-0.015-0.021-0.037-0.033-0.063-0.033h-1.086
			c-0.032,0-0.062,0.021-0.072,0.051l-1.112,3.178l-1.219-3.18c-0.012-0.03-0.04-0.049-0.072-0.049H42.98z"/>
		<path fill="#FFFFFF" d="M40.66,5.718h-1.043c-0.042,0-0.076,0.034-0.076,0.076v4.552c0,0.042,0.034,0.076,0.076,0.076h1.043
			c0.043,0,0.077-0.034,0.077-0.076V5.794C40.737,5.752,40.703,5.718,40.66,5.718"/>
		<path fill="#FFFFFF" d="M40.145,3.645c-0.414,0-0.748,0.335-0.748,0.748s0.334,0.749,0.748,0.749c0.413,0,0.748-0.335,0.748-0.749
			S40.558,3.645,40.145,3.645"/>
	</g>
</g>
</svg>
