<?xml version="1.0" encoding="utf-8"?>
<!DOCTYPE svg PUBLIC "-//W3C//DTD SVG 1.1//EN" "http://www.w3.org/Graphics/SVG/1.1/DTD/svg11.dtd">
<svg version="1.1" id="asmi-logo" xmlns="http://www.w3.org/2000/svg" xmlns:xlink="http://www.w3.org/1999/xlink" x="0px" y="0px"
	 width="240px" height="466.104px" viewBox="0 0 240 466.104" enable-background="new 0 0 213.84 466.104"
	 xml:space="preserve">
<g>
	<defs>
		<rect id="SVGID_1_" x="-148.915" y="-485.254" width="841.89" height="1190.55"/>
	</defs>
	<clipPath id="SVGID_2_">
		<use xlink:href="#SVGID_1_"  overflow="visible"/>
	</clipPath>
	<path clip-path="url(#SVGID_2_)" fill="#d4d4d4" d="M213.84,380.377H0V0c0.557,0.023,1.115,0.066,1.672,0.066
		C71.781,0.069,141.891,0.069,212,0.069h1.747v1.926c0,135.619,0,240.735,0.004,376.354
		C213.751,379.025,213.809,379.701,213.84,380.377 M44.221,141.623c-0.122-0.065-0.243-0.131-0.364-0.196
		c-1.876,1.663-3.803,3.272-5.617,5.001c-12.065,11.503-16.587,28.058-10.109,43.858c3.929,9.582,11.243,15.575,19.753,21.046
		c9.274,5.962,18.708,11.676,28.069,17.504c6.241,3.885,12.351,8.171,18.823,11.656c7.035,3.789,13.976,7.772,20.61,12.233
		c6.031,4.056,13.635,8.604,17.173,15.2c0.95,1.771,0.649,5.124-0.611,6.578c-0.79-2.356-1.789-4.839-3.821-6.402
		c-2.881-2.216-5.856-4.31-8.805-6.438c-0.389-0.281-0.855-0.455-1.491-0.786c0,0.7-0.005,1.133,0,1.566
		c0.042,3.356,0.118,6.715,0.118,10.072c0,3.438-0.06,6.875-0.123,10.312c-0.024,1.326,0.302,2.48,1.123,3.563
		c1.666,2.198,3.288,4.433,4.826,6.721c0.596,0.886,1.299,1.887,0.727,3.159c-0.233-0.089-0.361-0.104-0.446-0.174
		c-10.891-8.819-21.724-17.633-33.44-25.474c-2.082-1.393-3.949-2.97-5.474-5.262c3.823,1.231,7.401,2.385,11.047,3.56
		c0-3.789-0.063-7.343,0.032-10.893c0.037-1.344-0.356-1.713-1.704-1.988c-12.532-2.553-23.342-8.356-32.331-17.492
		c-0.858-0.872-1.736-1.725-2.708-2.688c-0.892,1.06-1.773,2.034-2.574,3.068c-6.902,8.928-9.392,18.938-6.997,29.99
		c1.419,6.551,4.95,12.081,9.21,17.156c6.124,7.294,13.531,13.118,21.323,18.495c0.385,0.266,0.762,0.545,1.045,0.748
		c-1.457,2.838-3.001,5.502-4.231,8.303c-3.864,8.799-4.094,17.954-2.422,27.269c2.522,14.058,11.689,23.356,25.654,25.964
		c0.901,0.168,1.821,0.24,2.735,0.326c0.907,0.085,1.817,0.131,2.726,0.195c-0.296-0.379-0.627-0.483-0.96-0.574
		c-3.493-0.955-6.809-2.302-9.755-4.45c-6.14-4.476-8.231-10.543-6.977-17.899c0.885-5.194,3.536-9.441,7.104-13.202
		c0.385-0.406,0.828-0.987,0.831-1.49c0.024-3.756-0.061-7.513-0.102-11.27c-0.014-1.301-0.002-2.604-0.002-3.905
		c0.109-0.074,0.219-0.148,0.329-0.223c1.354,0.874,2.75,1.689,4.054,2.634c2.168,1.571,4.203,3.335,6.428,4.818
		c4.102,2.732,8.095,5.589,11.582,9.092c3.622,3.639,6.382,7.805,7.349,12.937c1.531,8.129-0.656,14.759-8.167,19.318
		c-2.59,1.572-5.605,2.447-8.431,3.629c-0.349,0.146-0.728,0.225-1.093,0.334c0.243,0.208,0.466,0.264,0.68,0.24
		c1.903-0.216,3.832-0.313,5.703-0.693c10.561-2.143,18.24-7.959,22.513-17.978c1.704-3.996,2.532-8.209,3.011-12.523
		c1.184-10.686-0.984-20.571-6.794-29.638c-0.228-0.355-0.443-0.719-0.642-1.044c3.096-2.29,6.133-4.435,9.06-6.721
		c6.779-5.293,12.92-11.197,17.684-18.446c9.219-14.028,7.081-30.996-3.302-42.558c-3.66-4.074-7.866-7.493-12.298-10.666
		c-2.07-1.48-4.146-2.955-6.335-4.514c0.775-1.075,1.428-2.02,2.121-2.935c5.626-7.426,8.69-15.723,8.618-25.107
		c-0.03-3.919,0.008-7.84,0.01-11.759c0-0.412-0.036-0.824-0.066-1.479c-12.255,6.932-24.292,13.739-36.652,20.731
		c5.879,3.949,10.336,8.778,13.543,14.771c-1.92-0.981-3.798-2.016-5.564-3.215c-6.046-4.105-11.908-8.502-18.105-12.361
		c-12.82-7.984-25.815-15.687-39.288-22.544c-2.417-1.229-4.902-2.331-7.299-3.6c-3.102-1.64-6.114-3.452-9.237-5.048
		c-1.016-0.521-1.337-1.08-1.33-2.172c0.051-8.279,0.043-16.56,0.053-24.838C44.221,142.56,44.221,142.092,44.221,141.623
		 M68.013,126.246c-2.382,0.269-2.089,1.823-2.088,3.271c0.01,12.641,0.006,25.28,0.005,37.92v1.508
		c12.273-7.016,24.341-13.914,36.521-20.876c-4.008-3.202-8.203-6-11.095-10.214c0.781,0.305,1.499,0.701,2.228,1.076
		c6.631,3.41,13.336,6.685,19.878,10.256c8.486,4.635,16.865,9.465,25.247,14.286c6.712,3.861,13.417,7.759,19.799,12.152
		c5.731,3.945,13.883,8.636,16.041,15.637c0.12,0.39,0.017,0.847,0.017,1.55c-1.969-1.449-3.676-2.705-5.611-4.129
		c-0.171,7.293,0.921,14.309-0.679,21.326c2.57-1.641,4.995-3.314,7.275-5.167c8.05-6.539,12.65-16.371,13.351-26.668
		c0.916-13.46-4.995-24.793-14.874-33.552c-7.523-6.67-16.039-11.892-24.72-16.87c-0.926-0.531-1.852-1.062-2.917-1.675
		c0.562-0.306,1.014-0.482,1.371-0.773c0.229-0.187,0.45-0.544,0.451-0.824c0.004-6.352-0.033-12.702-0.042-19.055
		c-0.011-6.759-0.001-13.519,0-20.279c0-0.429,0-0.857,0-1.329c-11.885,6.453-23.647,12.839-35.519,19.285
		c2.835,2.549,5.959,4.77,8.254,8.245c-0.699-0.189-1.094-0.25-1.449-0.402c-22.033-9.414-43.43-20.61-63.503-33.707
		c-7.363-4.804-13.503-11.082-17.656-18.873c-0.599-1.129-1.077-2.321-1.611-3.484c0.104-0.073,0.207-0.146,0.311-0.219
		c2.36,1.517,4.719,3.034,7.109,4.57V28.563c-2.541,0.716-4.951,1.278-7.282,2.073c-8.417,2.874-15.611,7.501-20.123,15.383
		c-5.844,10.207-6.492,21.08-3.116,32.194c2.613,8.601,7.938,15.519,14.304,21.691c7.811,7.574,16.821,13.496,26.235,18.835
		C58.568,121.259,63.111,123.604,68.013,126.246 M169.321,113.06c0.23-0.107,0.38-0.158,0.508-0.242
		c7.447-4.886,14.465-10.291,20.397-16.993c9.163-10.353,13.879-22.165,11.923-36.195c-1.503-10.775-6.626-19.218-15.977-24.927
		c-7.143-4.361-15.04-6.31-23.297-6.996c-2.056-0.171-4.122-0.23-6.321-0.348V12.815c-1.126,0-2.118,0.055-3.101-0.016
		c-0.932-0.068-1.138,0.319-1.13,1.181c0.038,4.119,0.017,8.238,0.017,12.358v1.292c-5.011,0.386-9.711,1.445-14.312,2.954
		c-5.622,1.845-10.996,4.209-15.355,8.33c-1.393,1.317-2.553,2.963-3.513,4.634c-0.917,1.596-0.609,2.9,0.849,4.053
		c1.458,1.154,3.028,2.302,4.737,2.977c4.445,1.755,8.957,3.365,13.511,4.819c6.608,2.109,13.335,3.854,19.898,6.09
		c4.803,1.636,9.31,4.02,13.377,7.131c3.645,2.79,4.845,6.796,5.612,11.218c-2.566-2.455-4.993-4.778-7.419-7.1
		c-0.135,0.077-0.27,0.153-0.404,0.229V113.06z M65.988,58.092c1.357-0.361,2.545-0.682,3.736-0.991
		c6.566-1.704,13.137-3.418,19.307-6.302c1.859-0.868,3.598-2.052,5.254-3.278c1.287-0.953,1.592-2.404,0.831-3.867
		c-0.584-1.124-1.159-2.36-2.067-3.185c-2.087-1.896-4.228-3.808-6.609-5.293c-5.688-3.549-12.043-5.426-18.57-6.75
		c-0.599-0.121-1.213-0.172-1.882-0.264V58.092z M152.444,64.765c-0.049,0.549-0.1,0.857-0.1,1.165
		c-0.004,18.829-0.005,37.657,0.003,56.486c0.001,0.347-0.014,0.856,0.19,1.013c1.238,0.95,2.538,1.819,4.034,2.867v-1.762
		c0-18.748,0-37.497-0.001-56.246c0-0.36,0.038-0.726-0.019-1.077c-0.041-0.251-0.149-0.606-0.335-0.699
		C155.018,65.916,153.79,65.38,152.444,64.765 M52.291,66.844c0.111-0.052,0.223-0.104,0.334-0.158c0-0.388,0-0.775,0-1.163
		c0-17.263,0.001-34.526,0.001-51.789c0-0.24,0.076-0.523-0.025-0.708c-0.142-0.259-0.408-0.618-0.638-0.631
		c-1.14-0.064-2.286-0.029-3.469-0.029c-0.04,0.415-0.089,0.686-0.089,0.957C48.401,29.747,48.4,46.17,48.412,62.594
		c0,0.339,0.036,0.797,0.247,0.997C49.837,64.71,51.074,65.767,52.291,66.844 M103.458,251.957c0.061-0.15,0.122-0.299,0.183-0.448
		c-0.972-0.983-1.911-2.004-2.933-2.933c-0.414-0.376-0.982-0.687-1.527-0.797c-10.403-2.123-19.832-6.336-27.984-13.188
		c-4.041-3.396-8.064-6.795-12.6-9.526c-0.356-0.216-0.728-0.403-1.393-0.77c0.241,0.567,0.298,0.835,0.448,1.033
		c2.474,3.28,4.699,6.798,7.5,9.771c5.29,5.614,11.719,9.712,18.798,12.791c4.971,2.162,10.103,3.731,15.512,4.243
		C100.777,252.258,102.125,252.025,103.458,251.957 M148.349,223.389c0.18-0.275,0.302-0.479,0.441-0.672
		c4.601-6.375,7.326-13.487,7.677-21.329c0.291-6.503,0.09-13.027,0.093-19.544c0.001-0.3-0.033-0.758-0.22-0.877
		c-1.25-0.794-2.546-1.517-4-2.364v1.569c0,5.517,0.02,11.032-0.006,16.548c-0.038,8.245-2.311,15.82-6.884,22.694
		c-0.236,0.354-0.449,0.726-0.684,1.109C145.969,221.485,147.081,222.375,148.349,223.389 M52.514,168.633
		c0.052-0.595,0.103-0.902,0.103-1.211c0.004-14.304,0.006-28.607-0.004-42.911c0-0.34-0.02-0.835-0.23-0.993
		c-1.224-0.92-2.507-1.76-3.835-2.671c-0.083,0.321-0.138,0.435-0.138,0.549c-0.009,14.822-0.016,29.646-0.002,44.469
		c0,0.311,0.15,0.779,0.379,0.907C49.954,167.416,51.17,167.973,52.514,168.633 M100.707,324.643
		c-0.105,0.059-0.21,0.115-0.315,0.174c-0.026,0.377-0.075,0.755-0.076,1.133c-0.008,1.997-0.131,4.006,0.034,5.99
		c0.147,1.768-0.366,3.087-1.768,4.122c-2.449,1.812-4.144,4.216-5.151,7.049c-0.582,1.637-1.362,3.448-1.163,5.072
		c0.712,5.786,3.114,10.627,8.887,13.064c0.255,0.108,0.535,0.159,0.801,0.237c-1.128-1.786-2.252-3.473-3.282-5.216
		c-3.502-5.926-2.149-12.152,2.507-16.421c2.678-2.455,4.096-5.005,3.477-8.607c-0.133-0.777,0.161-1.785-0.234-2.331
		C103.323,327.387,101.964,326.052,100.707,324.643"/>
	<polygon clip-path="url(#SVGID_2_)" fill="#222222" points="103.047,273.927 99.066,271.323 99.066,258.174 103.047,258.174 	"/>
	<path clip-path="url(#SVGID_2_)" fill="#d4d4d4" d="M47.639,465.526l-4.714-13.756H15.896l-4.714,13.756H0.12l25.106-68.488h8.369
		l25.106,68.488H47.639z M29.651,412.524L18.975,442.92h21.066L29.651,412.524z"/>
	<path clip-path="url(#SVGID_2_)" fill="#d4d4d4" d="M86.597,466.104c-10.292,0-17.699-2.405-24.24-9.042l6.926-6.83
		c5.001,5.002,10.484,6.541,17.506,6.541c8.946,0,14.141-3.848,14.141-10.484c0-2.982-0.866-5.482-2.694-7.119
		c-1.731-1.635-3.463-2.308-7.503-2.885l-8.08-1.155c-5.579-0.769-10.004-2.692-12.986-5.481c-3.366-3.175-5.002-7.504-5.002-13.082
		c0-11.928,8.658-20.105,22.894-20.105c9.042,0,15.391,2.31,21.258,7.792l-6.637,6.541c-4.232-4.041-9.138-5.291-14.91-5.291
		c-8.08,0-12.505,4.618-12.505,10.679c0,2.5,0.77,4.713,2.598,6.348c1.731,1.539,4.521,2.693,7.695,3.175l7.791,1.154
		c6.349,0.962,9.908,2.501,12.794,5.099c3.751,3.27,5.579,8.175,5.579,14.043C111.222,458.601,100.93,466.104,86.597,466.104"/>
	<polygon clip-path="url(#SVGID_2_)" fill="#d4d4d4" points="175.188,465.526 175.188,419.739 159.414,453.118 151.717,453.118 
		135.558,419.739 135.558,465.526 125.168,465.526 125.168,397.038 135.558,397.038 155.565,439.651 175.188,397.038 
		185.578,397.038 185.578,465.526 	"/>
	<rect x="203.371" y="397.038" clip-path="url(#SVGID_2_)" fill="#d4d4d4" width="10.389" height="68.488"/>
</g>
</svg>
