<?xml version="1.0" encoding="utf-8"?>
<!-- Generator: Adobe Illustrator 16.0.4, SVG Export Plug-In . SVG Version: 6.00 Build 0)  -->
<!DOCTYPE svg PUBLIC "-//W3C//DTD SVG 1.1//EN" "http://www.w3.org/Graphics/SVG/1.1/DTD/svg11.dtd">
<svg version="1.1" id="Layer_1" xmlns="http://www.w3.org/2000/svg" xmlns:xlink="http://www.w3.org/1999/xlink" x="0px" y="0px"
	 width="58.067px" height="14.664px" viewBox="0 0 58.067 14.664" enable-background="new 0 0 58.067 14.664" xml:space="preserve">
<g>
	<path fill="#131313" d="M58.067,13.68c0,0.543-0.64,0.982-1.428,0.982H1.428C0.64,14.663,0,14.223,0,13.68V0.983
		C0,0.44,0.64,0,1.428,0H56.64c0.788,0,1.428,0.44,1.428,0.983V13.68z"/>
	<g>
		<path fill="#FFFFFF" d="M14.61,6.902c-0.012-0.698,0.29-1.242,0.904-1.631c-0.347-0.503-0.857-0.787-1.532-0.85
			c-0.24-0.022-0.547,0.035-0.92,0.172c-0.402,0.149-0.628,0.223-0.678,0.223c-0.106,0-0.31-0.062-0.612-0.188
			c-0.301-0.125-0.558-0.188-0.77-0.188c-0.357,0.005-0.69,0.104-0.996,0.296C9.698,4.926,9.453,5.188,9.269,5.52
			C9.035,5.932,8.917,6.424,8.917,6.996c0,0.515,0.087,1.03,0.26,1.546c0.162,0.492,0.368,0.924,0.619,1.295
			c0.223,0.338,0.419,0.584,0.586,0.738c0.24,0.24,0.485,0.354,0.737,0.343c0.162-0.005,0.374-0.065,0.636-0.181
			c0.245-0.107,0.49-0.162,0.737-0.162c0.229,0,0.465,0.054,0.712,0.162c0.273,0.115,0.496,0.172,0.669,0.172
			c0.257-0.012,0.497-0.123,0.721-0.334c0.078-0.069,0.163-0.164,0.254-0.283c0.106-0.141,0.208-0.283,0.306-0.43
			c0.082-0.125,0.158-0.254,0.23-0.386c0.078-0.142,0.146-0.288,0.206-0.438c0.027-0.062,0.052-0.127,0.075-0.191
			c0.022-0.066,0.044-0.134,0.066-0.202c-0.206-0.092-0.393-0.221-0.56-0.387C14.802,7.892,14.615,7.439,14.61,6.902L14.61,6.902z
			 M23.137,8.37h-0.041l-1.7-3.885h-1.335v6.269h1.164v-4.06h0.053l1.421,3.223h0.816l1.417-3.223h0.053v4.06h1.178V4.485h-1.326
			L23.137,8.37z M13.555,3.727c0.296-0.372,0.444-0.772,0.444-1.201V2.439c0-0.029-0.002-0.058-0.008-0.086
			c-0.207,0.012-0.426,0.078-0.657,0.197c-0.232,0.121-0.423,0.273-0.574,0.455c-0.301,0.361-0.452,0.747-0.452,1.159v0.081
			c0,0.026,0.003,0.054,0.008,0.082C12.779,4.374,13.191,4.173,13.555,3.727z M39.762,4.485h1.307v6.269h-1.307V4.485z
			 M45.018,5.481c0.775,0,1.186,0.597,1.186,1.24h1.252V6.588c0-1.212-0.926-2.222-2.447-2.222c-1.631,0-2.606,1.074-2.606,2.907
			V7.98c0,1.832,0.966,2.894,2.603,2.894c1.564,0,2.451-1.025,2.451-2.164V8.573h-1.252c0,0.647-0.402,1.185-1.176,1.185
			c-0.793,0-1.299-0.565-1.299-1.773V7.278C43.729,6.074,44.237,5.481,45.018,5.481L45.018,5.481z M31.164,8.443
			c0,0.841-0.492,1.304-1.213,1.304c-0.727,0-1.218-0.459-1.218-1.304V4.485h-1.299v4.143c0,1.336,0.946,2.245,2.516,2.245
			c1.565,0,2.516-0.909,2.516-2.245V4.485h-1.303V8.443L31.164,8.443z M36.793,7.103l-0.934-0.211
			c-0.549-0.115-0.837-0.358-0.837-0.722c0-0.482,0.392-0.785,1.022-0.785c0.713,0,1.069,0.409,1.101,0.85h1.218
			c-0.014-1.106-0.938-1.878-2.312-1.878c-1.303,0-2.332,0.684-2.332,1.915c0,1.065,0.721,1.561,1.588,1.75l0.924,0.216
			c0.621,0.142,0.938,0.349,0.938,0.775c0,0.487-0.388,0.818-1.113,0.818c-0.779,0-1.191-0.414-1.227-0.877h-1.254
			c0.018,0.886,0.605,1.919,2.418,1.919c1.523,0,2.466-0.757,2.466-1.988C38.458,7.745,37.695,7.299,36.793,7.103L36.793,7.103z"/>
	</g>
</g>
</svg>
