<?xml version="1.0" encoding="utf-8"?>
<!-- Generator: Adobe Illustrator 16.0.4, SVG Export Plug-In . SVG Version: 6.00 Build 0)  -->
<!DOCTYPE svg PUBLIC "-//W3C//DTD SVG 1.1//EN" "http://www.w3.org/Graphics/SVG/1.1/DTD/svg11.dtd">
<svg version="1.1" id="Layer_1" xmlns="http://www.w3.org/2000/svg" xmlns:xlink="http://www.w3.org/1999/xlink" x="0px" y="0px"
	 width="372.05px" height="302.311px" viewBox="111.615 269.821 372.05 302.311"
	 enable-background="new 111.615 269.821 372.05 302.311" xml:space="preserve">
<title>Twitter_Logo_White-on-Blue</title>
<path fill="#FFFFFF" d="M228.617,572.132c140.396,0,217.188-116.318,217.188-217.188c0-3.304,0-6.593-0.223-9.867
	c14.938-10.806,27.834-24.185,38.083-39.512c-13.932,6.173-28.71,10.221-43.843,12.01c15.935-9.54,27.861-24.544,33.559-42.22
	c-14.983,8.891-31.376,15.157-48.471,18.528c-28.908-30.739-77.262-32.223-108.001-3.315
	c-19.823,18.644-28.235,46.424-22.082,72.933c-61.375-3.077-118.558-32.066-157.317-79.752
	c-20.261,34.878-9.912,79.498,23.633,101.897c-12.148-0.36-24.03-3.637-34.646-9.554c0,0.312,0,0.64,0,0.967
	c0.01,36.335,25.623,67.631,61.239,74.827c-11.238,3.064-23.028,3.513-34.467,1.31c10,31.095,38.657,52.396,71.314,53.01
	c-27.029,21.243-60.42,32.775-94.798,32.74c-6.073-0.012-12.141-0.379-18.171-1.102c34.907,22.402,75.524,34.284,117.002,34.229"/>
</svg>
