<?xml version="1.0" encoding="UTF-8" ?>
<!DOCTYPE svg PUBLIC "-//W3C//DTD SVG 1.1//EN" "http://www.w3.org/Graphics/SVG/1.1/DTD/svg11.dtd">
<svg width="1000pt" height="1000pt" viewBox="0 0 1000 1000" version="1.1" xmlns="http://www.w3.org/2000/svg">
<path fill="#ffffff" d=" M 0.00 0.00 L 1000.00 0.00 L 1000.00 1000.00 L 0.00 1000.00 L 0.00 0.00 Z" />
<path fill="#0018a5" d=" M 492.71 42.99 C 494.25 40.31 496.49 37.33 499.95 37.52 C 503.78 36.86 507.63 40.08 507.65 43.94 C 507.67 49.42 507.66 54.90 507.59 60.39 C 518.66 62.79 528.66 69.73 534.39 79.55 C 540.14 89.22 541.39 101.36 537.89 112.03 C 534.38 122.91 525.89 132.03 515.36 136.44 C 512.75 137.55 509.86 137.94 507.41 139.42 C 502.97 139.32 498.52 139.46 494.08 139.17 C 493.52 146.31 494.06 153.48 493.82 160.64 C 498.36 160.26 502.92 160.20 507.47 160.48 C 523.30 163.38 536.81 176.34 539.69 192.26 C 540.79 197.66 540.64 203.25 539.43 208.62 C 537.02 219.88 529.29 229.71 519.19 235.12 C 515.53 237.07 511.53 238.20 507.57 239.34 C 507.69 246.70 507.67 254.05 507.58 261.41 C 522.86 264.57 536.01 277.02 538.94 292.49 C 540.44 299.27 539.89 306.36 537.90 312.98 C 533.64 326.54 521.58 337.10 507.67 339.85 C 507.60 346.71 507.68 353.58 507.62 360.44 C 522.73 363.71 535.61 375.81 538.92 391.05 C 540.13 397.36 540.11 403.88 538.52 410.12 C 534.73 424.38 522.49 436.06 507.94 438.79 L 506.86 439.03 L 506.06 439.21 C 502.14 440.07 498.09 439.87 494.15 439.29 C 494.50 446.62 493.34 453.94 494.12 461.26 C 498.05 460.43 502.10 460.45 506.05 461.21 L 506.94 461.36 L 507.99 461.55 C 516.97 463.20 524.83 468.48 530.88 475.18 C 550.55 464.55 570.03 453.55 589.72 442.96 C 589.63 442.54 589.44 441.68 589.34 441.26 C 589.95 441.95 590.49 442.67 591.08 443.41 C 573.17 453.37 555.14 463.14 537.22 473.09 C 535.30 474.14 533.33 475.10 531.35 476.02 C 534.01 479.24 535.91 482.98 537.52 486.83 C 557.92 475.51 578.34 464.19 598.88 453.13 L 599.48 453.97 C 578.99 465.27 558.49 476.58 537.95 487.79 C 540.13 495.45 540.47 503.60 538.48 511.34 C 563.42 523.45 588.36 535.58 613.25 547.78 C 613.18 548.05 613.03 548.57 612.96 548.84 C 587.97 536.75 563.04 524.54 538.07 512.39 C 536.90 516.19 535.10 519.74 533.00 523.10 C 558.24 535.61 583.61 547.84 608.90 560.26 C 608.81 560.48 608.64 560.92 608.56 561.14 C 584.40 549.82 560.57 537.80 536.57 526.15 C 535.11 525.45 533.65 524.78 532.19 524.11 C 525.69 532.77 515.87 538.60 505.16 540.21 C 498.91 541.25 492.67 539.77 486.62 538.29 C 485.34 539.74 484.33 541.40 483.39 543.07 C 483.16 543.46 482.70 544.25 482.47 544.64 C 482.16 544.62 481.53 544.60 481.22 544.59 C 482.75 542.27 484.04 539.81 485.08 537.25 C 481.31 535.82 477.82 533.76 474.75 531.16 C 472.59 534.73 470.55 538.37 468.35 541.92 C 468.11 541.86 467.62 541.73 467.38 541.67 C 467.49 541.45 467.73 541.01 467.85 540.79 C 469.66 537.33 471.69 533.99 473.76 530.68 C 470.02 527.37 467.46 523.04 464.29 519.28 C 458.31 521.04 452.42 523.10 446.51 525.08 C 446.17 525.07 445.48 525.04 445.13 525.02 L 444.66 524.40 C 451.15 522.24 457.64 520.11 464.16 518.05 C 462.62 514.28 461.43 510.39 460.54 506.43 C 453.50 509.08 446.22 511.05 439.16 513.64 C 439.05 513.36 438.82 512.81 438.70 512.53 C 445.86 510.06 453.09 507.80 460.30 505.47 C 460.09 501.31 460.24 497.14 460.68 493.00 C 451.16 489.70 441.84 485.85 432.35 482.47 C 432.35 482.12 432.34 481.42 432.34 481.07 C 441.90 484.79 451.49 488.43 461.13 491.96 C 462.11 487.99 463.63 484.19 465.64 480.63 C 455.21 476.66 444.77 472.69 434.30 468.81 C 434.38 468.50 434.53 467.90 434.60 467.60 C 443.76 471.10 452.94 474.54 462.11 478.04 C 463.63 478.31 465.72 479.81 466.93 478.18 C 468.78 476.17 470.53 474.06 472.07 471.81 C 471.69 469.93 470.47 468.41 469.49 466.83 C 462.93 457.09 456.51 447.27 450.02 437.48 C 450.21 437.27 450.60 436.86 450.79 436.65 C 458.48 448.00 465.83 459.57 473.60 470.87 C 476.61 468.14 480.02 465.89 483.72 464.20 C 475.59 452.14 467.45 440.08 459.70 427.78 L 460.38 427.12 C 468.56 439.25 476.56 451.50 484.63 463.71 C 487.30 462.81 490.00 462.02 492.73 461.30 C 492.84 453.87 492.77 446.44 492.77 439.02 C 482.35 437.03 472.93 430.84 466.99 422.06 C 463.32 416.66 461.16 410.37 460.37 403.91 C 459.08 391.94 463.52 379.49 472.32 371.24 C 477.83 365.56 485.22 362.25 492.80 360.38 C 492.63 353.62 493.04 346.84 492.62 340.10 C 489.77 338.96 486.72 338.41 483.92 337.15 C 474.50 332.98 466.80 325.02 462.99 315.45 C 460.89 310.20 460.07 304.52 460.15 298.89 C 460.68 287.19 466.64 275.96 476.00 268.94 C 480.86 265.03 486.79 262.85 492.78 261.35 C 492.77 253.90 492.82 246.45 492.74 239.00 C 479.08 236.24 467.21 225.93 462.85 212.66 C 461.09 207.38 460.36 201.76 460.81 196.21 C 462.30 179.08 475.86 164.02 492.75 160.76 C 492.82 153.48 492.77 146.20 492.78 138.92 C 478.66 136.28 466.38 125.62 462.08 111.88 C 460.47 106.62 459.84 101.07 460.36 95.59 C 461.86 78.36 475.85 63.51 492.76 60.36 C 492.77 54.57 492.84 48.78 492.71 42.99 Z" />
<path fill="#ffd447" d=" M 494.30 43.21 C 495.31 37.39 505.22 36.89 506.36 42.94 C 506.74 48.78 506.37 54.63 506.54 60.48 C 502.55 59.44 498.44 59.48 494.41 60.23 L 494.34 60.07 C 493.32 54.59 493.71 48.77 494.30 43.21 Z" />
<path fill="#ffffff" d=" M 494.34 60.07 L 494.41 60.23 L 495.03 61.58 C 495.70 61.55 497.04 61.49 497.71 61.47 C 497.72 63.91 497.82 66.36 497.62 68.81 C 494.62 69.59 491.55 70.09 488.56 70.91 C 487.59 68.61 486.67 66.30 485.83 63.96 C 488.71 63.04 491.64 62.25 494.66 61.95 C 494.58 61.48 494.42 60.54 494.34 60.07 Z" />
<path fill="#ffffff" d=" M 502.54 68.69 C 502.31 66.24 502.44 63.78 502.49 61.32 C 506.44 61.77 510.30 62.73 514.07 63.98 C 513.18 66.29 512.22 68.58 511.28 70.88 C 508.42 69.95 505.28 69.78 502.54 68.69 Z" />
<path fill="#ffffff" d=" M 473.94 71.60 C 477.15 68.94 480.46 66.19 484.50 64.93 C 485.38 67.20 486.25 69.47 486.97 71.79 C 484.09 73.11 481.80 75.42 478.98 76.79 C 477.02 75.36 475.46 73.46 473.94 71.60 Z" />
<path fill="#ffffff" d=" M 515.37 64.93 C 519.44 66.25 523.21 68.73 526.01 71.96 C 524.53 73.76 522.98 75.57 521.03 76.86 C 518.22 75.37 515.87 73.11 512.96 71.77 C 513.59 69.43 514.45 67.16 515.37 64.93 Z" />
<path fill="#ffffff" d=" M 480.26 78.13 C 485.18 73.89 491.26 71.28 497.69 70.46 C 497.73 73.31 497.73 76.15 497.70 78.99 C 493.33 79.41 489.72 81.81 486.00 83.85 C 483.90 82.14 482.11 80.09 480.26 78.13 Z" />
<path fill="#ffffff" d=" M 502.49 78.75 C 502.31 75.98 502.45 73.22 502.51 70.45 C 508.89 71.36 514.89 73.98 519.82 78.14 C 517.99 80.17 516.20 82.28 514.02 83.95 C 510.44 81.62 506.63 79.84 502.49 78.75 Z" />
<path fill="#ffffff" d=" M 464.93 84.19 C 466.87 80.61 468.66 76.54 472.02 74.08 C 474.06 75.00 476.29 76.85 476.92 79.04 C 475.38 81.80 473.21 84.19 471.95 87.13 C 469.58 86.22 467.24 85.22 464.93 84.19 Z" />
<path fill="#ffffff" d=" M 523.14 78.98 C 524.15 77.01 526.03 75.16 528.01 74.19 C 531.38 76.55 533.32 80.69 535.00 84.41 C 532.70 85.37 530.39 86.30 528.04 87.12 C 526.85 84.15 524.48 81.81 523.14 78.98 Z" />
<path fill="#ffffff" d=" M 470.95 97.81 C 471.50 91.23 474.04 84.70 478.75 79.97 C 480.45 81.78 482.19 83.56 484.07 85.20 C 482.35 89.37 479.58 93.15 479.29 97.82 C 476.51 97.85 473.73 97.85 470.95 97.81 Z" />
<path fill="#ffffff" d=" M 480.98 97.80 C 481.63 89.01 489.06 81.76 497.66 80.56 C 497.74 83.38 497.74 86.20 497.69 89.03 C 493.53 90.19 490.21 93.56 489.29 97.81 C 486.52 97.85 483.75 97.86 480.98 97.80 Z" />
<path fill="#ffffff" d=" M 502.51 89.09 C 502.40 86.24 502.41 83.38 502.58 80.53 C 511.05 81.95 518.41 89.06 519.00 97.81 C 516.23 97.86 513.46 97.85 510.69 97.79 C 509.80 93.62 506.57 90.29 502.51 89.09 Z" />
<path fill="#ffffff" d=" M 516.01 85.92 C 517.60 83.68 519.72 81.90 521.80 80.13 C 524.39 83.62 526.77 87.32 527.91 91.57 C 529.64 92.46 529.06 89.45 529.42 88.53 C 531.44 87.40 533.68 86.71 535.90 86.03 C 537.13 89.87 537.97 93.82 538.30 97.84 C 535.72 97.85 533.14 97.84 530.56 97.78 C 530.48 96.11 530.41 94.45 530.35 92.78 C 529.96 93.02 529.17 93.50 528.78 93.74 C 528.75 95.11 528.79 96.47 528.92 97.84 C 526.18 97.85 523.44 97.85 520.70 97.81 C 520.32 93.43 518.14 89.64 516.01 85.92 Z" />
<path fill="#ffffff" d=" M 464.08 86.02 C 466.40 86.67 468.67 87.51 470.94 88.35 C 470.46 91.54 469.74 94.69 469.19 97.87 C 466.69 97.85 464.20 97.84 461.71 97.84 C 462.01 93.81 462.89 89.87 464.08 86.02 Z" />
<path fill="#ffffff" d=" M 491.09 101.94 C 489.65 97.19 493.02 92.05 497.67 90.82 C 497.68 96.83 497.95 102.84 497.49 108.84 C 494.70 107.33 491.85 105.20 491.09 101.94 Z" />
<path fill="#ffffff" d=" M 502.48 90.89 C 507.09 92.13 510.30 97.28 508.90 101.95 C 508.15 105.16 505.36 107.30 502.60 108.78 C 502.29 102.82 502.47 96.85 502.48 90.89 Z" />
<path fill="#8180ff" d=" M 545.92 93.09 C 559.65 94.17 573.29 96.32 586.93 98.24 C 586.45 103.77 585.62 109.26 584.55 114.70 C 572.42 112.61 560.16 111.28 547.95 109.77 C 546.73 109.50 545.32 109.64 544.27 108.90 C 544.29 103.60 545.60 98.38 545.92 93.09 Z" />
<path fill="#8180ff" d=" M 428.94 101.13 C 439.39 99.18 449.73 96.45 460.36 95.59 C 459.84 101.07 460.47 106.62 462.08 111.88 C 452.58 112.61 443.37 115.04 434.05 116.81 C 397.23 124.90 361.53 138.19 328.45 156.27 C 326.26 157.40 324.24 158.80 322.36 160.39 C 320.33 154.92 316.91 150.07 312.76 146.00 C 348.84 125.11 388.17 109.87 428.94 101.13 Z" />
<path fill="#ffffff" d=" M 461.62 101.54 C 464.14 101.47 466.67 101.46 469.20 101.48 C 469.68 104.68 470.38 107.86 471.00 111.04 C 468.82 111.92 466.64 112.82 464.48 113.75 C 462.80 109.88 462.12 105.70 461.62 101.54 Z" />
<path fill="#ffffff" d=" M 481.07 101.46 C 483.79 101.46 486.52 101.47 489.25 101.49 C 490.21 105.68 493.36 109.19 497.62 110.15 C 497.74 113.00 497.75 115.85 497.69 118.70 C 489.06 117.64 481.51 110.27 481.07 101.46 Z" />
<path fill="#ffffff" d=" M 530.82 101.49 C 533.25 101.47 535.68 101.46 538.11 101.44 C 538.16 105.65 537.10 109.77 535.57 113.67 C 533.43 112.75 531.26 111.88 529.09 111.05 C 529.61 107.85 530.29 104.68 530.82 101.49 Z" />
<path fill="#ffffff" d=" M 470.89 101.51 C 473.67 101.47 476.46 101.46 479.25 101.47 C 479.82 105.98 481.76 110.17 484.52 113.76 C 482.48 115.72 480.57 117.85 478.17 119.37 C 474.10 114.24 471.33 108.10 470.89 101.51 Z" />
<path fill="#ffffff" d=" M 502.52 110.16 C 506.69 109.08 509.80 105.64 510.76 101.48 C 513.50 101.46 516.25 101.46 519.00 101.49 C 518.39 110.23 511.07 117.55 502.48 118.69 C 502.42 115.85 502.42 113.00 502.52 110.16 Z" />
<path fill="#ffffff" d=" M 515.75 113.84 C 518.05 110.00 520.26 106.00 520.75 101.47 C 523.53 101.46 526.31 101.47 529.09 101.51 C 528.61 106.92 526.96 112.29 523.72 116.70 C 522.91 117.43 522.51 119.20 521.15 118.90 C 519.16 117.42 517.57 115.51 515.75 113.84 Z" />
<path fill="#8180ff" d=" M 600.16 117.34 C 601.56 111.99 602.72 106.57 604.46 101.31 C 620.71 105.38 636.70 110.47 652.14 117.00 C 650.16 122.02 648.76 127.39 645.99 132.02 C 636.89 129.08 628.15 125.05 618.93 122.43 C 612.74 120.48 606.40 119.08 600.16 117.34 Z" />
<path fill="#ffffff" d=" M 434.05 116.81 C 443.37 115.04 452.58 112.61 462.08 111.88 C 466.38 125.62 478.66 136.28 492.78 138.92 C 492.77 146.20 492.82 153.48 492.75 160.76 C 475.86 164.02 462.30 179.08 460.81 196.21 C 445.42 199.34 430.13 203.11 415.34 208.43 C 400.70 213.35 386.87 220.30 372.98 226.97 C 362.39 232.76 351.83 238.68 341.92 245.60 C 341.49 245.57 340.64 245.50 340.21 245.47 C 331.26 231.35 321.53 217.73 312.80 203.48 C 324.39 192.88 328.51 174.89 322.36 160.39 C 324.24 158.80 326.26 157.40 328.45 156.27 C 361.53 138.19 397.23 124.90 434.05 116.81 Z" />
<path fill="#ffffff" d=" M 465.18 115.00 C 467.47 114.18 469.72 113.28 472.00 112.42 C 473.25 115.52 475.67 117.96 477.04 120.97 C 475.57 122.78 473.84 124.33 472.17 125.94 C 469.37 122.63 466.48 119.21 465.18 115.00 Z" />
<path fill="#ffffff" d=" M 528.04 112.35 C 530.33 113.20 532.62 114.11 534.92 114.99 C 533.45 119.10 530.73 122.56 527.94 125.85 C 526.21 124.20 524.52 122.52 522.79 120.87 C 524.68 118.12 526.60 115.37 528.04 112.35 Z" />
<path fill="#0018a5" d=" M 245.50 114.67 C 249.04 112.54 253.96 114.68 256.00 117.99 C 260.35 124.69 264.88 131.27 269.14 138.03 C 274.02 136.70 278.87 135.10 283.97 134.88 C 294.50 134.74 305.18 138.57 312.76 146.00 C 316.91 150.07 320.33 154.92 322.36 160.39 C 328.51 174.89 324.39 192.88 312.80 203.48 C 321.53 217.73 331.26 231.35 340.21 245.47 L 339.89 246.92 C 330.46 232.98 321.54 218.67 311.85 204.92 C 308.45 206.93 305.37 209.44 301.77 211.11 C 311.09 225.82 321.16 240.05 330.35 254.84 C 329.89 254.63 329.43 254.41 328.98 254.18 C 319.32 240.28 310.16 226.00 300.84 211.86 C 296.00 213.18 291.12 214.72 286.05 214.74 C 276.57 214.86 267.06 211.51 259.81 205.40 C 255.42 201.67 251.83 197.04 249.30 191.87 C 241.84 176.92 245.50 157.66 257.58 146.22 C 252.62 139.53 248.34 132.36 243.61 125.51 C 241.15 122.26 241.78 116.74 245.50 114.67 Z" />
<path fill="#ffd447" d=" M 245.90 115.84 C 248.43 113.77 251.50 115.88 254.01 116.89 C 258.54 124.37 263.79 131.40 268.26 138.92 C 264.56 140.61 261.17 142.88 258.16 145.61 C 253.39 137.91 248.30 130.41 243.21 122.92 C 243.40 120.35 243.27 117.24 245.90 115.84 Z" />
<path fill="#ffffff" d=" M 480.35 121.28 C 482.30 119.33 484.26 117.39 486.20 115.43 C 489.69 117.85 493.55 119.73 497.77 120.45 C 497.72 123.26 497.72 126.08 497.70 128.90 C 491.28 128.37 485.07 125.66 480.35 121.28 Z" />
<path fill="#ffffff" d=" M 502.40 120.47 C 506.61 119.65 510.50 117.76 513.98 115.28 C 515.93 117.24 517.89 119.19 519.84 121.16 C 515.08 125.52 508.91 128.37 502.45 128.86 C 502.44 126.06 502.44 123.26 502.40 120.47 Z" />
<path fill="#ffffff" d=" M 473.99 127.79 C 475.67 125.99 477.39 124.24 479.07 122.44 C 481.65 124.63 484.52 126.45 487.54 127.98 C 486.59 130.29 485.60 132.59 484.41 134.79 C 480.67 132.88 477.18 130.51 473.99 127.79 Z" />
<path fill="#ffffff" d=" M 512.58 127.95 C 515.59 126.38 518.46 124.55 521.05 122.33 C 522.81 124.05 524.53 125.84 526.11 127.75 C 522.88 130.44 519.43 132.84 515.69 134.73 C 514.59 132.50 513.60 130.21 512.58 127.95 Z" />
<path fill="#8180ff" d=" M 667.49 123.99 C 672.28 125.14 676.53 127.73 681.07 129.55 C 687.06 132.38 693.31 134.73 699.13 137.90 C 703.66 140.57 704.05 147.76 699.92 150.97 C 696.88 153.83 692.20 152.99 688.84 151.19 C 679.66 146.82 670.20 143.05 661.09 138.54 C 663.30 133.73 665.55 128.92 667.49 123.99 Z" />
<path fill="#ffffff" d=" M 488.97 128.64 C 491.83 129.52 494.76 130.17 497.74 130.57 C 497.72 133.01 497.72 135.45 497.71 137.90 C 493.75 137.57 489.85 136.76 486.13 135.36 C 487.08 133.12 488.04 130.89 488.97 128.64 Z" />
<path fill="#ffffff" d=" M 502.43 130.58 C 505.38 130.15 508.30 129.48 511.15 128.57 C 512.14 130.81 513.09 133.07 513.98 135.36 C 510.26 136.69 506.39 137.55 502.46 137.89 C 502.44 135.45 502.44 133.01 502.43 130.58 Z" />
<path fill="#ffffff" d=" M 287.73 138.59 C 291.34 138.90 294.87 139.77 298.31 140.91 C 296.73 145.36 294.56 149.56 292.79 153.94 C 291.10 153.74 289.41 153.51 287.73 153.26 C 287.71 148.37 287.71 143.48 287.73 138.59 Z" />
<path fill="#ffffff" d=" M 272.34 140.84 C 275.72 139.77 279.18 139.04 282.68 138.47 C 283.42 143.01 283.20 147.63 283.05 152.21 C 282.51 154.34 279.60 153.37 278.01 153.99 C 276.31 149.52 274.11 145.28 272.34 140.84 Z" />
<path fill="#ffd447" d=" M 494.08 139.17 C 498.52 139.46 502.97 139.32 507.41 139.42 C 507.59 146.44 507.48 153.46 507.47 160.48 C 502.92 160.20 498.36 160.26 493.82 160.64 C 494.06 153.48 493.52 146.31 494.08 139.17 Z" />
<path fill="#ffffff" d=" M 259.81 149.03 C 262.57 146.38 265.73 144.21 269.04 142.30 C 270.92 146.79 273.05 151.16 274.86 155.68 C 273.41 156.72 271.98 157.78 270.57 158.86 C 266.85 155.74 263.27 152.44 259.81 149.03 Z" />
<path fill="#ffffff" d=" M 301.50 142.86 C 305.25 143.86 308.05 146.69 310.97 149.09 C 307.59 152.39 304.20 155.72 300.44 158.59 C 298.76 158.37 297.46 156.74 295.98 155.92 C 297.50 151.44 299.78 147.27 301.50 142.86 Z" />
<path fill="#ffffff" d=" M 251.51 161.91 C 252.69 158.23 254.91 155.04 257.08 151.89 C 260.94 154.74 264.19 158.32 267.94 161.32 C 267.04 162.90 266.52 164.85 265.04 166.00 C 260.40 165.11 256.08 163.08 251.51 161.91 Z" />
<path fill="#ffffff" d=" M 302.89 161.30 C 306.53 158.31 309.85 154.95 313.52 152.00 C 315.67 155.07 318.18 158.14 318.89 161.92 C 314.33 163.47 309.80 165.19 305.06 166.14 C 304.34 164.52 303.59 162.92 302.89 161.30 Z" />
<path fill="#ffffff" d=" M 268.74 167.41 C 271.35 161.85 276.78 157.44 283.03 156.98 C 283.11 162.52 283.45 168.09 282.77 173.60 C 277.93 176.20 273.16 178.94 268.49 181.84 C 266.89 177.19 266.69 171.95 268.74 167.41 Z" />
<path fill="#ffffff" d=" M 287.70 157.10 C 299.18 157.74 306.68 171.36 302.23 181.70 C 297.43 178.82 292.52 176.11 287.71 173.24 C 287.72 167.86 287.73 162.48 287.70 157.10 Z" />
<path fill="#ffffff" d=" M 475.20 172.67 C 481.10 166.30 489.78 163.21 498.27 162.39 C 498.27 165.49 498.26 168.59 498.39 171.68 C 494.99 172.85 491.31 173.20 488.13 174.96 C 485.97 176.07 484.12 177.67 482.03 178.90 C 479.38 177.32 477.58 174.61 475.20 172.67 Z" />
<path fill="#ffffff" d=" M 503.23 162.43 C 511.52 163.24 519.76 166.40 525.76 172.29 C 524.77 175.11 521.59 176.77 519.77 179.14 C 514.92 175.71 509.60 172.50 503.49 172.26 C 502.51 169.05 503.19 165.71 503.23 162.43 Z" />
<path fill="#ffffff" d=" M 248.71 176.60 C 249.06 172.79 249.32 168.94 250.31 165.23 C 254.76 166.69 259.26 168.02 263.67 169.62 C 263.96 171.49 263.67 173.41 263.65 175.30 C 258.64 175.43 253.73 176.62 248.71 176.60 Z" />
<path fill="#ffffff" d=" M 306.50 169.80 C 311.15 168.30 315.76 166.68 320.45 165.31 C 321.22 169.04 321.64 172.83 321.77 176.64 C 316.80 176.52 311.92 175.40 306.95 175.27 C 306.82 173.44 306.67 171.62 306.50 169.80 Z" />
<path fill="#ffffff" d=" M 463.18 198.22 C 463.42 189.28 467.26 180.77 473.21 174.19 C 475.52 176.36 477.96 178.44 479.93 180.95 C 476.17 185.97 473.03 191.74 473.03 198.19 C 469.74 198.22 466.46 198.22 463.18 198.22 Z" />
<path fill="#ffffff" d=" M 475.36 198.16 C 475.79 185.98 486.27 175.55 498.27 174.41 C 498.29 178.07 498.28 181.72 498.29 185.38 C 491.99 186.57 486.92 191.79 486.01 198.15 C 482.46 198.17 478.91 198.16 475.36 198.16 Z" />
<path fill="#ffffff" d=" M 503.16 185.42 C 503.14 181.73 503.10 178.04 503.28 174.36 C 515.19 175.69 525.56 185.94 525.92 198.10 C 522.30 198.18 518.68 198.18 515.06 198.14 C 514.33 191.85 509.24 186.77 503.16 185.42 Z" />
<path fill="#ffffff" d=" M 521.24 180.91 C 523.43 178.65 525.67 176.43 527.94 174.25 C 533.89 180.78 537.74 189.30 537.94 198.19 C 534.83 198.22 531.73 198.22 528.64 198.23 C 527.88 191.87 525.46 185.77 521.24 180.91 Z" />
<path fill="#ffffff" d=" M 271.01 185.79 C 275.73 183.01 280.54 180.39 285.20 177.53 C 290.21 180.11 295.05 183.01 299.87 185.92 C 296.54 189.57 292.10 192.58 287.02 192.80 C 280.92 193.48 274.57 190.83 271.01 185.79 Z" />
<path fill="#ffffff" d=" M 249.25 180.48 C 254.03 179.52 258.95 179.58 263.73 178.59 C 264.29 180.30 264.70 182.05 265.02 183.82 C 260.85 186.05 256.77 188.46 252.69 190.86 C 251.24 187.51 250.19 184.01 249.25 180.48 Z" />
<path fill="#ffffff" d=" M 306.71 178.70 C 311.33 179.49 316.05 179.46 320.68 180.15 C 321.26 183.83 319.19 187.27 318.06 190.66 C 313.74 188.39 309.56 185.88 305.35 183.43 C 305.80 181.85 306.27 180.28 306.71 178.70 Z" />
<path fill="#ffffff" d=" M 255.11 194.96 C 259.36 192.58 263.46 189.92 267.87 187.83 C 268.91 188.97 269.97 190.08 271.04 191.19 C 268.42 195.16 265.61 199.02 262.69 202.78 C 259.39 201.14 257.40 197.73 255.11 194.96 Z" />
<path fill="#ffffff" d=" M 299.74 191.09 C 300.87 190.07 301.70 188.60 303.16 188.01 C 306.97 189.60 310.43 191.94 314.01 194.00 C 315.66 194.56 314.71 196.08 314.00 196.98 C 312.30 199.18 310.23 201.04 308.21 202.92 C 305.33 199.02 302.34 195.19 299.74 191.09 Z" />
<path fill="#ffffff" d=" M 489.38 195.13 C 490.81 191.28 494.44 188.93 498.24 187.85 C 498.34 195.85 498.24 203.85 498.30 211.85 C 490.87 210.60 486.32 201.98 489.38 195.13 Z" />
<path fill="#ffffff" d=" M 503.20 187.91 C 506.94 189.04 510.41 191.45 511.80 195.25 C 514.77 202.04 510.31 210.11 503.29 211.99 C 503.01 203.97 503.18 195.94 503.20 187.91 Z" />
<path fill="#8180ff" d=" M 245.05 195.14 C 246.42 194.00 247.87 192.94 249.30 191.87 C 251.83 197.04 255.42 201.67 259.81 205.40 C 247.09 215.76 236.43 228.30 225.06 240.05 C 209.71 258.32 195.65 277.71 183.39 298.20 C 178.43 307.69 173.12 317.03 168.89 326.89 C 168.01 328.84 166.85 330.65 165.68 332.44 C 160.90 329.43 155.58 327.25 150.01 326.28 C 155.35 314.69 161.19 303.33 167.21 292.07 C 180.96 269.41 195.91 247.39 213.28 227.32 C 223.55 216.28 233.92 205.33 245.05 195.14 Z" />
<path fill="#8180ff" d=" M 539.69 192.26 C 558.33 193.85 576.72 197.56 594.98 201.54 C 620.53 208.06 644.84 218.72 668.24 230.75 C 687.29 241.49 705.19 254.13 722.11 267.95 C 733.86 278.87 745.55 289.93 755.67 302.41 C 757.92 304.86 759.70 307.90 762.72 309.52 C 756.85 311.79 751.75 315.70 747.64 320.43 C 745.17 315.75 741.03 312.31 737.86 308.14 C 731.55 301.12 724.91 294.38 718.01 287.92 C 714.29 284.34 710.76 280.55 706.61 277.46 C 689.88 264.58 673.11 251.36 653.93 242.27 C 634.11 232.23 613.42 223.86 592.03 217.78 C 574.70 213.67 557.17 210.34 539.43 208.62 C 540.64 203.25 540.79 197.66 539.69 192.26 Z" />
<path fill="#ffffff" d=" M 265.39 205.19 C 268.33 201.36 271.11 197.41 273.97 193.52 C 275.63 194.25 277.29 194.96 278.97 195.64 C 278.25 200.40 277.02 205.07 276.15 209.80 C 272.27 209.07 268.78 207.13 265.39 205.19 Z" />
<path fill="#ffffff" d=" M 292.10 195.32 C 293.67 194.72 295.23 194.08 296.87 193.67 C 299.62 197.16 302.20 200.78 304.75 204.41 C 304.73 204.70 304.69 205.26 304.67 205.55 C 301.58 207.47 298.18 208.89 294.68 209.86 C 293.85 205.01 292.29 200.26 292.10 195.32 Z" />
<path fill="#8180ff" d=" M 415.34 208.43 C 430.13 203.11 445.42 199.34 460.81 196.21 C 460.36 201.76 461.09 207.38 462.85 212.66 C 445.07 216.00 427.73 221.36 410.87 227.86 C 393.87 235.38 376.69 242.80 361.13 253.08 C 357.48 255.55 353.76 257.89 350.20 260.49 L 349.34 261.14 C 346.19 263.72 343.30 266.61 339.92 268.89 C 339.70 269.06 339.25 269.39 339.02 269.56 C 334.63 272.59 330.78 276.31 326.76 279.80 C 319.52 286.17 312.08 292.43 305.99 299.96 C 298.89 307.91 292.24 316.24 285.63 324.61 C 279.89 332.65 274.65 341.03 269.46 349.44 C 265.87 355.26 263.45 361.70 260.04 367.63 C 251.23 361.75 240.25 360.28 229.93 361.86 C 234.58 360.60 239.42 360.70 244.19 360.96 C 247.38 355.40 249.62 349.36 252.96 343.89 C 260.20 331.98 267.87 320.33 276.01 309.02 C 285.88 296.69 295.78 284.24 307.57 273.65 C 313.89 268.31 319.91 262.60 326.42 257.47 C 327.53 256.59 328.47 255.52 328.98 254.18 C 329.43 254.41 329.89 254.63 330.35 254.84 C 332.98 251.57 336.61 249.43 339.89 246.92 L 340.21 245.47 C 340.64 245.50 341.49 245.57 341.92 245.60 C 351.83 238.68 362.39 232.76 372.98 226.97 C 386.87 220.30 400.70 213.35 415.34 208.43 Z" />
<path fill="#ffffff" d=" M 282.65 196.45 C 284.50 196.46 286.37 196.47 288.23 196.49 C 289.14 201.19 290.31 205.85 291.05 210.58 C 287.25 211.39 283.36 211.32 279.56 210.57 C 280.70 205.89 281.58 201.15 282.65 196.45 Z" />
<path fill="#ffffff" d=" M 515.02 201.67 C 518.65 201.59 522.28 201.60 525.91 201.60 C 525.48 213.59 515.11 224.06 503.21 225.05 C 503.13 221.48 503.14 217.90 503.19 214.32 C 509.24 212.99 514.37 207.96 515.02 201.67 Z" />
<path fill="#ffffff" d=" M 463.21 201.69 C 466.48 201.70 469.76 201.69 473.03 201.73 C 473.12 208.12 476.35 213.81 480.05 218.80 C 477.95 220.79 476.11 223.06 473.79 224.81 C 472.53 225.24 471.83 223.67 471.05 222.98 C 466.31 216.92 463.46 209.40 463.21 201.69 Z" />
<path fill="#ffffff" d=" M 475.29 201.63 C 478.87 201.59 482.46 201.60 486.05 201.64 C 486.86 208.11 492.09 213.11 498.32 214.49 C 498.26 217.96 498.27 221.43 498.31 224.90 C 486.20 224.40 476.06 213.54 475.29 201.63 Z" />
<path fill="#ffffff" d=" M 528.65 201.69 C 531.73 201.70 534.80 201.70 537.88 201.69 C 537.50 210.27 534.37 219.45 527.66 225.10 C 525.51 222.87 523.32 220.69 521.28 218.36 C 525.62 213.83 527.67 207.77 528.65 201.69 Z" />
<path fill="#ffd447" d=" M 301.77 211.11 C 305.37 209.44 308.45 206.93 311.85 204.92 C 321.54 218.67 330.46 232.98 339.89 246.92 C 336.61 249.43 332.98 251.57 330.35 254.84 C 321.16 240.05 311.09 225.82 301.77 211.11 Z" />
<path fill="#ffffff" d=" M 225.06 240.05 C 236.43 228.30 247.09 215.76 259.81 205.40 C 267.06 211.51 276.57 214.86 286.05 214.74 C 291.12 214.72 296.00 213.18 300.84 211.86 C 310.16 226.00 319.32 240.28 328.98 254.18 C 328.47 255.52 327.53 256.59 326.42 257.47 C 319.91 262.60 313.89 268.31 307.57 273.65 C 295.78 284.24 285.88 296.69 276.01 309.02 C 267.87 320.33 260.20 331.98 252.96 343.89 C 249.62 349.36 247.38 355.40 244.19 360.96 C 239.42 360.70 234.58 360.60 229.93 361.86 C 219.07 364.05 209.68 371.17 203.77 380.43 C 196.78 377.73 189.71 375.21 182.76 372.41 C 185.73 357.18 178.42 341.04 165.68 332.44 C 166.85 330.65 168.01 328.84 168.89 326.89 C 173.12 317.03 178.43 307.69 183.39 298.20 C 195.65 277.71 209.71 258.32 225.06 240.05 Z" />
<path fill="#ffffff" d=" M 539.43 208.62 C 557.17 210.34 574.70 213.67 592.03 217.78 C 613.42 223.86 634.11 232.23 653.93 242.27 C 673.11 251.36 689.88 264.58 706.61 277.46 C 710.76 280.55 714.29 284.34 718.01 287.92 C 724.91 294.38 731.55 301.12 737.86 308.14 C 741.03 312.31 745.17 315.75 747.64 320.43 C 738.17 331.06 735.73 346.83 740.45 360.12 C 724.91 368.37 709.58 377.01 694.16 385.47 C 686.64 376.44 680.24 366.46 671.89 358.11 C 660.59 347.34 649.28 336.32 635.88 328.16 C 619.39 316.86 601.06 308.47 582.30 301.72 C 568.32 296.68 553.49 295.02 538.94 292.49 C 536.01 277.02 522.86 264.57 507.58 261.41 C 507.67 254.05 507.69 246.70 507.57 239.34 C 511.53 238.20 515.53 237.07 519.19 235.12 C 529.29 229.71 537.02 219.88 539.43 208.62 Z" />
<path fill="#ffffff" d=" M 410.87 227.86 C 427.73 221.36 445.07 216.00 462.85 212.66 C 467.21 225.93 479.08 236.24 492.74 239.00 C 492.82 246.45 492.77 253.90 492.78 261.35 C 486.79 262.85 480.86 265.03 476.00 268.94 C 466.64 275.96 460.68 287.19 460.15 298.89 C 439.14 304.65 419.20 313.99 401.17 326.19 C 399.34 327.29 397.57 329.04 395.26 328.69 C 380.35 305.88 365.24 283.21 350.20 260.49 C 353.76 257.89 357.48 255.55 361.13 253.08 C 376.69 242.80 393.87 235.38 410.87 227.86 Z" />
<path fill="#ffffff" d=" M 475.02 227.14 C 477.25 224.82 479.55 222.57 481.84 220.30 C 486.43 224.26 492.15 227.05 498.26 227.45 C 497.92 230.68 499.12 234.41 497.60 237.32 C 489.25 236.48 481.02 233.13 475.02 227.14 Z" />
<path fill="#ffffff" d=" M 503.17 227.44 C 509.18 226.98 514.93 224.38 519.35 220.30 C 521.63 222.49 524.10 224.53 526.01 227.07 C 520.15 233.22 511.64 236.82 503.17 237.00 C 503.15 233.81 503.15 230.63 503.17 227.44 Z" />
<path fill="#ffd447" d=" M 494.31 261.45 C 493.38 254.10 493.63 246.54 494.24 239.16 C 498.32 239.93 502.49 239.87 506.58 239.26 C 506.44 246.66 506.49 254.07 506.55 261.47 C 502.54 260.40 498.29 260.06 494.31 261.45 Z" />
<path fill="#ffd447" d=" M 339.92 268.89 C 343.30 266.61 346.19 263.72 349.34 261.14 C 364.51 284.20 379.71 307.24 395.04 330.19 C 391.96 332.89 388.70 335.36 385.53 337.95 C 370.37 314.90 355.05 291.96 339.92 268.89 Z" />
<path fill="#0018a5" d=" M 349.34 261.14 L 350.20 260.49 C 365.24 283.21 380.35 305.88 395.26 328.69 C 395.20 329.19 395.12 329.69 395.04 330.19 C 379.71 307.24 364.51 284.20 349.34 261.14 Z" />
<path fill="#ffffff" d=" M 476.27 273.33 C 482.17 268.10 489.85 264.93 497.73 264.49 C 497.65 269.27 497.89 274.06 497.63 278.84 C 487.60 280.34 479.18 288.60 478.21 298.82 C 473.33 298.84 468.44 299.03 463.57 298.65 C 464.51 289.01 468.80 279.63 476.27 273.33 Z" />
<path fill="#ffffff" d=" M 502.44 264.50 C 515.13 265.18 526.91 273.27 532.50 284.60 C 534.85 288.94 535.64 293.86 536.43 298.66 C 531.60 298.96 526.76 298.95 521.93 298.78 C 520.60 288.85 512.66 280.12 502.50 279.07 C 502.40 274.21 502.45 269.35 502.44 264.50 Z" />
<path fill="#0018a5" d=" M 339.02 269.56 C 339.25 269.39 339.70 269.06 339.92 268.89 C 355.05 291.96 370.37 314.90 385.53 337.95 L 384.78 338.53 C 369.24 315.74 354.20 292.59 339.02 269.56 Z" />
<path fill="#ffffff" d=" M 326.76 279.80 C 330.78 276.31 334.63 272.59 339.02 269.56 C 354.20 292.59 369.24 315.74 384.78 338.53 C 373.63 348.36 362.42 358.49 354.29 371.08 C 350.05 377.56 345.51 383.84 341.44 390.44 C 334.45 401.60 329.56 413.94 325.60 426.47 C 309.51 420.34 293.40 414.27 277.27 408.22 C 278.59 399.80 277.68 390.92 273.76 383.29 C 270.71 376.94 265.69 371.73 260.04 367.63 C 263.45 361.70 265.87 355.26 269.46 349.44 C 274.65 341.03 279.89 332.65 285.63 324.61 C 292.24 316.24 298.89 307.91 305.99 299.96 C 312.08 292.43 319.52 286.17 326.76 279.80 Z" />
<path fill="#0018a5" d=" M 894.45 275.29 C 897.77 273.77 902.94 273.15 904.91 277.03 C 907.46 280.27 906.35 285.11 902.90 287.18 C 874.00 303.04 845.16 319.00 816.22 334.78 C 820.62 349.73 815.61 366.93 803.42 376.75 C 799.42 380.17 794.70 382.65 789.73 384.30 C 789.60 384.34 789.33 384.42 789.20 384.46 C 774.58 389.11 757.79 383.90 747.84 372.38 C 732.61 380.78 717.45 389.32 702.08 397.44 C 701.79 397.31 701.23 397.04 700.95 396.91 C 716.29 388.35 731.82 380.12 747.06 371.40 C 744.52 368.30 742.45 364.85 740.96 361.13 C 725.42 369.32 710.25 378.21 694.66 386.30 L 694.16 385.47 C 709.58 377.01 724.91 368.37 740.45 360.12 C 735.73 346.83 738.17 331.06 747.64 320.43 C 751.75 315.70 756.85 311.79 762.72 309.52 C 774.00 304.42 787.57 305.66 798.14 311.92 C 802.69 314.36 806.06 318.33 809.77 321.82 C 838.03 306.38 866.22 290.79 894.45 275.29 Z" />
<path fill="#ffd447" d=" M 889.54 279.30 C 893.34 277.16 897.54 274.40 902.12 275.61 C 903.91 277.20 905.41 279.63 905.20 282.09 C 904.28 286.03 900.09 287.30 897.00 289.10 C 869.92 304.05 842.75 318.83 815.72 333.87 C 814.29 330.00 812.51 326.26 810.16 322.86 C 836.71 308.50 863.08 293.81 889.54 279.30 Z" />
<path fill="#ffffff" d=" M 482.26 296.86 C 483.73 289.40 490.28 283.91 497.58 282.47 C 497.87 294.56 497.72 306.66 497.66 318.75 C 487.57 317.50 479.72 306.85 482.26 296.86 Z" />
<path fill="#ffffff" d=" M 502.43 282.99 C 512.47 283.53 520.02 294.44 517.83 304.07 C 516.47 311.56 510.00 317.64 502.48 318.71 C 502.39 306.80 502.48 294.90 502.43 282.99 Z" />
<path fill="#8180ff" d=" M 538.94 292.49 C 553.49 295.02 568.32 296.68 582.30 301.72 C 601.06 308.47 619.39 316.86 635.88 328.16 C 649.28 336.32 660.59 347.34 671.89 358.11 C 680.24 366.46 686.64 376.44 694.16 385.47 L 694.66 386.30 C 696.82 389.80 698.75 393.43 700.95 396.91 C 701.23 397.04 701.79 397.31 702.08 397.44 C 704.94 404.69 709.77 410.94 712.84 418.08 C 719.10 433.46 725.51 448.96 728.45 465.38 C 730.84 476.48 732.61 487.72 733.92 499.00 C 736.05 522.03 733.18 545.21 728.45 567.75 C 723.40 564.92 717.75 563.32 712.01 562.70 C 714.30 552.26 716.16 541.69 716.57 530.99 C 716.69 523.31 718.17 515.66 717.19 507.98 C 715.78 484.51 711.50 461.03 702.70 439.15 C 699.61 431.72 697.15 423.97 693.00 417.03 C 690.93 413.40 689.02 409.66 686.72 406.16 C 686.55 405.91 686.22 405.41 686.05 405.16 C 683.54 401.87 681.66 398.15 679.01 394.98 L 677.29 394.82 C 677.49 394.38 677.89 393.49 678.08 393.05 C 672.13 385.04 666.19 376.96 659.10 369.91 C 653.30 364.35 647.70 358.56 641.45 353.50 C 633.51 347.04 625.67 340.30 616.54 335.54 C 592.59 322.33 566.59 311.53 539.03 309.44 C 538.66 310.62 538.28 311.80 537.90 312.98 C 539.89 306.36 540.44 299.27 538.94 292.49 Z" />
<path fill="#8180ff" d=" M 401.17 326.19 C 419.20 313.99 439.14 304.65 460.15 298.89 C 460.07 304.52 460.89 310.20 462.99 315.45 C 447.06 320.03 431.75 326.78 417.56 335.34 C 413.27 337.85 409.56 341.21 405.36 343.86 C 405.11 344.03 404.60 344.37 404.35 344.54 C 401.30 346.83 398.35 349.24 395.32 351.55 C 394.92 352.08 394.56 352.63 394.19 353.18 C 384.97 361.61 375.83 370.26 368.37 380.34 C 361.74 390.17 354.75 399.88 350.00 410.81 C 346.65 417.79 344.25 425.16 341.69 432.45 C 341.58 432.74 341.38 433.30 341.28 433.58 C 339.85 437.40 338.99 441.39 337.87 445.31 C 337.79 445.60 337.65 446.18 337.58 446.48 C 332.78 468.17 331.45 490.97 335.79 512.86 C 337.35 523.09 339.56 533.28 343.81 542.77 C 344.33 542.71 345.37 542.59 345.90 542.52 C 345.08 543.35 344.29 544.21 343.53 545.10 C 343.83 545.22 344.43 545.46 344.73 545.58 C 346.29 548.83 347.32 552.31 349.02 555.50 C 349.16 555.76 349.45 556.28 349.60 556.54 C 352.95 562.74 356.12 569.09 360.17 574.89 C 369.48 587.46 379.48 599.72 391.94 609.32 C 387.72 613.65 384.40 618.87 382.53 624.64 C 378.62 620.13 373.63 616.78 369.46 612.54 C 354.53 597.87 342.23 580.58 333.07 561.76 L 332.70 561.05 C 330.76 557.39 329.39 553.47 327.64 549.73 C 327.42 549.57 326.99 549.25 326.77 549.09 C 326.44 543.47 323.24 538.57 322.34 533.06 C 318.80 515.25 314.92 497.24 315.83 478.98 C 316.98 466.08 318.16 453.13 321.57 440.59 C 321.64 440.28 321.78 439.65 321.85 439.34 C 322.52 435.32 323.78 431.45 325.24 427.65 C 325.33 427.36 325.51 426.77 325.60 426.47 C 329.56 413.94 334.45 401.60 341.44 390.44 C 345.51 383.84 350.05 377.56 354.29 371.08 C 362.42 358.49 373.63 348.36 384.78 338.53 L 385.53 337.95 C 388.70 335.36 391.96 332.89 395.04 330.19 C 395.12 329.69 395.20 329.19 395.26 328.69 C 397.57 329.04 399.34 327.29 401.17 326.19 Z" />
<path fill="#ffffff" d=" M 463.66 302.53 C 468.49 302.47 473.33 302.48 478.16 302.52 C 479.26 312.66 487.60 321.24 497.75 322.47 C 497.71 327.24 497.72 332.01 497.74 336.79 C 485.44 336.34 473.88 328.70 468.11 317.92 C 465.33 313.25 464.34 307.85 463.66 302.53 Z" />
<path fill="#ffffff" d=" M 521.84 302.51 C 526.68 302.49 531.51 302.47 536.34 302.53 C 535.52 320.25 520.34 336.19 502.43 336.76 C 502.45 331.99 502.46 327.23 502.42 322.47 C 512.50 321.14 520.75 312.61 521.84 302.51 Z" />
<path fill="#ffffff" d=" M 539.03 309.44 C 566.59 311.53 592.59 322.33 616.54 335.54 C 625.67 340.30 633.51 347.04 641.45 353.50 C 647.70 358.56 653.30 364.35 659.10 369.91 C 666.19 376.96 672.13 385.04 678.08 393.05 C 677.89 393.49 677.49 394.38 677.29 394.82 C 653.41 407.65 629.81 421.03 605.93 433.86 L 605.33 433.23 C 600.75 427.64 595.60 422.56 590.13 417.86 C 581.68 411.45 572.45 406.17 563.21 401.01 C 555.68 397.61 547.69 395.38 539.70 393.35 C 539.51 392.78 539.12 391.62 538.92 391.05 C 535.61 375.81 522.73 363.71 507.62 360.44 C 507.68 353.58 507.60 346.71 507.67 339.85 C 521.58 337.10 533.64 326.54 537.90 312.98 C 538.28 311.80 538.66 310.62 539.03 309.44 Z" />
<path fill="#ffffff" d=" M 756.16 317.11 C 761.90 313.16 768.60 310.28 775.65 310.13 C 775.64 314.90 775.63 319.67 775.66 324.44 C 771.99 325.17 768.53 326.60 765.16 328.18 C 762.31 324.36 759.00 320.92 756.16 317.11 Z" />
<path fill="#ffffff" d=" M 780.38 310.16 C 787.38 310.44 794.36 313.05 799.77 317.52 C 796.56 321.12 793.59 324.94 790.33 328.50 C 787.40 326.31 783.90 325.22 780.37 324.48 C 780.40 319.70 780.39 314.93 780.38 310.16 Z" />
<path fill="#ffffff" d=" M 417.56 335.34 C 431.75 326.78 447.06 320.03 462.99 315.45 C 466.80 325.02 474.50 332.98 483.92 337.15 C 486.72 338.41 489.77 338.96 492.62 340.10 C 493.04 346.84 492.63 353.62 492.80 360.38 C 485.22 362.25 477.83 365.56 472.32 371.24 C 463.52 379.49 459.08 391.94 460.37 403.91 C 460.38 404.38 460.41 405.33 460.43 405.81 C 457.32 408.18 453.98 410.22 450.84 412.55 C 435.65 389.68 420.55 366.74 405.36 343.86 C 409.56 341.21 413.27 337.85 417.56 335.34 Z" />
<path fill="#ffffff" d=" M 742.54 338.10 C 744.20 331.25 747.71 324.66 753.08 320.02 C 756.96 322.73 759.45 327.25 762.64 330.78 C 760.00 333.55 757.99 336.88 756.90 340.55 C 752.10 339.79 747.34 338.85 742.54 338.10 Z" />
<path fill="#ffffff" d=" M 802.33 319.82 C 808.02 324.30 811.56 331.14 813.22 338.10 C 808.45 338.92 803.69 339.80 798.93 340.62 C 797.82 336.94 795.89 333.59 793.22 330.83 C 796.24 327.14 799.40 323.58 802.33 319.82 Z" />
<path fill="#0018a5" d=" M 109.37 344.83 C 117.80 331.44 134.26 323.30 150.01 326.28 C 155.58 327.25 160.90 329.43 165.68 332.44 C 178.42 341.04 185.73 357.18 182.76 372.41 C 189.71 375.21 196.78 377.73 203.77 380.43 C 209.68 371.17 219.07 364.05 229.93 361.86 C 240.25 360.28 251.23 361.75 260.04 367.63 C 265.69 371.73 270.71 376.94 273.76 383.29 C 277.68 390.92 278.59 399.80 277.27 408.22 C 293.40 414.27 309.51 420.34 325.60 426.47 C 325.51 426.77 325.33 427.36 325.24 427.65 C 309.21 421.39 293.04 415.48 276.97 409.32 C 276.08 413.34 274.67 417.21 272.91 420.93 C 289.30 426.86 305.53 433.20 321.85 439.34 C 321.78 439.65 321.64 440.28 321.57 440.59 C 305.19 434.06 288.54 428.21 272.17 421.66 C 264.64 433.61 250.89 441.43 236.66 440.79 C 231.00 440.45 225.41 439.07 220.29 436.64 C 210.23 431.46 202.29 422.05 199.49 411.02 C 197.95 405.44 197.96 399.58 198.68 393.87 C 191.67 391.45 184.81 388.61 177.81 386.12 C 171.20 396.41 160.29 403.95 148.01 405.26 C 140.19 406.00 132.17 404.58 125.19 400.96 C 109.82 393.20 100.90 374.96 104.24 358.04 C 95.21 355.06 86.44 351.36 77.51 348.13 C 74.04 346.73 69.91 345.75 67.70 342.46 C 66.67 339.16 67.43 334.45 70.78 332.73 C 73.90 331.65 77.28 332.51 80.23 333.71 C 89.92 337.49 99.71 340.99 109.37 344.83 Z" />
<path fill="#ffffff" d=" M 760.06 342.96 C 761.38 335.38 768.00 329.18 775.62 328.23 C 775.62 333.47 775.72 338.71 775.62 343.95 C 775.88 345.34 774.12 345.63 773.32 346.32 C 769.19 348.61 765.20 351.15 760.95 353.21 C 760.08 349.88 759.21 346.38 760.06 342.96 Z" />
<path fill="#ffffff" d=" M 780.41 328.26 C 787.97 329.29 794.53 335.49 795.74 343.08 C 796.66 346.41 795.62 349.82 794.93 353.09 C 789.93 350.79 785.41 347.60 780.49 345.15 C 780.29 339.52 780.41 333.89 780.41 328.26 Z" />
<path fill="#ffffff" d=" M 129.71 331.92 C 133.44 330.63 137.28 329.65 141.24 329.44 C 141.16 334.05 141.40 338.66 141.16 343.27 C 140.18 344.97 137.50 344.40 135.81 345.12 C 133.72 340.75 131.43 336.46 129.71 331.92 Z" />
<path fill="#ffffff" d=" M 145.84 329.50 C 149.89 329.61 153.78 330.74 157.61 331.97 C 155.70 336.25 153.73 340.51 151.58 344.68 C 149.73 344.88 147.07 344.90 145.92 343.17 C 145.69 338.62 145.92 334.05 145.84 329.50 Z" />
<path fill="#ffd447" d=" M 69.68 334.65 C 72.20 333.21 75.25 333.00 77.94 334.11 C 88.24 338.06 98.55 341.98 108.91 345.80 C 107.12 349.38 105.21 352.99 104.62 357.01 C 95.22 353.71 85.97 349.96 76.61 346.54 C 73.76 345.52 70.85 344.29 68.73 342.05 C 67.79 339.54 68.98 337.03 69.68 334.65 Z" />
<path fill="#ffffff" d=" M 116.41 341.58 C 119.22 338.71 122.12 335.63 125.91 334.12 L 126.61 334.35 C 128.71 338.43 130.57 342.63 132.54 346.78 C 130.91 347.97 129.34 349.24 127.80 350.55 C 123.98 347.59 120.25 344.52 116.41 341.58 Z" />
<path fill="#ffffff" d=" M 160.94 333.80 C 164.60 335.83 167.89 338.49 170.64 341.66 C 166.81 344.61 163.12 347.74 159.22 350.59 C 157.73 349.30 156.22 348.04 154.67 346.83 C 156.74 342.48 158.82 338.13 160.94 333.80 Z" />
<path fill="#ffd447" d=" M 493.67 340.36 C 497.94 340.13 502.22 340.44 506.49 340.05 C 506.53 346.89 506.49 353.73 506.52 360.57 C 502.40 360.24 498.27 360.21 494.15 360.51 C 493.68 356.35 493.75 352.16 493.88 347.99 C 493.84 345.45 493.78 342.90 493.67 340.36 Z" />
<path fill="#ffffff" d=" M 741.83 341.66 C 746.59 342.34 751.31 343.37 756.10 343.93 C 756.12 347.74 756.56 351.55 757.90 355.15 C 753.63 357.51 749.63 360.41 745.07 362.18 C 742.59 355.67 740.82 348.65 741.83 341.66 Z" />
<path fill="#ffffff" d=" M 799.54 344.27 C 804.18 343.15 808.95 342.70 813.58 341.55 C 815.38 348.42 813.21 355.61 810.75 362.05 C 806.18 360.34 802.23 357.37 797.95 355.08 C 799.11 351.59 799.84 347.96 799.54 344.27 Z" />
<path fill="#0018a5" d=" M 404.35 344.54 C 404.60 344.37 405.11 344.03 405.36 343.86 C 420.55 366.74 435.65 389.68 450.84 412.55 C 450.62 412.73 450.16 413.09 449.94 413.27 C 434.68 390.40 419.69 367.36 404.35 344.54 Z" />
<path fill="#ffffff" d=" M 108.84 355.77 C 109.48 351.52 111.91 347.92 114.02 344.29 C 117.88 347.25 121.72 350.26 125.46 353.39 C 124.51 355.14 123.66 356.94 122.89 358.77 C 118.16 357.99 113.53 356.73 108.84 355.77 Z" />
<path fill="#ffffff" d=" M 161.82 353.18 C 165.70 350.67 168.81 347.05 172.94 344.94 C 175.82 347.73 176.94 351.90 178.56 355.49 C 173.79 356.92 168.92 358.02 164.00 358.78 C 163.31 356.90 162.55 355.04 161.82 353.18 Z" />
<path fill="#ffd447" d=" M 395.32 351.55 C 398.35 349.24 401.30 346.83 404.35 344.54 C 419.69 367.36 434.68 390.40 449.94 413.27 C 446.85 415.98 444.00 418.95 440.87 421.61 C 426.23 399.41 411.57 377.22 396.84 355.08 C 396.12 354.00 395.59 352.81 395.32 351.55 Z" />
<path fill="#ffffff" d=" M 131.26 352.28 C 133.95 349.61 137.60 348.30 141.22 347.48 C 141.27 359.53 141.25 371.60 141.23 383.66 C 135.09 382.76 129.47 378.75 126.98 373.03 C 123.64 366.14 125.57 357.33 131.26 352.28 Z" />
<path fill="#ffffff" d=" M 145.85 360.99 C 145.98 356.46 145.41 351.87 146.38 347.41 C 150.65 348.72 154.95 350.65 157.69 354.34 C 162.57 360.22 162.99 369.24 158.66 375.54 C 155.97 379.93 151.18 382.51 146.30 383.74 C 145.30 376.21 146.09 368.57 145.85 360.99 Z" />
<path fill="#ffffff" d=" M 763.78 357.21 C 768.65 354.80 773.10 351.59 778.03 349.30 C 782.91 351.61 787.35 354.75 792.17 357.20 C 785.87 366.65 769.99 366.81 763.78 357.21 Z" />
<path fill="#0018a5" d=" M 394.19 353.18 C 394.56 352.63 394.92 352.08 395.32 351.55 C 395.59 352.81 396.12 354.00 396.84 355.08 C 411.57 377.22 426.23 399.41 440.87 421.61 C 440.66 421.80 440.25 422.17 440.04 422.36 C 424.71 399.33 409.56 376.18 394.19 353.18 Z" />
<path fill="#ffffff" d=" M 368.37 380.34 C 375.83 370.26 384.97 361.61 394.19 353.18 C 409.56 376.18 424.71 399.33 440.04 422.36 C 434.96 427.33 431.37 433.56 427.61 439.53 C 423.67 446.45 419.74 453.62 418.47 461.59 C 392.92 451.75 367.23 442.30 341.69 432.45 C 344.25 425.16 346.65 417.79 350.00 410.81 C 354.75 399.88 361.74 390.17 368.37 380.34 Z" />
<path fill="#ffffff" d=" M 107.74 359.18 C 112.46 360.13 117.14 361.33 121.84 362.41 C 121.81 364.47 121.80 366.53 121.79 368.60 C 117.13 369.77 112.43 370.81 107.71 371.80 C 107.15 367.60 107.18 363.38 107.74 359.18 Z" />
<path fill="#ffffff" d=" M 165.17 362.43 C 169.87 361.36 174.56 360.25 179.26 359.18 C 179.84 363.36 179.87 367.58 179.30 371.77 C 174.60 370.74 169.89 369.75 165.23 368.54 C 165.21 366.50 165.19 364.46 165.17 362.43 Z" />
<path fill="#ffffff" d=" M 747.93 366.46 C 752.06 364.07 756.24 361.78 760.29 359.25 C 762.74 361.96 765.51 364.40 768.81 366.02 C 767.31 370.60 765.47 375.05 763.98 379.63 C 757.43 377.09 751.79 372.31 747.93 366.46 Z" />
<path fill="#ffffff" d=" M 787.24 365.91 C 790.32 364.24 793.21 362.14 795.25 359.24 C 799.60 361.44 803.76 364.00 807.98 366.45 C 803.98 372.14 798.56 377.01 792.02 379.56 C 790.48 374.99 788.67 370.51 787.24 365.91 Z" />
<path fill="#ffd447" d=" M 694.66 386.30 C 710.25 378.21 725.42 369.32 740.96 361.13 C 742.45 364.85 744.52 368.30 747.06 371.40 C 731.82 380.12 716.29 388.35 700.95 396.91 C 698.75 393.43 696.82 389.80 694.66 386.30 Z" />
<path fill="#ffffff" d=" M 465.42 393.95 C 467.80 378.47 481.86 365.24 497.73 365.03 C 497.68 388.28 497.82 411.53 497.66 434.78 C 489.58 434.23 481.71 430.84 475.90 425.17 C 467.49 417.39 463.33 405.23 465.42 393.95 Z" />
<path fill="#ffffff" d=" M 502.43 365.06 C 521.52 365.26 537.26 384.37 534.91 403.11 C 533.66 419.66 519.07 433.98 502.45 434.71 C 502.42 411.49 502.47 388.28 502.43 365.06 Z" />
<path fill="#ffffff" d=" M 212.09 377.12 C 218.40 370.89 226.70 366.18 235.75 366.07 C 235.72 376.04 235.82 386.02 235.70 395.99 C 227.81 389.71 219.91 383.46 212.09 377.12 Z" />
<path fill="#ffffff" d=" M 240.41 366.20 C 249.41 366.16 258.00 370.83 263.99 377.37 C 256.14 383.56 248.36 389.84 240.53 396.05 C 240.36 386.10 240.58 376.15 240.41 366.20 Z" />
<path fill="#ffffff" d=" M 772.07 367.46 C 776.03 367.91 780.02 367.88 783.99 367.42 C 785.30 372.06 787.34 376.46 788.66 381.11 C 781.67 382.91 774.40 383.03 767.41 381.16 C 768.60 376.47 770.67 372.08 772.07 367.46 Z" />
<path fill="#ffffff" d=" M 109.00 375.14 C 113.62 374.32 118.15 373.03 122.78 372.20 C 123.59 374.10 124.44 376.00 125.27 377.91 C 121.43 380.78 117.76 383.88 113.96 386.81 C 111.90 383.12 109.15 379.53 109.00 375.14 Z" />
<path fill="#ffffff" d=" M 164.28 372.14 C 169.07 373.15 173.90 374.07 178.57 375.55 C 177.22 379.50 175.31 383.22 173.08 386.74 C 169.38 383.70 165.65 380.71 161.83 377.81 C 162.63 375.91 163.46 374.03 164.28 372.14 Z" />
<path fill="#ffffff" d=" M 702.08 397.44 C 717.45 389.32 732.61 380.78 747.84 372.38 C 757.79 383.90 774.58 389.11 789.20 384.46 C 789.33 384.42 789.60 384.34 789.73 384.30 C 789.51 384.57 789.07 385.12 788.85 385.39 C 790.26 390.23 792.51 394.76 794.50 399.38 C 805.81 428.21 813.43 458.58 815.80 489.50 C 816.97 498.27 816.55 507.14 817.43 515.94 C 816.85 546.40 812.53 576.82 804.10 606.13 C 789.89 604.40 775.22 610.96 766.74 622.46 C 760.36 619.44 754.00 616.37 747.70 613.20 L 747.27 614.32 C 746.89 615.26 746.53 616.21 746.16 617.16 C 749.18 608.87 749.78 599.66 747.21 591.17 C 744.30 581.32 737.39 572.77 728.45 567.75 C 733.18 545.21 736.05 522.03 733.92 499.00 C 732.61 487.72 730.84 476.48 728.45 465.38 C 725.51 448.96 719.10 433.46 712.84 418.08 C 709.77 410.94 704.94 404.69 702.08 397.44 Z" />
<path fill="#ffd447" d=" M 182.33 373.90 C 189.35 375.72 195.81 379.19 202.83 381.03 C 202.34 385.15 199.62 388.61 199.17 392.77 C 192.11 390.44 185.30 387.42 178.24 385.10 C 180.00 381.52 181.56 377.83 182.33 373.90 Z" />
<path fill="#8180ff" d=" M 789.73 384.30 C 794.70 382.65 799.42 380.17 803.42 376.75 C 814.17 399.77 822.18 424.09 827.00 449.04 C 832.05 471.99 834.34 495.49 834.61 518.96 C 833.91 550.33 828.60 581.46 820.48 611.72 C 815.48 608.72 809.84 606.97 804.10 606.13 C 812.53 576.82 816.85 546.40 817.43 515.94 C 816.55 507.14 816.97 498.27 815.80 489.50 C 813.43 458.58 805.81 428.21 794.50 399.38 C 792.51 394.76 790.26 390.23 788.85 385.39 C 789.07 385.12 789.51 384.57 789.73 384.30 Z" />
<path fill="#ffffff" d=" M 116.30 389.75 C 119.78 386.78 123.24 383.72 127.07 381.21 C 129.16 380.97 130.65 383.40 132.46 384.25 C 130.50 388.74 128.38 393.15 126.13 397.50 C 122.48 395.42 119.33 392.64 116.30 389.75 Z" />
<path fill="#ffffff" d=" M 154.76 384.18 C 156.45 382.99 158.09 381.73 159.72 380.47 C 163.26 383.72 167.34 386.34 170.76 389.73 C 167.73 392.55 164.70 395.43 160.96 397.30 C 158.88 392.93 156.63 388.64 154.76 384.18 Z" />
<path fill="#ffffff" d=" M 203.42 406.52 C 201.81 397.68 204.22 388.53 209.01 381.03 C 216.98 386.97 224.59 393.38 232.41 399.51 C 222.95 402.54 213.02 403.95 203.42 406.52 Z" />
<path fill="#ffffff" d=" M 243.84 399.60 C 251.53 393.36 259.29 387.20 267.07 381.07 C 271.87 388.51 274.28 397.68 272.62 406.47 C 263.08 403.95 253.29 402.42 243.84 399.60 Z" />
<path fill="#ffffff" d=" M 135.64 386.33 C 137.61 386.17 139.46 387.03 141.33 387.52 C 141.18 392.25 141.26 396.99 141.24 401.73 C 137.16 401.61 133.22 400.47 129.39 399.12 C 131.58 394.92 133.39 390.51 135.64 386.33 Z" />
<path fill="#ffffff" d=" M 146.15 387.15 C 147.96 386.87 149.80 386.11 151.64 386.42 C 153.86 390.56 155.73 394.87 157.78 399.10 C 153.91 400.40 149.96 401.66 145.84 401.65 C 145.91 396.82 145.61 391.96 146.15 387.15 Z" />
<path fill="#ffffff" d=" M 148.01 405.26 C 160.29 403.95 171.20 396.41 177.81 386.12 C 184.81 388.61 191.67 391.45 198.68 393.87 C 197.96 399.58 197.95 405.44 199.49 411.02 C 202.29 422.05 210.23 431.46 220.29 436.64 C 217.83 449.00 216.69 461.59 216.20 474.17 C 215.02 483.70 216.50 493.25 216.73 502.80 C 218.25 516.78 219.72 530.81 222.70 544.57 C 224.87 556.45 228.70 567.94 232.77 579.28 C 216.43 584.52 200.22 590.19 183.74 595.00 C 176.63 580.51 160.33 571.41 144.26 572.94 C 141.81 564.39 140.48 555.58 138.68 546.89 C 134.86 520.49 132.34 493.72 134.37 467.06 C 135.30 446.47 137.34 425.87 141.74 405.71 C 143.83 405.57 145.92 405.48 148.01 405.26 Z" />
<path fill="#8180ff" d=" M 538.92 391.05 C 539.12 391.62 539.51 392.78 539.70 393.35 C 547.69 395.38 555.68 397.61 563.21 401.01 C 572.45 406.17 581.68 411.45 590.13 417.86 C 595.60 422.56 600.75 427.64 605.33 433.23 C 605.78 433.76 606.24 434.30 606.70 434.86 C 609.34 437.99 611.48 441.48 613.70 444.92 C 613.85 445.13 614.15 445.57 614.30 445.79 C 618.92 451.86 621.75 458.97 625.11 465.76 C 631.53 481.67 635.33 498.80 634.67 516.02 C 635.39 529.39 632.41 542.58 628.89 555.38 L 628.57 556.31 C 627.54 559.08 626.59 561.90 625.85 564.77 C 623.01 573.61 618.07 581.51 613.52 589.53 C 604.98 603.52 593.65 615.61 581.24 626.25 C 575.24 631.56 567.98 635.07 561.20 639.24 C 556.36 642.24 551.04 644.33 546.11 647.17 L 545.20 647.68 C 541.58 649.65 537.61 650.78 533.64 651.79 L 532.56 652.10 C 528.42 653.33 524.26 654.55 519.99 655.29 C 510.04 657.00 500.14 659.42 489.99 659.48 C 478.28 659.81 466.59 658.57 455.05 656.67 C 457.76 651.85 459.23 646.46 460.09 641.02 C 472.64 642.85 485.38 643.30 498.03 642.43 C 508.14 641.25 518.15 639.20 527.89 636.25 C 527.79 635.45 527.59 633.86 527.49 633.06 C 527.98 633.88 528.50 634.68 529.07 635.47 C 532.99 634.36 536.95 633.25 540.60 631.40 C 541.03 631.15 541.46 630.91 541.90 630.67 C 551.46 625.62 561.35 620.86 569.51 613.63 C 586.17 599.38 601.03 582.00 608.56 561.14 C 608.64 560.92 608.81 560.48 608.90 560.26 C 610.20 556.43 611.63 552.65 612.96 548.84 C 613.03 548.57 613.18 548.05 613.25 547.78 C 615.21 540.31 617.03 532.74 617.43 525.00 C 617.55 514.10 617.87 503.08 615.59 492.35 C 612.24 478.84 607.13 465.64 599.48 453.97 L 598.88 453.13 C 596.53 449.70 593.60 446.71 591.08 443.41 C 590.49 442.67 589.95 441.95 589.34 441.26 C 584.00 435.73 578.71 429.96 572.11 425.89 C 566.70 422.28 561.26 418.66 555.41 415.79 C 549.92 413.51 544.24 411.73 538.52 410.12 C 540.11 403.88 540.13 397.36 538.92 391.05 Z" />
<path fill="#0018a5" d=" M 605.93 433.86 C 629.81 421.03 653.41 407.65 677.29 394.82 L 679.01 394.98 C 655.01 408.44 630.79 421.54 606.70 434.86 C 606.24 434.30 605.78 433.76 605.33 433.23 L 605.93 433.86 Z" />
<path fill="#ffd447" d=" M 679.01 394.98 C 681.66 398.15 683.54 401.87 686.05 405.16 C 661.88 418.32 637.78 431.60 613.70 444.92 C 611.48 441.48 609.34 437.99 606.70 434.86 C 630.79 421.54 655.01 408.44 679.01 394.98 Z" />
<path fill="#8180ff" d=" M 125.19 400.96 C 132.17 404.58 140.19 406.00 148.01 405.26 C 145.92 405.48 143.83 405.57 141.74 405.71 C 137.34 425.87 135.30 446.47 134.37 467.06 C 132.34 493.72 134.86 520.49 138.68 546.89 C 140.48 555.58 141.81 564.39 144.26 572.94 C 138.62 573.81 133.05 575.45 128.07 578.30 C 125.25 568.31 123.79 558.00 121.56 547.88 C 119.79 534.63 117.70 521.39 117.25 508.01 C 116.03 498.38 116.80 488.65 116.56 478.98 C 116.29 473.61 117.42 468.31 117.30 462.96 C 118.03 442.10 121.23 421.42 125.19 400.96 Z" />
<path fill="#8180ff" d=" M 460.37 403.91 C 461.16 410.37 463.32 416.66 466.99 422.06 C 464.69 423.62 462.39 425.20 460.38 427.12 L 459.70 427.78 C 456.71 430.71 453.55 433.48 450.79 436.65 C 450.60 436.86 450.21 437.27 450.02 437.48 C 444.53 442.87 441.27 449.97 437.97 456.80 C 436.28 460.20 435.45 463.92 434.60 467.60 C 434.53 467.90 434.38 468.50 434.30 468.81 C 433.27 472.82 432.43 476.91 432.34 481.07 C 432.34 481.42 432.35 482.12 432.35 482.47 C 432.55 487.28 432.29 492.14 433.16 496.91 C 434.12 502.39 436.52 507.46 438.70 512.53 C 438.82 512.81 439.05 513.36 439.16 513.64 C 440.53 517.44 442.41 521.04 444.66 524.40 L 445.13 525.02 C 445.48 525.04 446.17 525.07 446.51 525.08 C 452.31 531.75 459.31 538.02 467.85 540.79 C 467.73 541.01 467.49 541.45 467.38 541.67 C 467.62 541.73 468.11 541.86 468.35 541.92 C 472.56 543.13 476.77 544.61 481.22 544.59 C 481.53 544.60 482.16 544.62 482.47 544.64 C 482.70 544.25 483.16 543.46 483.39 543.07 L 483.56 544.53 C 491.00 544.52 498.12 542.34 505.16 540.21 C 515.87 538.60 525.69 532.77 532.19 524.11 C 533.65 524.78 535.11 525.45 536.57 526.15 C 532.86 534.95 527.93 543.44 520.34 549.44 C 520.14 549.61 519.75 549.95 519.55 550.12 C 515.97 552.32 512.40 554.57 508.59 556.37 C 508.35 556.48 507.88 556.71 507.64 556.82 C 496.73 560.72 484.93 561.65 473.48 560.11 C 472.80 559.94 471.44 559.61 470.76 559.44 C 470.64 559.40 470.41 559.34 470.29 559.31 C 466.77 558.55 463.47 557.13 460.14 555.84 L 459.72 555.72 C 459.49 555.66 459.03 555.54 458.81 555.49 C 447.15 549.78 436.08 541.93 429.37 530.56 C 428.89 529.85 428.42 529.14 427.97 528.43 C 425.98 525.44 424.50 522.17 422.74 519.05 C 422.61 518.83 422.34 518.39 422.21 518.17 L 422.05 517.90 C 415.93 504.88 414.21 490.26 415.67 476.03 C 415.70 475.72 415.77 475.10 415.80 474.79 C 416.15 470.67 417.11 466.67 418.24 462.71 C 418.29 462.43 418.41 461.87 418.47 461.59 C 419.74 453.62 423.67 446.45 427.61 439.53 C 431.37 433.56 434.96 427.33 440.04 422.36 C 440.25 422.17 440.66 421.80 440.87 421.61 C 444.00 418.95 446.85 415.98 449.94 413.27 C 450.16 413.09 450.62 412.73 450.84 412.55 C 453.98 410.22 457.32 408.18 460.43 405.81 C 460.41 405.33 460.38 404.38 460.37 403.91 Z" />
<path fill="#ffffff" d=" M 204.33 411.36 C 214.06 408.66 224.00 406.81 233.82 404.46 C 229.52 413.40 225.16 422.31 220.93 431.28 C 212.88 427.33 207.45 419.56 204.33 411.36 Z" />
<path fill="#ffffff" d=" M 242.77 404.59 C 252.42 406.58 261.98 409.02 271.64 410.99 C 268.97 419.35 263.36 427.32 255.25 431.08 C 251.29 422.16 246.51 413.61 242.77 404.59 Z" />
<path fill="#0018a5" d=" M 613.70 444.92 C 637.78 431.60 661.88 418.32 686.05 405.16 C 686.22 405.41 686.55 405.91 686.72 406.16 C 662.47 419.15 638.52 432.72 614.30 445.79 C 614.15 445.57 613.85 445.13 613.70 444.92 Z" />
<path fill="#ffffff" d=" M 237.95 406.89 C 240.19 409.93 241.40 413.55 243.15 416.87 C 245.71 422.48 248.74 427.89 251.03 433.63 C 242.73 436.66 233.33 436.99 225.13 433.47 C 229.40 424.61 233.69 415.76 237.95 406.89 Z" />
<path fill="#ffffff" d=" M 614.30 445.79 C 638.52 432.72 662.47 419.15 686.72 406.16 C 689.02 409.66 690.93 413.40 693.00 417.03 C 697.15 423.97 699.61 431.72 702.70 439.15 C 711.50 461.03 715.78 484.51 717.19 507.98 C 718.17 515.66 716.69 523.31 716.57 530.99 C 716.16 541.69 714.30 552.26 712.01 562.70 C 698.54 561.62 685.03 568.01 676.95 578.77 C 660.92 570.99 644.92 563.14 628.89 555.38 C 632.41 542.58 635.39 529.39 634.67 516.02 C 635.33 498.80 631.53 481.67 625.11 465.76 C 621.75 458.97 618.92 451.86 614.30 445.79 Z" />
<path fill="#ffd447" d=" M 276.97 409.32 C 293.04 415.48 309.21 421.39 325.24 427.65 C 323.78 431.45 322.52 435.32 321.85 439.34 C 305.53 433.20 289.30 426.86 272.91 420.93 C 274.67 417.21 276.08 413.34 276.97 409.32 Z" />
<path fill="#ffffff" d=" M 507.94 438.79 C 522.49 436.06 534.73 424.38 538.52 410.12 C 544.24 411.73 549.92 413.51 555.41 415.79 C 561.26 418.66 566.70 422.28 572.11 425.89 C 578.71 429.96 584.00 435.73 589.34 441.26 C 589.44 441.68 589.63 442.54 589.72 442.96 C 570.03 453.55 550.55 464.55 530.88 475.18 C 524.83 468.48 516.97 463.20 507.99 461.55 C 508.13 453.97 508.19 446.37 507.94 438.79 Z" />
<path fill="#ffffff" d=" M 272.17 421.66 C 288.54 428.21 305.19 434.06 321.57 440.59 C 318.16 453.13 316.98 466.08 315.83 478.98 C 314.92 497.24 318.80 515.25 322.34 533.06 C 323.24 538.57 326.44 543.47 326.77 549.09 C 313.97 552.57 301.50 557.22 288.81 561.12 C 275.86 565.39 262.85 569.48 249.92 573.81 C 249.40 573.09 248.89 572.37 248.39 571.64 C 243.52 558.48 239.52 544.94 237.48 531.03 C 234.69 512.15 232.50 493.05 233.51 473.94 C 233.66 462.82 235.13 451.78 236.66 440.79 C 250.89 441.43 264.64 433.61 272.17 421.66 Z" />
<path fill="#ffffff" d=" M 460.38 427.12 C 462.39 425.20 464.69 423.62 466.99 422.06 C 472.93 430.84 482.35 437.03 492.77 439.02 C 492.77 446.44 492.84 453.87 492.73 461.30 C 490.00 462.02 487.30 462.81 484.63 463.71 C 476.56 451.50 468.56 439.25 460.38 427.12 Z" />
<path fill="#ffd447" d=" M 450.79 436.65 C 453.55 433.48 456.71 430.71 459.70 427.78 C 467.45 440.08 475.59 452.14 483.72 464.20 C 480.02 465.89 476.61 468.14 473.60 470.87 C 465.83 459.57 458.48 448.00 450.79 436.65 Z" />
<path fill="#0018a5" d=" M 341.69 432.45 C 367.23 442.30 392.92 451.75 418.47 461.59 C 418.41 461.87 418.29 462.43 418.24 462.71 C 392.60 452.96 366.90 443.38 341.28 433.58 C 341.38 433.30 341.58 432.74 341.69 432.45 Z" />
<path fill="#ffd447" d=" M 341.28 433.58 C 366.90 443.38 392.60 452.96 418.24 462.71 C 417.11 466.67 416.15 470.67 415.80 474.79 C 389.77 465.10 363.80 455.24 337.87 445.31 C 338.99 441.39 339.85 437.40 341.28 433.58 Z" />
<path fill="#8180ff" d=" M 220.29 436.64 C 225.41 439.07 231.00 440.45 236.66 440.79 C 235.13 451.78 233.66 462.82 233.51 473.94 C 232.50 493.05 234.69 512.15 237.48 531.03 C 239.52 544.94 243.52 558.48 248.39 571.64 L 248.42 573.67 C 248.74 574.07 249.06 574.46 249.41 574.85 C 250.56 578.85 251.95 582.80 253.93 586.48 C 254.06 586.73 254.31 587.25 254.44 587.50 C 261.01 602.93 268.72 617.95 278.32 631.72 C 285.36 641.28 292.12 651.12 300.49 659.60 C 306.53 666.85 313.90 672.81 320.50 679.53 C 326.42 685.74 333.68 690.42 340.61 695.41 C 336.56 699.50 333.46 704.47 331.47 709.87 C 327.25 707.00 323.19 703.90 319.08 700.88 C 311.71 695.73 305.62 689.05 299.05 682.98 C 292.42 676.89 286.58 670.03 280.56 663.37 C 272.86 653.89 266.26 643.62 259.25 633.64 C 250.95 620.74 243.94 607.03 237.98 592.90 C 237.86 592.66 237.64 592.18 237.52 591.94 C 235.72 588.21 234.52 584.25 233.15 580.35 C 233.06 580.08 232.87 579.55 232.77 579.28 C 228.70 567.94 224.87 556.45 222.70 544.57 C 219.72 530.81 218.25 516.78 216.73 502.80 C 216.50 493.25 215.02 483.70 216.20 474.17 C 216.69 461.59 217.83 449.00 220.29 436.64 Z" />
<path fill="#ffffff" d=" M 437.97 456.80 C 441.27 449.97 444.53 442.87 450.02 437.48 C 456.51 447.27 462.93 457.09 469.49 466.83 C 470.47 468.41 471.69 469.93 472.07 471.81 C 470.53 474.06 468.78 476.17 466.93 478.18 C 465.72 479.81 463.63 478.31 462.11 478.04 C 452.94 474.54 443.76 471.10 434.60 467.60 C 435.45 463.92 436.28 460.20 437.97 456.80 Z" />
<path fill="#ffd447" d=" M 494.15 439.29 C 498.09 439.87 502.14 440.07 506.06 439.21 C 505.89 446.54 506.02 453.88 506.05 461.21 C 502.10 460.45 498.05 460.43 494.12 461.26 C 493.34 453.94 494.50 446.62 494.15 439.29 Z" />
<path fill="#877174" d=" M 506.06 439.21 L 506.86 439.03 C 507.11 446.47 507.01 453.92 506.94 461.36 L 506.05 461.21 C 506.02 453.88 505.89 446.54 506.06 439.21 Z" />
<path fill="#6464c3" d=" M 506.86 439.03 L 507.94 438.79 C 508.19 446.37 508.13 453.97 507.99 461.55 L 506.94 461.36 C 507.01 453.92 507.11 446.47 506.86 439.03 Z" />
<path fill="#ffd447" d=" M 537.22 473.09 C 555.14 463.14 573.17 453.37 591.08 443.41 C 593.60 446.71 596.53 449.70 598.88 453.13 C 578.34 464.19 557.92 475.51 537.52 486.83 C 535.91 482.98 534.01 479.24 531.35 476.02 C 533.33 475.10 535.30 474.14 537.22 473.09 Z" />
<path fill="#0018a5" d=" M 337.87 445.31 C 363.80 455.24 389.77 465.10 415.80 474.79 C 415.77 475.10 415.70 475.72 415.67 476.03 C 389.61 466.26 363.57 456.42 337.58 446.48 C 337.65 446.18 337.79 445.60 337.87 445.31 Z" />
<path fill="#ffffff" d=" M 335.79 512.86 C 331.45 490.97 332.78 468.17 337.58 446.48 C 363.57 456.42 389.61 466.26 415.67 476.03 C 414.21 490.26 415.93 504.88 422.05 517.90 C 396.64 526.02 371.33 534.46 345.90 542.52 C 345.37 542.59 344.33 542.71 343.81 542.77 C 339.56 533.28 337.35 523.09 335.79 512.86 Z" />
<path fill="#ffffff" d=" M 599.48 453.97 C 607.13 465.64 612.24 478.84 615.59 492.35 C 617.87 503.08 617.55 514.10 617.43 525.00 C 617.03 532.74 615.21 540.31 613.25 547.78 C 588.36 535.58 563.42 523.45 538.48 511.34 C 540.47 503.60 540.13 495.45 537.95 487.79 C 558.49 476.58 578.99 465.27 599.48 453.97 Z" />
<path fill="#ffffff" d=" M 493.99 466.00 C 509.27 463.03 525.67 471.84 531.91 486.03 C 536.12 495.05 536.16 505.86 532.01 514.90 C 527.80 524.37 519.18 531.74 509.18 534.46 C 500.91 536.56 491.79 535.87 484.19 531.85 C 476.40 527.94 470.19 521.00 467.13 512.84 C 463.76 504.02 464.23 493.87 468.39 485.39 C 473.18 475.33 483.00 467.86 493.99 466.00 Z" />
<path fill="#ffd447" d=" M 434.30 468.81 C 444.77 472.69 455.21 476.66 465.64 480.63 C 463.63 484.19 462.11 487.99 461.13 491.96 C 451.49 488.43 441.90 484.79 432.34 481.07 C 432.43 476.91 433.27 472.82 434.30 468.81 Z" />
<path fill="#ffffff" d=" M 433.16 496.91 C 432.29 492.14 432.55 487.28 432.35 482.47 C 441.84 485.85 451.16 489.70 460.68 493.00 C 460.24 497.14 460.09 501.31 460.30 505.47 C 453.09 507.80 445.86 510.06 438.70 512.53 C 436.52 507.46 434.12 502.39 433.16 496.91 Z" />
<path fill="#0018a5" d=" M 495.28 498.81 C 496.62 497.53 497.96 495.84 500.00 495.82 C 501.89 495.69 503.18 497.35 504.64 498.31 C 504.92 500.85 504.88 504.14 501.92 505.09 C 498.00 506.92 494.49 502.54 495.28 498.81 Z" />
<path fill="#ffd447" d=" M 439.16 513.64 C 446.22 511.05 453.50 509.08 460.54 506.43 C 461.43 510.39 462.62 514.28 464.16 518.05 C 457.64 520.11 451.15 522.24 444.66 524.40 C 442.41 521.04 440.53 517.44 439.16 513.64 Z" />
<path fill="#ffd447" d=" M 538.07 512.39 C 563.04 524.54 587.97 536.75 612.96 548.84 C 611.63 552.65 610.20 556.43 608.90 560.26 C 583.61 547.84 558.24 535.61 533.00 523.10 C 535.10 519.74 536.90 516.19 538.07 512.39 Z" />
<path fill="#0018a5" d=" M 345.90 542.52 C 371.33 534.46 396.64 526.02 422.05 517.90 L 422.21 518.17 C 422.34 518.39 422.61 518.83 422.74 519.05 C 396.70 526.92 371.04 536.03 345.00 543.90 C 344.93 544.32 344.80 545.16 344.73 545.58 C 344.43 545.46 343.83 545.22 343.53 545.10 C 344.29 544.21 345.08 543.35 345.90 542.52 Z" />
<path fill="#ffd447" d=" M 345.00 543.90 C 371.04 536.03 396.70 526.92 422.74 519.05 C 424.50 522.17 425.98 525.44 427.97 528.43 C 428.12 528.77 428.42 529.44 428.57 529.77 C 401.96 538.05 375.53 546.92 349.02 555.50 C 347.32 552.31 346.29 548.83 344.73 545.58 C 344.80 545.16 344.93 544.32 345.00 543.90 Z" />
<path fill="#ffffff" d=" M 446.51 525.08 C 452.42 523.10 458.31 521.04 464.29 519.28 C 467.46 523.04 470.02 527.37 473.76 530.68 C 471.69 533.99 469.66 537.33 467.85 540.79 C 459.31 538.02 452.31 531.75 446.51 525.08 Z" />
<path fill="#ffffff" d=" M 520.34 549.44 C 527.93 543.44 532.86 534.95 536.57 526.15 C 560.57 537.80 584.40 549.82 608.56 561.14 C 601.03 582.00 586.17 599.38 569.51 613.63 C 561.35 620.86 551.46 625.62 541.90 630.67 C 534.48 603.66 527.85 576.43 520.34 549.44 Z" />
<path fill="#0018a5" d=" M 427.97 528.43 C 428.42 529.14 428.89 529.85 429.37 530.56 C 402.79 539.25 376.17 547.83 349.60 556.54 C 349.45 556.28 349.16 555.76 349.02 555.50 C 375.53 546.92 401.96 538.05 428.57 529.77 C 428.42 529.44 428.12 528.77 427.97 528.43 Z" />
<path fill="#ffffff" d=" M 349.60 556.54 C 376.17 547.83 402.79 539.25 429.37 530.56 C 436.08 541.93 447.15 549.78 458.81 555.49 C 450.52 570.31 441.48 584.70 433.06 599.44 C 418.93 594.52 402.28 598.51 391.94 609.32 C 379.48 599.72 369.48 587.46 360.17 574.89 C 356.12 569.09 352.95 562.74 349.60 556.54 Z" />
<path fill="#ffd447" d=" M 468.35 541.92 C 470.55 538.37 472.59 534.73 474.75 531.16 C 477.82 533.76 481.31 535.82 485.08 537.25 C 484.04 539.81 482.75 542.27 481.22 544.59 C 476.77 544.61 472.56 543.13 468.35 541.92 Z" />
<path fill="#ffffff" d=" M 483.39 543.07 C 484.33 541.40 485.34 539.74 486.62 538.29 C 492.67 539.77 498.91 541.25 505.16 540.21 C 498.12 542.34 491.00 544.52 483.56 544.53 L 483.39 543.07 Z" />
<path fill="#0018a5" d=" M 288.81 561.12 C 301.50 557.22 313.97 552.57 326.77 549.09 C 326.99 549.25 327.42 549.57 327.64 549.73 C 305.30 556.98 282.97 564.24 260.63 571.49 C 256.91 572.67 253.25 574.09 249.41 574.85 C 249.06 574.46 248.74 574.07 248.42 573.67 L 248.39 571.64 C 248.89 572.37 249.40 573.09 249.92 573.81 C 262.85 569.48 275.86 565.39 288.81 561.12 Z" />
<path fill="#ffd447" d=" M 260.63 571.49 C 282.97 564.24 305.30 556.98 327.64 549.73 C 329.39 553.47 330.76 557.39 332.70 561.05 C 319.92 564.57 307.44 569.17 294.78 573.09 C 281.18 577.62 267.49 581.84 253.93 586.48 C 251.95 582.80 250.56 578.85 249.41 574.85 C 253.25 574.09 256.91 572.67 260.63 571.49 Z" />
<path fill="#ffd447" d=" M 508.59 556.37 C 512.40 554.57 515.97 552.32 519.55 550.12 C 526.34 577.27 533.97 604.21 540.60 631.40 C 536.95 633.25 532.99 634.36 529.07 635.47 C 526.43 622.11 522.32 609.08 519.05 595.87 C 515.56 582.70 512.27 569.48 508.59 556.37 Z" />
<path fill="#0018a5" d=" M 519.55 550.12 C 519.75 549.95 520.14 549.61 520.34 549.44 C 527.85 576.43 534.48 603.66 541.90 630.67 C 541.46 630.91 541.03 631.15 540.60 631.40 C 533.97 604.21 526.34 577.27 519.55 550.12 Z" />
<path fill="#0018a5" d=" M 458.81 555.49 C 459.03 555.54 459.49 555.66 459.72 555.72 L 460.14 555.84 C 451.48 570.55 442.66 585.17 434.11 599.95 C 437.97 601.49 441.58 603.55 445.02 605.87 C 453.85 590.87 462.60 575.81 471.69 560.96 C 471.21 560.41 470.75 559.86 470.29 559.31 C 470.41 559.34 470.64 559.40 470.76 559.44 C 471.44 559.61 472.80 559.94 473.48 560.11 C 464.70 574.60 456.22 589.26 447.51 603.79 C 446.94 605.08 445.27 606.81 447.08 607.87 C 456.30 616.10 461.13 628.74 460.09 641.02 C 459.23 646.46 457.76 651.85 455.05 656.67 C 449.13 667.30 438.17 674.98 426.09 676.67 C 419.22 678.00 412.17 676.65 405.66 674.36 C 402.17 680.61 398.32 686.65 394.84 692.90 C 405.46 701.86 410.84 716.47 408.24 730.16 C 407.26 735.73 405.02 741.03 401.90 745.74 C 395.65 754.67 385.84 761.10 374.98 762.64 C 368.17 764.00 361.17 762.67 354.68 760.47 C 351.43 766.72 346.99 772.41 344.31 778.91 C 354.95 788.32 360.64 803.38 357.31 817.41 C 356.04 823.20 353.57 828.71 349.96 833.42 C 343.68 841.67 334.11 847.31 323.82 848.70 C 317.09 850.04 310.21 848.55 303.82 846.42 C 294.21 862.85 284.40 879.16 274.78 895.59 C 272.77 899.82 266.54 900.97 262.98 898.01 C 260.80 896.45 260.63 893.55 260.24 891.15 C 268.34 877.86 276.11 864.37 284.09 851.02 C 286.48 846.76 289.32 842.76 291.26 838.28 C 279.86 828.16 275.41 810.95 280.60 796.59 C 282.44 790.99 285.59 785.88 289.69 781.66 C 299.98 770.55 316.98 766.35 331.23 771.53 C 334.79 765.22 338.55 759.04 342.25 752.82 C 330.59 742.24 325.95 724.70 331.47 709.87 C 333.46 704.47 336.56 699.50 340.61 695.41 C 350.97 684.44 367.89 680.43 382.10 685.55 C 385.65 679.07 389.79 672.92 393.17 666.34 C 381.85 656.14 377.31 639.02 382.53 624.64 C 384.40 618.87 387.72 613.65 391.94 609.32 C 402.28 598.51 418.93 594.52 433.06 599.44 C 441.48 584.70 450.52 570.31 458.81 555.49 Z" />
<path fill="#ffd447" d=" M 460.14 555.84 C 463.47 557.13 466.77 558.55 470.29 559.31 C 470.75 559.86 471.21 560.41 471.69 560.96 C 462.60 575.81 453.85 590.87 445.02 605.87 C 441.58 603.55 437.97 601.49 434.11 599.95 C 442.66 585.17 451.48 570.55 460.14 555.84 Z" />
<path fill="#0018a5" d=" M 507.64 556.82 C 507.88 556.71 508.35 556.48 508.59 556.37 C 512.27 569.48 515.56 582.70 519.05 595.87 C 522.32 609.08 526.43 622.11 529.07 635.47 C 528.50 634.68 527.98 633.88 527.49 633.06 C 521.12 607.59 514.16 582.26 507.64 556.82 Z" />
<path fill="#0018a5" d=" M 628.89 555.38 C 644.92 563.14 660.92 570.99 676.95 578.77 C 685.03 568.01 698.54 561.62 712.01 562.70 C 717.75 563.32 723.40 564.92 728.45 567.75 C 737.39 572.77 744.30 581.32 747.21 591.17 C 749.78 599.66 749.18 608.87 746.16 617.16 C 745.31 619.53 744.04 621.71 742.74 623.86 C 733.70 638.18 715.21 645.66 698.80 641.10 C 693.27 639.48 688.03 636.82 683.59 633.14 C 671.49 623.44 666.44 606.52 670.52 591.64 C 655.39 584.28 640.36 576.72 625.14 569.57 C 625.18 569.21 625.28 568.50 625.33 568.15 C 640.47 575.86 655.85 583.08 671.06 590.64 C 672.48 586.86 674.22 583.20 676.46 579.83 C 660.54 571.90 644.38 564.44 628.57 556.31 L 628.89 555.38 Z" />
<path fill="#ffffff" d=" M 473.48 560.11 C 484.93 561.65 496.73 560.72 507.64 556.82 C 514.16 582.26 521.12 607.59 527.49 633.06 C 527.59 633.86 527.79 635.45 527.89 636.25 C 518.15 639.20 508.14 641.25 498.03 642.43 C 485.38 643.30 472.64 642.85 460.09 641.02 C 461.13 628.74 456.30 616.10 447.08 607.87 C 445.27 606.81 446.94 605.08 447.51 603.79 C 456.22 589.26 464.70 574.60 473.48 560.11 Z" />
<path fill="#ffd447" d=" M 625.85 564.77 C 626.59 561.90 627.54 559.08 628.57 556.31 C 644.38 564.44 660.54 571.90 676.46 579.83 C 674.22 583.20 672.48 586.86 671.06 590.64 C 655.85 583.08 640.47 575.86 625.33 568.15 C 625.46 567.31 625.72 565.62 625.85 564.77 Z" />
<path fill="#0018a5" d=" M 294.78 573.09 C 307.44 569.17 319.92 564.57 332.70 561.05 L 333.07 561.76 C 306.94 570.58 280.60 578.79 254.44 587.50 C 254.31 587.25 254.06 586.73 253.93 586.48 C 267.49 581.84 281.18 577.62 294.78 573.09 Z" />
<path fill="#ffffff" d=" M 254.44 587.50 C 280.60 578.79 306.94 570.58 333.07 561.76 C 342.23 580.58 354.53 597.87 369.46 612.54 C 373.63 616.78 378.62 620.13 382.53 624.64 C 377.31 639.02 381.85 656.14 393.17 666.34 C 389.79 672.92 385.65 679.07 382.10 685.55 C 367.89 680.43 350.97 684.44 340.61 695.41 C 333.68 690.42 326.42 685.74 320.50 679.53 C 313.90 672.81 306.53 666.85 300.49 659.60 C 292.12 651.12 285.36 641.28 278.32 631.72 C 268.72 617.95 261.01 602.93 254.44 587.50 Z" />
<path fill="#ffffff" d=" M 613.52 589.53 C 618.07 581.51 623.01 573.61 625.85 564.77 C 625.72 565.62 625.46 567.31 625.33 568.15 C 625.28 568.50 625.18 569.21 625.14 569.57 C 640.36 576.72 655.39 584.28 670.52 591.64 C 666.44 606.52 671.49 623.44 683.59 633.14 C 678.95 641.40 672.63 648.53 667.10 656.19 C 659.61 664.96 651.96 673.64 643.48 681.48 C 634.85 688.90 626.26 696.43 616.76 702.73 C 609.60 707.91 601.43 711.41 593.90 716.00 C 586.41 720.70 578.04 723.66 570.01 727.27 C 569.28 727.41 567.82 727.69 567.09 727.82 C 560.46 700.85 553.08 674.06 546.11 647.17 C 551.04 644.33 556.36 642.24 561.20 639.24 C 567.98 635.07 575.24 631.56 581.24 626.25 C 593.65 615.61 604.98 603.52 613.52 589.53 Z" />
<path fill="#ffffff" d=" M 676.33 589.33 C 681.49 577.24 693.40 568.24 706.65 567.46 C 706.81 578.02 706.71 588.59 706.70 599.15 C 696.51 596.11 686.38 592.81 676.33 589.33 Z" />
<path fill="#ffffff" d=" M 711.42 599.04 C 711.47 588.54 711.41 578.03 711.46 567.52 C 724.71 568.22 736.55 577.33 741.70 589.39 C 731.66 592.75 721.66 596.33 711.42 599.04 Z" />
<path fill="#0018a5" d=" M 128.07 578.30 C 133.05 575.45 138.62 573.81 144.26 572.94 C 160.33 571.41 176.63 580.51 183.74 595.00 C 200.22 590.19 216.43 584.52 232.77 579.28 C 232.87 579.55 233.06 580.08 233.15 580.35 C 216.90 585.63 200.72 591.18 184.33 596.04 C 185.84 599.89 186.90 603.89 187.57 607.97 C 204.24 602.69 220.75 596.87 237.52 591.94 C 237.64 592.18 237.86 592.66 237.98 592.90 C 221.20 597.97 204.72 604.02 187.88 608.84 C 189.01 622.75 182.82 636.93 171.38 645.05 C 166.65 648.47 161.16 650.71 155.47 651.95 C 139.49 655.24 122.11 647.25 113.90 633.21 C 99.32 637.80 84.83 642.64 70.28 647.33 C 67.14 648.31 63.03 647.75 61.33 644.59 C 58.73 640.70 61.02 634.92 65.41 633.61 C 76.01 630.31 86.52 626.74 97.10 623.38 C 100.93 622.18 104.66 620.56 108.67 620.06 C 107.10 609.47 109.28 598.22 115.71 589.54 C 119.10 585.10 123.22 581.11 128.07 578.30 Z" />
<path fill="#ffffff" d=" M 134.05 580.51 C 137.80 579.06 141.73 578.15 145.72 577.68 C 145.79 585.99 145.81 594.31 145.72 602.63 C 141.64 595.35 137.94 587.88 134.05 580.51 Z" />
<path fill="#ffffff" d=" M 150.46 578.07 C 154.42 577.99 158.23 579.08 161.97 580.29 C 161.00 583.87 158.81 586.93 157.23 590.24 C 154.98 594.24 153.22 598.52 150.58 602.29 C 150.35 594.22 150.57 586.14 150.46 578.07 Z" />
<path fill="#ffd447" d=" M 184.33 596.04 C 200.72 591.18 216.90 585.63 233.15 580.35 C 234.52 584.25 235.72 588.21 237.52 591.94 C 220.75 596.87 204.24 602.69 187.57 607.97 C 186.90 603.89 185.84 599.89 184.33 596.04 Z" />
<path fill="#ffffff" d=" M 121.01 590.89 C 122.92 587.33 126.54 585.08 129.82 582.90 C 133.82 590.21 137.47 597.70 141.52 604.99 C 134.57 600.46 127.75 595.72 121.01 590.89 Z" />
<path fill="#ffffff" d=" M 166.47 583.01 C 169.64 584.94 172.66 587.26 174.92 590.25 C 174.83 590.56 174.67 591.18 174.59 591.48 C 168.13 595.99 161.65 600.49 155.12 604.89 C 158.61 597.45 162.68 590.30 166.47 583.01 Z" />
<path fill="#ffffff" d=" M 187.88 608.84 C 204.72 604.02 221.20 597.97 237.98 592.90 C 243.94 607.03 250.95 620.74 259.25 633.64 C 266.26 643.62 272.86 653.89 280.56 663.37 C 286.58 670.03 292.42 676.89 299.05 682.98 C 305.62 689.05 311.71 695.73 319.08 700.88 C 323.19 703.90 327.25 707.00 331.47 709.87 C 325.95 724.70 330.59 742.24 342.25 752.82 C 338.55 759.04 334.79 765.22 331.23 771.53 C 316.98 766.35 299.98 770.55 289.69 781.66 C 280.30 776.22 272.09 769.04 263.57 762.37 C 255.63 756.42 248.90 749.09 241.58 742.43 C 230.54 732.10 220.69 720.63 211.16 708.91 C 201.04 695.82 191.20 682.44 183.27 667.88 C 179.24 660.31 174.63 653.02 171.38 645.05 C 182.82 636.93 189.01 622.75 187.88 608.84 Z" />
<path fill="#ffffff" d=" M 674.77 594.15 C 684.91 597.10 694.88 600.58 704.93 603.81 C 698.80 612.30 692.04 620.31 685.77 628.70 C 676.00 620.38 671.90 606.55 674.77 594.15 Z" />
<path fill="#ffffff" d=" M 713.14 603.83 C 723.17 600.66 733.11 597.14 743.22 594.21 C 746.13 606.84 741.83 621.30 731.35 629.26 C 725.42 620.68 718.94 612.49 713.14 603.83 Z" />
<path fill="#ffffff" d=" M 113.46 605.58 C 114.96 602.13 115.47 597.65 118.23 595.13 C 125.10 599.33 131.62 604.17 138.22 608.82 C 131.43 608.47 124.71 607.32 117.96 606.59 C 116.42 606.45 114.88 606.20 113.46 605.58 Z" />
<path fill="#ffffff" d=" M 157.87 608.79 C 164.82 604.34 171.29 599.15 178.43 595.00 C 180.26 598.53 181.83 602.22 182.48 606.17 C 174.25 606.78 166.12 608.47 157.87 608.79 Z" />
<path fill="#ffffff" d=" M 387.06 625.94 C 391.45 612.84 404.22 602.70 418.18 602.37 C 417.57 613.60 418.04 624.86 417.84 636.10 C 408.08 641.58 398.48 647.32 388.74 652.83 C 384.83 644.49 384.08 634.68 387.06 625.94 Z" />
<path fill="#ffffff" d=" M 422.68 602.35 C 434.36 602.83 445.25 610.05 450.90 620.17 C 456.60 630.04 456.63 642.39 451.98 652.68 C 442.09 647.36 432.53 641.44 422.71 635.98 C 422.65 624.77 422.71 613.56 422.68 602.35 Z" />
<path fill="#0018a5" d=" M 766.74 622.46 C 775.22 610.96 789.89 604.40 804.10 606.13 C 809.84 606.97 815.48 608.72 820.48 611.72 C 828.21 616.39 834.45 623.65 837.53 632.17 C 840.54 640.19 840.58 649.17 838.27 657.37 C 861.50 668.67 884.72 680.01 907.96 691.30 C 910.82 692.76 914.38 693.81 915.80 697.02 C 917.33 699.52 916.65 702.86 914.63 704.90 C 912.44 707.57 908.39 707.13 905.43 706.37 C 880.76 694.34 856.14 682.24 831.45 670.26 C 822.03 682.20 805.44 688.48 790.60 684.50 C 784.64 683.26 779.03 680.60 774.24 676.86 C 761.98 667.39 756.39 650.57 760.40 635.61 C 755.55 633.09 750.61 630.73 745.67 628.39 C 744.23 627.61 742.39 627.06 741.87 625.33 C 748.33 628.23 754.63 631.48 761.03 634.54 C 762.50 630.73 764.35 627.08 766.05 623.37 C 759.73 620.47 753.55 617.28 747.27 614.32 L 747.70 613.20 C 754.00 616.37 760.36 619.44 766.74 622.46 Z" />
<path fill="#ffffff" d=" M 689.61 631.87 C 695.70 623.33 702.29 615.11 708.93 607.00 C 715.69 614.95 721.29 623.93 727.70 632.21 C 716.30 639.54 700.93 639.22 689.61 631.87 Z" />
<path fill="#ffffff" d=" M 779.77 615.05 C 785.13 611.98 791.08 609.97 797.26 609.51 C 797.25 614.38 797.31 619.24 797.20 624.11 C 794.05 624.68 790.99 625.66 788.05 626.91 C 785.34 622.92 782.01 619.34 779.77 615.05 Z" />
<path fill="#ffffff" d=" M 802.25 623.93 C 802.04 619.11 802.13 614.29 802.30 609.48 C 808.43 610.27 814.59 611.94 819.70 615.53 C 816.76 619.30 814.01 623.23 811.11 627.04 C 808.30 625.58 805.16 625.04 802.25 623.93 Z" />
<path fill="#ffffff" d=" M 112.70 611.20 C 120.94 611.32 129.08 612.92 137.28 613.72 C 130.10 617.61 122.05 619.69 114.52 622.86 C 113.25 619.09 113.06 615.11 112.70 611.20 Z" />
<path fill="#ffffff" d=" M 158.79 613.97 C 166.93 612.68 175.14 611.50 183.38 611.20 C 183.06 615.09 182.85 619.06 181.62 622.80 C 174.03 619.81 166.30 617.17 158.79 613.97 Z" />
<path fill="#ffd447" d=" M 746.16 617.16 C 746.53 616.21 746.89 615.26 747.27 614.32 C 753.55 617.28 759.73 620.47 766.05 623.37 C 764.35 627.08 762.50 630.73 761.03 634.54 C 754.63 631.48 748.33 628.23 741.87 625.33 C 742.09 624.96 742.52 624.22 742.74 623.86 C 744.04 621.71 745.31 619.53 746.16 617.16 Z" />
<path fill="#ffffff" d=" M 116.10 627.51 C 123.85 624.23 131.85 621.58 139.63 618.38 C 134.53 624.72 128.93 630.65 123.59 636.80 C 122.35 636.97 121.68 635.89 121.00 635.07 C 119.11 632.72 117.58 630.12 116.10 627.51 Z" />
<path fill="#ffffff" d=" M 156.36 618.24 C 164.16 621.41 172.12 624.19 179.95 627.30 C 178.34 630.90 175.99 634.08 173.46 637.10 C 167.28 631.29 162.12 624.47 156.36 618.24 Z" />
<path fill="#ffffff" d=" M 765.26 632.91 C 767.31 626.71 771.71 621.73 776.44 617.39 C 779.43 621.19 782.25 625.13 785.12 629.04 C 782.87 631.41 780.82 634.00 779.43 636.98 C 774.55 636.21 770.06 634.02 765.26 632.91 Z" />
<path fill="#ffffff" d=" M 822.42 617.75 C 827.77 621.36 831.62 626.96 833.87 632.95 C 829.17 634.20 824.59 635.85 819.96 637.34 C 818.53 634.26 816.13 631.80 814.29 629.02 C 816.82 625.14 819.83 621.59 822.42 617.75 Z" />
<path fill="#ffd447" d=" M 66.87 634.35 C 81.00 630.01 94.92 624.94 109.14 620.94 C 109.76 624.93 111.38 628.64 113.26 632.18 C 98.81 636.73 84.43 641.54 70.00 646.19 C 67.57 647.16 65.08 646.15 62.82 645.23 C 61.99 643.18 61.40 641.05 61.34 638.84 C 62.85 636.97 64.29 634.75 66.87 634.35 Z" />
<path fill="#ffffff" d=" M 126.82 640.73 C 132.02 634.13 137.80 627.99 143.45 621.76 C 141.47 629.88 139.48 637.99 137.47 646.09 C 133.55 645.12 130.13 642.95 126.82 640.73 Z" />
<path fill="#ffffff" d=" M 153.03 621.95 C 158.79 627.88 163.93 634.39 169.64 640.36 C 166.34 642.77 162.84 645.15 158.74 645.92 C 157.04 637.88 154.69 630.00 153.03 621.95 Z" />
<path fill="#ffffff" d=" M 142.12 647.42 C 144.14 639.29 145.94 631.09 148.21 623.03 C 150.15 631.17 152.56 639.21 154.00 647.45 C 150.05 647.80 146.07 647.82 142.12 647.42 Z" />
<path fill="#ffffff" d=" M 698.80 641.10 C 715.21 645.66 733.70 638.18 742.74 623.86 C 742.52 624.22 742.09 624.96 741.87 625.33 C 742.39 627.06 744.23 627.61 745.67 628.39 C 750.61 630.73 755.55 633.09 760.40 635.61 C 756.39 650.57 761.98 667.39 774.24 676.86 C 765.67 690.56 757.03 704.32 746.56 716.68 C 738.02 727.69 728.69 738.10 718.46 747.56 C 707.91 758.42 695.80 767.57 683.97 776.95 C 676.15 783.34 667.62 788.79 659.15 794.26 C 646.46 801.10 633.78 808.11 620.49 813.70 C 612.99 801.84 599.04 795.05 585.14 795.38 C 580.32 778.43 576.27 761.25 571.51 744.28 C 579.47 741.56 587.21 738.22 594.80 734.60 C 601.33 730.92 607.78 727.08 614.45 723.64 C 631.31 714.90 645.90 702.52 659.92 689.85 C 668.66 680.59 677.58 671.40 684.97 660.99 C 689.74 654.48 694.23 647.76 698.80 641.10 Z" />
<path fill="#ffffff" d=" M 783.99 636.14 C 786.83 631.53 791.87 628.45 797.24 627.90 C 797.28 639.87 797.28 651.84 797.25 663.81 C 792.07 663.02 787.08 660.27 784.23 655.80 C 780.26 650.09 780.13 641.94 783.99 636.14 Z" />
<path fill="#ffffff" d=" M 802.21 627.93 C 809.58 628.77 816.00 634.62 817.51 641.89 C 818.21 646.40 817.89 651.33 815.25 655.21 C 812.51 659.90 807.50 662.74 802.30 663.87 C 802.02 651.89 802.20 639.91 802.21 627.93 Z" />
<path fill="#8180ff" d=" M 683.59 633.14 C 688.03 636.82 693.27 639.48 698.80 641.10 C 694.23 647.76 689.74 654.48 684.97 660.99 C 677.58 671.40 668.66 680.59 659.92 689.85 C 645.90 702.52 631.31 714.90 614.45 723.64 C 607.78 727.08 601.33 730.92 594.80 734.60 C 587.21 738.22 579.47 741.56 571.51 744.28 C 571.26 744.36 570.74 744.53 570.48 744.62 C 566.70 745.83 562.86 746.88 559.05 748.01 C 558.78 748.09 558.23 748.25 557.95 748.33 C 544.87 752.06 531.51 754.71 518.11 757.00 C 507.14 758.45 496.07 758.55 485.05 759.31 C 474.10 758.66 463.13 758.43 452.22 757.20 C 435.21 754.55 418.27 751.16 401.90 745.74 C 405.02 741.03 407.26 735.73 408.24 730.16 C 429.44 737.25 451.61 741.79 474.01 742.30 C 485.35 743.00 496.72 742.36 508.03 741.49 C 519.55 740.89 530.75 738.02 541.95 735.46 C 545.93 734.52 549.96 733.62 553.60 731.70 C 553.92 731.79 554.54 731.97 554.85 732.06 C 558.58 730.68 562.51 729.99 566.31 728.84 C 567.55 728.34 568.77 727.79 570.01 727.27 C 578.04 723.66 586.41 720.70 593.90 716.00 C 601.43 711.41 609.60 707.91 616.76 702.73 C 626.26 696.43 634.85 688.90 643.48 681.48 C 651.96 673.64 659.61 664.96 667.10 656.19 C 672.63 648.53 678.95 641.40 683.59 633.14 Z" />
<path fill="#ffffff" d=" M 763.88 655.03 C 762.30 648.86 762.48 642.52 763.85 636.34 C 768.65 637.43 773.28 639.11 777.92 640.73 C 777.37 644.07 777.41 647.45 777.82 650.81 C 773.17 652.18 768.62 653.93 763.88 655.03 Z" />
<path fill="#ffffff" d=" M 821.13 640.79 C 825.76 639.14 830.44 637.62 835.19 636.34 C 836.69 642.46 836.75 648.80 835.26 654.94 C 830.48 653.86 825.88 652.12 821.19 650.74 C 821.65 647.43 821.69 644.09 821.13 640.79 Z" />
<path fill="#ffffff" d=" M 391.20 656.95 C 400.89 651.37 410.58 645.81 420.22 640.16 C 429.21 644.99 437.89 650.39 446.83 655.33 C 447.63 655.87 449.63 656.59 448.59 657.88 C 440.22 669.77 423.90 675.34 410.04 670.78 C 402.37 668.56 395.82 663.37 391.20 656.95 Z" />
<path fill="#8180ff" d=" M 155.47 651.95 C 161.16 650.71 166.65 648.47 171.38 645.05 C 174.63 653.02 179.24 660.31 183.27 667.88 C 191.20 682.44 201.04 695.82 211.16 708.91 C 220.69 720.63 230.54 732.10 241.58 742.43 C 248.90 749.09 255.63 756.42 263.57 762.37 C 272.09 769.04 280.30 776.22 289.69 781.66 C 285.59 785.88 282.44 790.99 280.60 796.59 C 273.80 791.32 266.41 786.84 259.81 781.31 C 254.12 776.59 248.11 772.26 242.60 767.34 C 233.79 758.80 224.83 750.41 216.37 741.53 C 191.81 714.89 171.30 684.54 155.47 651.95 Z" />
<path fill="#ffd447" d=" M 533.64 651.79 C 537.61 650.78 541.58 649.65 545.20 647.68 C 551.96 674.80 559.38 701.75 566.31 728.84 C 562.51 729.99 558.58 730.68 554.85 732.06 C 547.66 705.34 540.90 678.49 533.64 651.79 Z" />
<path fill="#0018a5" d=" M 545.20 647.68 L 546.11 647.17 C 553.08 674.06 560.46 700.85 567.09 727.82 C 567.82 727.69 569.28 727.41 570.01 727.27 C 568.77 727.79 567.55 728.34 566.31 728.84 C 559.38 701.75 551.96 674.80 545.20 647.68 Z" />
<path fill="#ffffff" d=" M 519.99 655.29 C 524.26 654.55 528.42 653.33 532.56 652.10 C 539.70 678.59 546.36 705.23 553.60 731.70 C 549.96 733.62 545.93 734.52 541.95 735.46 C 530.75 738.02 519.55 740.89 508.03 741.49 C 496.72 742.36 485.35 743.00 474.01 742.30 C 451.61 741.79 429.44 737.25 408.24 730.16 C 410.84 716.47 405.46 701.86 394.84 692.90 C 398.32 686.65 402.17 680.61 405.66 674.36 C 412.17 676.65 419.22 678.00 426.09 676.67 C 438.17 674.98 449.13 667.30 455.05 656.67 C 466.59 658.57 478.28 659.81 489.99 659.48 C 500.14 659.42 510.04 657.00 519.99 655.29 Z" />
<path fill="#0018a5" d=" M 532.56 652.10 L 533.64 651.79 C 540.90 678.49 547.66 705.34 554.85 732.06 C 554.54 731.97 553.92 731.79 553.60 731.70 C 546.36 705.23 539.70 678.59 532.56 652.10 Z" />
<path fill="#ffffff" d=" M 819.90 654.19 C 824.67 655.38 829.28 657.14 834.00 658.57 C 831.69 664.59 827.66 669.78 822.85 674.02 C 819.90 670.11 816.95 666.19 814.14 662.17 C 816.51 659.87 818.50 657.20 819.90 654.19 Z" />
<path fill="#ffffff" d=" M 765.04 658.65 C 769.73 657.15 774.41 655.61 779.11 654.14 C 780.47 657.14 782.63 659.63 784.72 662.14 C 782.86 666.46 779.10 670.02 776.46 674.01 C 771.34 670.03 767.60 664.56 765.04 658.65 Z" />
<path fill="#ffd447" d=" M 832.00 669.23 C 834.11 665.69 836.02 662.03 837.54 658.20 C 860.81 669.68 884.16 680.98 907.50 692.32 C 910.30 693.77 913.89 694.79 915.04 698.11 C 916.64 701.03 914.18 703.72 912.24 705.67 C 906.56 706.89 901.88 703.15 896.99 700.97 C 875.32 690.40 853.66 679.81 832.00 669.23 Z" />
<path fill="#ffffff" d=" M 780.19 675.33 C 782.57 671.57 785.45 668.15 788.02 664.52 C 790.97 665.91 794.08 666.88 797.27 667.59 C 797.26 672.36 797.26 677.12 797.27 681.89 C 791.94 681.78 786.79 680.12 782.06 677.75 C 781.16 677.25 779.60 676.65 780.19 675.33 Z" />
<path fill="#ffffff" d=" M 802.16 667.53 C 805.26 666.80 808.35 665.89 811.18 664.39 C 814.06 668.29 816.97 672.18 819.80 676.12 C 814.45 679.31 808.43 681.85 802.10 681.76 C 802.21 677.01 802.16 672.27 802.16 667.53 Z" />
<path fill="#ffd447" d=" M 394.01 667.18 C 397.24 669.91 400.76 672.32 404.73 673.88 C 401.10 679.90 397.47 685.93 394.00 692.04 C 390.56 689.73 387.03 687.51 383.11 686.11 C 386.60 679.71 390.72 673.68 394.01 667.18 Z" />
<path fill="#8180ff" d=" M 774.24 676.86 C 779.03 680.60 784.64 683.26 790.60 684.50 C 787.80 686.18 786.55 689.34 784.74 691.91 C 778.66 701.94 771.57 711.30 765.04 721.03 C 753.88 735.69 741.99 749.88 728.20 762.16 C 720.21 770.26 711.16 777.20 702.33 784.34 C 689.05 795.04 675.05 804.98 659.88 812.83 C 654.86 815.55 649.84 818.29 644.66 820.71 C 638.99 823.41 633.60 826.73 627.63 828.80 C 626.64 829.93 627.15 831.57 627.11 832.94 C 627.45 836.54 626.95 840.15 626.49 843.72 L 625.95 843.79 C 627.78 833.58 626.40 822.41 620.49 813.70 C 633.78 808.11 646.46 801.10 659.15 794.26 C 667.62 788.79 676.15 783.34 683.97 776.95 C 695.80 767.57 707.91 758.42 718.46 747.56 C 728.69 738.10 738.02 727.69 746.56 716.68 C 757.03 704.32 765.67 690.56 774.24 676.86 Z" />
<path fill="#ffffff" d=" M 338.72 703.80 C 344.34 693.97 355.51 687.62 366.75 687.13 C 366.74 691.90 366.73 696.67 366.75 701.45 C 360.46 702.33 354.91 705.85 351.04 710.83 C 346.97 708.42 342.91 706.00 338.72 703.80 Z" />
<path fill="#ffffff" d=" M 371.44 687.16 C 382.86 687.49 393.26 694.32 399.65 703.55 C 395.51 706.12 391.26 708.49 387.03 710.89 C 383.25 705.83 377.65 702.47 371.43 701.44 C 371.47 696.68 371.46 691.92 371.44 687.16 Z" />
<path fill="#ffffff" d=" M 351.18 719.92 C 352.52 712.36 359.10 706.26 366.67 705.16 C 366.82 717.12 366.72 729.09 366.72 741.06 C 356.66 740.38 349.06 729.64 351.18 719.92 Z" />
<path fill="#ffffff" d=" M 371.45 741.00 C 371.48 729.07 371.42 717.15 371.48 705.23 C 380.84 706.41 388.20 715.65 387.13 725.04 C 386.32 733.05 379.68 740.45 371.45 741.00 Z" />
<path fill="#ffffff" d=" M 335.47 709.31 C 335.85 708.33 336.43 706.32 337.86 707.42 C 341.71 709.49 345.42 711.84 349.26 713.95 C 346.43 720.00 347.13 726.77 349.03 732.96 C 344.90 735.20 340.85 737.59 336.79 739.97 C 331.91 730.54 331.41 719.12 335.47 709.31 Z" />
<path fill="#ffffff" d=" M 388.98 713.96 C 393.22 711.65 397.18 708.78 401.69 707.02 C 406.41 717.37 406.65 729.70 401.29 739.87 C 397.23 737.49 393.17 735.08 389.03 732.86 C 391.02 726.70 391.39 720.06 388.98 713.96 Z" />
<path fill="#ffffff" d=" M 338.62 743.03 C 342.74 740.76 346.66 738.14 350.88 736.09 C 353.13 737.41 354.53 739.85 356.82 741.19 C 359.72 743.34 363.26 744.21 366.73 744.95 C 366.73 749.81 366.80 754.68 366.66 759.55 C 355.39 758.69 344.83 752.46 338.62 743.03 Z" />
<path fill="#ffffff" d=" M 371.52 744.87 C 377.78 744.22 382.93 740.43 387.07 735.94 C 391.18 738.09 395.35 740.27 399.12 742.98 C 393.49 752.65 382.52 758.60 371.48 759.49 C 371.45 754.62 371.41 749.74 371.52 744.87 Z" />
<path fill="#ffd447" d=" M 559.05 748.01 C 562.86 746.88 566.70 745.83 570.48 744.62 C 574.97 761.60 579.35 778.61 583.89 795.58 C 579.94 796.11 576.02 796.91 572.33 798.48 C 569.02 786.30 565.65 774.13 562.80 761.83 C 562.61 761.83 562.23 761.83 562.03 761.83 L 561.80 761.28 C 561.64 756.71 560.04 752.41 559.05 748.01 Z" />
<path fill="#0018a5" d=" M 570.48 744.62 C 570.74 744.53 571.26 744.36 571.51 744.28 C 576.27 761.25 580.32 778.43 585.14 795.38 C 599.04 795.05 612.99 801.84 620.49 813.70 C 626.40 822.41 627.78 833.58 625.95 843.79 C 623.86 855.55 615.46 865.61 605.02 871.09 C 610.30 892.43 616.09 913.64 621.63 934.91 C 622.73 938.39 623.56 942.82 620.86 945.80 C 617.33 949.28 610.71 948.07 609.00 943.29 C 603.05 920.62 597.05 897.96 591.19 875.27 C 574.90 876.82 558.34 867.60 551.27 852.82 C 548.95 847.89 547.64 842.52 547.24 837.10 C 546.47 821.09 556.33 805.35 571.01 798.97 C 568.56 788.57 565.67 778.29 562.97 767.96 C 562.44 765.95 562.21 763.87 562.03 761.83 C 562.23 761.83 562.61 761.83 562.80 761.83 C 565.65 774.13 569.02 786.30 572.33 798.48 C 576.02 796.91 579.94 796.11 583.89 795.58 C 579.35 778.61 574.97 761.60 570.48 744.62 Z" />
<path fill="#ffffff" d=" M 374.98 762.64 C 385.84 761.10 395.65 754.67 401.90 745.74 C 418.27 751.16 435.21 754.55 452.22 757.20 C 463.13 758.43 474.10 758.66 485.05 759.31 C 496.07 758.55 507.14 758.45 518.11 757.00 C 531.51 754.71 544.87 752.06 557.95 748.33 C 559.06 752.45 559.66 756.75 561.39 760.69 C 561.49 760.84 561.70 761.13 561.80 761.28 L 562.03 761.83 C 562.21 763.87 562.44 765.95 562.97 767.96 C 565.67 778.29 568.56 788.57 571.01 798.97 C 556.33 805.35 546.47 821.09 547.24 837.10 C 528.62 839.97 509.83 842.20 490.98 842.41 C 466.07 843.82 441.27 840.09 416.76 836.15 C 403.24 833.16 389.97 829.13 376.68 825.30 C 371.90 823.89 367.28 822.02 362.60 820.35 C 360.67 819.67 358.82 818.77 357.31 817.41 C 360.64 803.38 354.95 788.32 344.31 778.91 C 346.99 772.41 351.43 766.72 354.68 760.47 C 361.17 762.67 368.17 764.00 374.98 762.64 Z" />
<path fill="#0018a5" d=" M 557.95 748.33 C 558.23 748.25 558.78 748.09 559.05 748.01 C 560.04 752.41 561.64 756.71 561.80 761.28 C 561.70 761.13 561.49 760.84 561.39 760.69 C 559.66 756.75 559.06 752.45 557.95 748.33 Z" />
<path fill="#ffd447" d=" M 343.00 753.31 C 346.22 756.06 349.74 758.51 353.75 759.96 C 350.12 765.91 346.62 771.93 343.09 777.93 C 339.88 775.11 335.94 773.50 332.24 771.48 C 336.14 765.62 339.76 759.55 343.00 753.31 Z" />
<path fill="#ffffff" d=" M 300.84 775.98 C 305.64 773.72 310.80 771.84 316.19 772.18 C 316.21 775.22 316.22 778.28 315.91 781.33 C 312.40 781.92 308.93 782.76 305.74 784.39 C 304.00 781.65 302.32 778.87 300.84 775.98 Z" />
<path fill="#ffffff" d=" M 320.73 772.09 C 326.08 771.96 331.18 773.80 335.96 776.02 C 334.55 778.93 332.94 781.73 331.22 784.47 C 327.96 782.73 324.35 781.92 320.77 781.21 C 320.74 778.16 320.74 775.12 320.73 772.09 Z" />
<path fill="#ffffff" d=" M 286.90 789.09 C 289.63 784.19 294.14 780.65 298.45 777.21 C 300.30 779.85 301.86 782.69 303.58 785.43 C 300.30 787.91 297.24 790.71 294.96 794.16 C 292.21 792.60 289.13 791.41 286.90 789.09 Z" />
<path fill="#ffffff" d=" M 338.12 777.40 C 342.21 780.07 345.88 783.40 348.77 787.35 C 349.26 788.06 350.54 789.57 349.03 790.05 C 346.78 791.49 344.48 792.88 342.00 793.90 C 339.36 790.85 336.69 787.84 333.41 785.47 C 335.03 782.81 336.60 780.12 338.12 777.40 Z" />
<path fill="#ffffff" d=" M 293.11 807.40 C 293.67 795.49 304.05 784.30 316.20 784.15 C 316.14 787.60 316.14 791.06 316.20 794.51 C 310.03 796.03 304.63 800.82 303.90 807.37 C 300.30 807.42 296.70 807.42 293.11 807.40 Z" />
<path fill="#ffffff" d=" M 320.71 784.15 C 332.90 784.30 343.16 795.47 343.77 807.40 C 340.15 807.41 336.52 807.41 332.90 807.40 C 332.01 800.92 326.78 796.20 320.69 794.49 C 320.77 791.04 320.76 787.59 320.71 784.15 Z" />
<path fill="#ffffff" d=" M 281.13 807.47 C 281.03 801.83 282.68 796.28 285.48 791.41 C 288.21 793.09 290.97 794.73 293.68 796.47 C 291.95 799.90 291.16 803.68 290.54 807.44 C 287.40 807.39 284.26 807.39 281.13 807.47 Z" />
<path fill="#ffffff" d=" M 343.16 796.46 C 345.87 794.95 348.55 792.07 351.77 792.29 C 354.27 796.92 355.38 802.19 355.74 807.42 C 352.63 807.40 349.52 807.40 346.42 807.44 C 345.77 803.66 344.97 799.87 343.16 796.46 Z" />
<path fill="#ffffff" d=" M 306.29 808.98 C 306.00 803.22 310.75 798.49 316.06 797.10 C 316.27 805.11 316.13 813.12 316.14 821.14 C 310.48 820.21 305.80 814.80 306.29 808.98 Z" />
<path fill="#ffffff" d=" M 320.73 797.26 C 326.09 798.44 330.70 803.39 330.37 809.08 C 330.83 814.83 326.29 820.02 320.78 821.15 C 320.69 813.18 320.79 805.22 320.73 797.26 Z" />
<path fill="#ffffff" d=" M 570.42 804.61 C 574.84 802.21 579.76 800.63 584.83 800.53 C 584.73 809.31 584.88 818.09 584.73 826.87 C 580.00 819.42 575.22 812.01 570.42 804.61 Z" />
<path fill="#ffffff" d=" M 589.70 800.53 C 594.72 800.74 599.63 802.22 604.00 804.71 C 599.18 811.92 594.73 819.37 589.78 826.50 C 589.60 817.84 589.74 809.18 589.70 800.53 Z" />
<path fill="#ffffff" d=" M 556.30 818.34 C 559.03 814.16 562.23 810.30 566.15 807.17 C 570.82 814.48 575.68 821.68 580.15 829.12 C 572.06 825.86 564.19 822.05 556.30 818.34 Z" />
<path fill="#ffffff" d=" M 594.18 829.17 C 598.78 821.85 603.54 814.64 608.17 807.34 C 612.05 810.42 615.35 814.17 617.94 818.41 C 610.11 822.18 602.24 825.91 594.18 829.17 Z" />
<path fill="#ffffff" d=" M 332.92 810.84 C 336.51 810.83 340.10 810.83 343.70 810.82 C 343.25 822.93 332.78 833.53 320.75 834.46 C 320.74 830.90 320.74 827.34 320.75 823.79 C 326.98 822.36 332.07 817.27 332.92 810.84 Z" />
<path fill="#ffffff" d=" M 346.48 810.80 C 349.55 810.84 352.62 810.84 355.70 810.82 C 355.56 816.72 353.83 822.47 351.06 827.65 C 348.32 826.11 345.61 824.51 342.89 822.95 C 344.53 819.04 345.76 814.98 346.48 810.80 Z" />
<path fill="#ffffff" d=" M 281.07 810.84 C 284.12 810.85 287.18 810.72 290.23 810.89 C 291.52 814.50 291.88 818.53 293.69 822.04 C 290.86 823.70 288.03 825.37 285.07 826.80 C 282.83 821.75 280.93 816.44 281.07 810.84 Z" />
<path fill="#ffffff" d=" M 293.08 810.99 C 296.54 810.80 300.00 810.82 303.47 810.76 C 304.88 817.09 309.59 822.61 316.17 823.77 C 316.15 827.36 316.34 830.98 315.83 834.56 C 303.97 833.19 293.77 823.03 293.08 810.99 Z" />
<path fill="#8180ff" d=" M 349.96 833.42 C 353.57 828.71 356.04 823.20 357.31 817.41 C 358.82 818.77 360.67 819.67 362.60 820.35 C 367.28 822.02 371.90 823.89 376.68 825.30 C 389.97 829.13 403.24 833.16 416.76 836.15 C 441.27 840.09 466.07 843.82 490.98 842.41 C 509.83 842.20 528.62 839.97 547.24 837.10 C 547.64 842.52 548.95 847.89 551.27 852.82 C 545.65 854.24 539.85 854.70 534.12 855.47 C 519.83 857.51 505.41 858.76 490.98 858.85 C 481.31 860.20 471.60 858.74 461.92 858.53 C 452.25 858.23 442.74 856.29 433.14 855.24 C 421.58 853.35 409.86 852.13 398.62 848.71 C 388.99 846.27 379.49 843.38 369.94 840.64 C 363.13 838.66 356.66 835.71 349.96 833.42 Z" />
<path fill="#ffffff" d=" M 554.23 823.07 C 562.20 826.66 570.27 830.06 578.03 834.09 C 569.25 835.23 560.54 837.01 551.71 837.65 C 552.16 832.73 552.45 827.74 554.23 823.07 Z" />
<path fill="#ffffff" d=" M 596.09 834.10 C 604.08 830.36 612.04 826.56 620.18 823.17 C 621.57 827.90 622.35 832.81 622.38 837.76 C 613.59 836.77 604.88 835.16 596.09 834.10 Z" />
<path fill="#ffffff" d=" M 286.59 828.96 C 289.33 827.26 292.14 825.66 295.00 824.16 C 297.27 827.53 300.25 830.33 303.50 832.75 C 301.78 835.43 300.26 838.23 298.71 841.01 C 293.72 838.11 289.57 833.89 286.59 828.96 Z" />
<path fill="#ffffff" d=" M 341.33 824.97 C 344.28 826.36 347.04 828.09 349.78 829.86 C 346.66 834.00 342.99 837.67 338.83 840.78 C 337.13 837.94 335.32 835.15 333.95 832.14 C 336.85 830.23 339.26 827.73 341.33 824.97 Z" />
<path fill="#ffffff" d=" M 305.39 834.02 C 308.92 835.18 312.43 836.53 316.17 836.84 C 316.15 840.09 316.15 843.34 316.18 846.60 C 310.83 846.45 305.73 844.72 300.90 842.56 C 302.04 839.53 303.84 836.84 305.39 834.02 Z" />
<path fill="#ffffff" d=" M 321.05 836.69 C 324.88 836.57 328.41 834.99 331.99 833.78 C 333.53 836.54 335.12 839.27 336.71 842.01 C 331.71 844.49 326.37 846.35 320.76 846.60 C 320.71 843.29 320.62 839.97 321.05 836.69 Z" />
<path fill="#ffffff" d=" M 552.87 842.84 C 561.58 841.64 570.24 840.00 579.00 839.25 C 573.10 844.22 567.28 849.28 561.49 854.38 C 560.64 854.83 559.46 856.59 558.51 855.51 C 555.56 851.88 553.96 847.33 552.87 842.84 Z" />
<path fill="#ffffff" d=" M 595.77 839.29 C 604.40 840.01 612.94 841.62 621.52 842.81 C 620.37 847.58 618.25 852.04 615.57 856.13 C 608.57 851.04 602.32 844.96 595.77 839.29 Z" />
<path fill="#ffd447" d=" M 292.12 839.34 C 295.54 841.74 299.04 844.05 302.82 845.85 C 292.66 863.00 282.59 880.20 272.31 897.28 C 269.98 897.97 267.37 899.33 265.02 897.93 C 262.32 896.66 260.58 892.93 262.23 890.25 C 272.12 873.24 282.50 856.50 292.12 839.34 Z" />
<path fill="#ffffff" d=" M 563.28 859.52 C 569.60 853.53 576.55 848.23 582.84 842.21 C 581.09 851.19 578.75 860.05 576.57 868.93 C 571.62 867.16 566.84 864.62 563.08 860.89 C 563.13 860.55 563.23 859.86 563.28 859.52 Z" />
<path fill="#ffffff" d=" M 592.17 842.99 C 598.73 848.38 605.01 854.11 611.52 859.58 C 611.54 859.82 611.58 860.32 611.60 860.56 C 608.15 863.86 604.07 866.56 599.54 868.12 C 597.02 859.76 594.50 851.40 592.17 842.99 Z" />
<path fill="#ffffff" d=" M 587.64 844.88 C 589.72 853.18 592.32 861.35 594.79 869.55 C 590.43 870.73 585.89 870.70 581.45 870.15 C 583.60 861.75 585.34 853.25 587.64 844.88 Z" />
<path fill="#ffd447" d=" M 592.26 874.78 C 596.38 874.43 600.29 873.03 604.08 871.43 C 606.02 881.74 609.30 891.75 611.76 901.95 C 614.83 913.63 617.86 925.32 620.98 936.99 C 621.61 939.42 621.91 942.29 620.46 944.52 C 618.97 946.53 616.18 946.80 613.87 946.52 C 610.05 944.97 609.48 940.57 608.57 937.08 C 603.18 916.30 597.68 895.55 592.26 874.78 Z" />
</svg>
